<?xml version="1.0" encoding="iso-8859-1"?>
<!-- Generator: Adobe Illustrator 23.0.1, SVG Export Plug-In . SVG Version: 6.00 Build 0)  -->
<svg version="1.1" id="Layer_1" xmlns="http://www.w3.org/2000/svg" xmlns:xlink="http://www.w3.org/1999/xlink" x="0px" y="0px"
	 viewBox="0 0 1500.001 412" style="enable-background:new 0 0 1500.001 412;" xml:space="preserve">
<g>
	<g>
		<path style="fill-rule:evenodd;clip-rule:evenodd;fill:#FFD99C;" d="M966.566,103.215c-68.608,0-124.216,55.605-124.216,124.215
			c0,68.609,55.607,124.227,124.216,124.227s124.229-55.617,124.229-124.227C1090.795,158.82,1035.176,103.215,966.566,103.215"/>
		<g>
			<path style="fill:#FFFFFF;" d="M1059.152,234.047c3.651,0,6.617-2.969,6.617-6.617c0-39.343-23.281-75-59.301-90.84
				c-3.348-1.469-7.24,0.047-8.709,3.383c-1.467,3.348,0.049,7.242,3.385,8.707c31.23,13.73,51.41,44.652,51.41,78.75
				C1052.555,231.078,1055.515,234.047,1059.152,234.047z"/>
		</g>
	</g>
	<g>
		<path style="fill-rule:evenodd;clip-rule:evenodd;fill:#FFD99C;" d="M713.568,188.069c-45.411,0-82.218,36.805-82.218,82.217
			s36.807,82.226,82.218,82.226c45.412,0,82.227-36.813,82.227-82.226S758.981,188.069,713.568,188.069"/>
		<g>
			<path style="fill:#FFFFFF;" d="M774.851,274.667c2.417,0,4.38-1.966,4.38-4.381c0-26.041-15.409-49.643-39.251-60.126
				c-2.216-0.972-4.792,0.03-5.765,2.239c-0.971,2.215,0.033,4.793,2.241,5.763c20.671,9.089,34.028,29.556,34.028,52.124
				C770.484,272.701,772.443,274.667,774.851,274.667z"/>
		</g>
	</g>
	<g>
		<path style="fill-rule:evenodd;clip-rule:evenodd;fill:#374A58;" d="M969.086,237.631c13.826,12.914,22.402,30.856,22.402,50.705
			c0,28.28-17.394,52.691-42.593,64.176h-64.989c-25.205-11.484-42.606-35.896-42.606-64.176c0-19.849,8.577-37.791,22.41-50.705
			c-6.603-8.417-12.046-17.448-15.581-26.398c-4.268-10.793-5.936-21.704-3.908-31.802c2.188-10.913,8.404-20.434,19.835-27.411
			c24.646-15.02,80.037-15.02,104.682,0c11.426,6.978,17.655,16.498,19.83,27.411c2.026,10.098,0.372,21.009-3.896,31.802
			C981.138,220.183,975.695,229.214,969.086,237.631 M916.402,217.176c11.684,0,22.742,2.53,32.608,7.037
			c5.662-6.977,10.291-14.475,13.199-21.852c2.629-6.643,3.734-12.936,2.682-18.208c-0.895-4.455-3.615-8.455-8.697-11.557
			c-16.702-10.188-62.896-10.188-79.584,0c-5.089,3.102-7.803,7.102-8.697,11.557c-1.06,5.272,0.055,11.565,2.675,18.208
			c2.916,7.377,7.543,14.874,13.199,21.852C893.644,219.706,904.716,217.176,916.402,217.176z"/>
		<path style="fill-rule:evenodd;clip-rule:evenodd;fill:#1A2C38;" d="M916.402,217.176c11.684,0,22.742,2.53,32.608,7.037
			c5.662-6.977,10.291-14.475,13.199-21.852c2.629-6.643,3.734-12.936,2.682-18.208c-0.895-4.455-3.615-8.455-8.697-11.557
			c-8.351-5.092-24.079-7.64-39.791-7.64V140.76c20.008,0,40.018,3.751,52.336,11.261c11.426,6.978,17.655,16.498,19.83,27.411
			c2.026,10.098,0.372,21.009-3.896,31.802c-3.535,8.949-8.978,17.981-15.587,26.398c13.826,12.914,22.402,30.856,22.402,50.705
			c0,28.28-17.394,52.691-42.593,64.176h-32.493V217.176z"/>
		<path style="fill-rule:evenodd;clip-rule:evenodd;fill:#6A808F;" d="M988.568,186.207c0.372,1.86,0.586,3.751,0.713,5.65
			c0.3-4.236,0.1-8.396-0.713-12.426c-2.175-10.913-8.404-20.434-19.83-27.411c-24.644-15.02-80.036-15.02-104.682,0
			c-11.431,6.978-17.647,16.498-19.835,27.411c-0.813,4.03-1.007,8.185-0.707,12.412c0.134-1.899,0.334-3.781,0.707-5.637
			c2.188-10.908,8.404-20.433,19.835-27.411c12.326-7.51,32.335-11.256,52.346-11.256c17.501,0,35.009,2.865,47.367,8.613
			c1.774,0.83,3.429,1.711,4.969,2.642C980.164,165.775,986.394,175.299,988.568,186.207z"/>
		<path style="fill-rule:evenodd;clip-rule:evenodd;fill:#3E5769;" d="M988.568,186.207c0.372,1.86,0.586,3.751,0.713,5.65
			c0.3-4.236,0.1-8.396-0.713-12.426c-2.175-10.913-8.404-20.434-19.83-27.411c-12.318-7.51-32.328-11.261-52.336-11.261v6.78
			c17.501,0,35.009,2.865,47.367,8.613c1.774,0.83,3.429,1.711,4.969,2.642C980.164,165.775,986.394,175.299,988.568,186.207z"/>
		<path style="fill-rule:evenodd;clip-rule:evenodd;fill:#243642;" d="M872.488,346.016c3.588,2.452,7.391,4.652,11.418,6.496
			h64.989c4.028-1.844,7.824-4.044,11.406-6.496H872.488z"/>
		<path style="fill-rule:evenodd;clip-rule:evenodd;fill:#101D26;" d="M916.402,346.016v6.496h32.493
			c4.028-1.844,7.824-4.044,11.406-6.496H916.402z"/>
	</g>
	<g>
		<rect x="769.573" y="55.889" style="fill:#2B1619;" width="26.892" height="61.285"/>
		<rect x="769.573" y="55.889" style="fill:#4A262B;" width="5.344" height="61.285"/>
		<rect x="769.573" y="55.889" style="fill:#170C0D;" width="26.892" height="4.575"/>
		<rect x="781.832" y="55.889" style="fill:#170C0D;" width="14.633" height="61.285"/>
		<path style="fill:#2B1619;" d="M759.477,127.038h109.649c6.165,0,11.213,5.042,11.213,11.212v5.791H748.273v-5.791
			C748.273,132.08,753.307,127.038,759.477,127.038z"/>
		<path style="fill:#FF9C9E;" d="M863.359,342.682c-0.213,3.632-3.331,6.58-6.971,6.58h-42.083h-42.091
			c-3.632,0-6.76-2.948-6.967-6.58L753.92,144.041h120.771L863.359,342.682z"/>
		<path style="fill:#FF383C;" d="M863.359,342.682c-0.213,3.632-3.331,6.58-6.971,6.58h-42.083h-42.091
			c-3.632,0-6.76-2.948-6.967-6.58l-8.259-144.864h114.625L863.359,342.682z"/>
		<path style="fill:#FF383C;" d="M863.359,342.682c-0.213,3.632-3.331,6.58-6.971,6.58h-42.083h-42.091
			c-3.632,0-6.76-2.948-6.967-6.58l-8.259-144.864h114.625L863.359,342.682z"/>
		<path style="fill:#2B1619;" d="M865.793,127.038c0.319-9.634,1.108-23.423-9.381-25.702c-5.499-1.194-9.991-5.022-12.289-10.047
			c-4.025-8.786-2.34-13.589-13.527-16.912c-4.27-1.262-8.798-1.911-13.461-1.911h-2.829h-2.839c-4.662,0-9.184,0.649-13.446,1.911
			c-11.192,3.323-9.514,8.126-13.534,16.912c-2.298,5.024-6.794,8.853-12.297,10.047c-10.482,2.279-9.692,16.068-9.373,25.702
			H865.793z"/>
		<path style="fill:#170C0D;" d="M856.412,101.336c-5.073-1.093-9.264-4.454-11.693-8.904h-60.836
			c-2.424,4.45-6.612,7.811-11.693,8.904c-10.482,2.279-9.692,16.068-9.373,25.702h102.977
			C866.112,117.404,866.901,103.615,856.412,101.336z"/>
		<path style="fill:#2B1619;" d="M865.793,127.038c0.319-9.634,1.108-23.423-9.381-25.702c-0.267-0.054-0.556-0.13-0.831-0.198
			H773.03c-0.277,0.068-0.564,0.145-0.841,0.198c-10.482,2.279-9.692,16.068-9.373,25.702H865.793z"/>
		<path style="fill:#4A262B;" d="M759.477,127.038h109.649c4.098,0,7.701,2.234,9.661,5.535H749.822
			C751.775,129.272,755.373,127.038,759.477,127.038z"/>
		<path style="fill:#4A262B;" d="M863.673,107.063c-1.419-2.83-3.688-4.948-7.261-5.727c-0.267-0.054-0.556-0.13-0.831-0.198H773.03
			c-0.277,0.068-0.564,0.145-0.841,0.198c-3.579,0.778-5.831,2.897-7.265,5.727H863.673z"/>
		<rect x="766.707" y="49.736" style="fill:#2B1619;" width="32.616" height="6.152"/>
		<path style="fill:#4A262B;" d="M766.707,49.736h32.616c0-2.253-1.843-4.106-4.097-4.106H770.81
			C768.558,45.63,766.707,47.483,766.707,49.736z"/>
		<path style="fill:#170C0D;" d="M759.837,54.95h42.366c13.289,0,25.353,1.468,35.982,4.324c16.003,4.288,28.76,11.69,37.521,21.896
			c8.791,10.221,13.553,23.218,13.553,38.683l0,0c0,7.417-1.097,14.08-3.377,22.578l-0.184,0.699h-0.724h-10.502v-1.866h9.791
			c2.12-8.095,3.132-14.367,3.132-21.411l0,0c0-14.998-4.607-27.594-13.099-37.482c-8.516-9.898-20.959-17.108-36.588-21.301
			c-10.477-2.801-22.376-4.258-35.507-4.258h-42.366V54.95H759.837z"/>
		<path style="fill:#FF383C;" d="M777.607,198.837c0,3.352-2.716,6.075-6.078,6.075c-3.351,0-6.074-2.724-6.074-6.075
			c0-3.355,2.724-6.071,6.074-6.071C774.892,192.766,777.607,195.482,777.607,198.837z"/>
		<path style="fill:#FF383C;" d="M864.759,198.837c0,3.352-2.729,6.075-6.085,6.075c-3.351,0-6.071-2.724-6.071-6.075
			c0-3.355,2.721-6.071,6.071-6.071C862.03,192.766,864.759,195.482,864.759,198.837z"/>
		<polygon style="fill:#FF7375;" points="841.004,144.041 787.606,144.041 789.142,197.875 839.468,197.875 		"/>
		<path style="fill:#FF383C;" d="M783.342,198.996c0.085,3.277,2.756,5.872,6.01,5.899l-0.325-12.096
			C785.787,193.006,783.248,195.727,783.342,198.996z"/>
		<path style="fill:#C72C2E;" d="M789.252,192.771c-0.072,0-0.151,0.02-0.226,0.028l0.325,12.096c0.072,0,0.142,0.017,0.227,0.017
			c3.344-0.086,5.997-2.88,5.905-6.229C795.398,195.327,792.604,192.679,789.252,192.771z"/>
		<path style="fill:#C72C2E;" d="M804.117,197.569c0,3.494-2.833,6.319-6.322,6.319c-3.494,0-6.319-2.825-6.319-6.319
			c0-3.493,2.825-6.318,6.319-6.318C801.284,191.251,804.117,194.076,804.117,197.569z"/>
		<path style="fill:#C72C2E;" d="M817.626,199.027c0,2.858-2.315,5.161-5.173,5.161c-2.854,0-5.165-2.303-5.165-5.161
			c0-2.851,2.312-5.167,5.165-5.167C815.311,193.86,817.626,196.177,817.626,199.027z"/>
		<path style="fill:#C72C2E;" d="M809.6,198.118c0,2.282-1.85,4.122-4.122,4.122c-2.274,0-4.124-1.84-4.124-4.122
			c0-2.278,1.85-4.132,4.124-4.132C807.75,193.986,809.6,195.84,809.6,198.118z"/>
		<path style="fill:#C72C2E;" d="M831.38,198.837c0,2.271-1.845,4.128-4.128,4.128c-2.275,0-4.129-1.857-4.129-4.128
			c0-2.275,1.854-4.124,4.129-4.124C829.535,194.713,831.38,196.562,831.38,198.837z"/>
		<path style="fill:#C72C2E;" d="M824.677,198.837c0,2.271-1.843,4.128-4.122,4.128c-2.274,0-4.124-1.857-4.124-4.128
			c0-2.275,1.85-4.124,4.124-4.124C822.834,194.713,824.677,196.562,824.677,198.837z"/>
		<path style="fill:#C72C2E;" d="M835.858,190.816c-3.007,0.094-5.36,2.617-5.263,5.618c0.104,3.007,2.622,5.358,5.625,5.258
			c1.22-0.042,2.327-0.497,3.209-1.21c0.023-2.791,0.104-5.561,0.228-8.277C838.65,191.3,837.304,190.765,835.858,190.816z"/>
		<path style="fill:#FF383C;" d="M841.472,196.068c-0.051-1.547-0.743-2.907-1.814-3.863c-0.123,2.717-0.204,5.486-0.228,8.277
			C840.717,199.447,841.532,197.851,841.472,196.068z"/>
		<polygon style="fill:#C72C2E;" points="789.142,197.875 793.474,349.262 810.004,349.262 835.135,349.262 839.468,197.875 		"/>
		<path style="fill:#170C0D;" d="M748.291,137.903c-0.006,0.118-0.018,0.229-0.018,0.347v5.791h132.066v-5.791
			c0-0.117-0.019-0.228-0.019-0.347H748.291z"/>
		<path style="fill:#170C0D;" d="M762.742,117.174c-0.171,3.374-0.025,6.829,0.074,9.864h102.977c0.1-3.035,0.245-6.49,0.074-9.864
			H762.742z"/>
		<path style="fill:#4A262B;" d="M839.283,79.581c-1.534-2.129-3.958-3.796-8.688-5.204c-4.27-1.262-8.798-1.911-13.461-1.911
			h-5.668c-4.662,0-9.184,0.649-13.446,1.911c-4.736,1.408-7.167,3.075-8.694,5.204H839.283z"/>
		<polygon style="fill:#FF7375;" points="874.157,153.387 874.691,144.041 753.921,144.041 754.455,153.387 		"/>
		<path style="fill:#C72C2E;" d="M765.236,342.307l0.012,0.375c0.207,3.632,3.335,6.58,6.967,6.58h84.174
			c3.64,0,6.758-2.948,6.971-6.58l0.014-0.375H765.236z"/>
		<path style="fill:#A85662;" d="M779.617,129.798c0,0.528-0.426,0.945-0.941,0.945H762.02c-0.516,0-0.931-0.417-0.931-0.945l0,0
			c0-0.512,0.415-0.937,0.931-0.937h16.656C779.191,128.861,779.617,129.286,779.617,129.798L779.617,129.798z"/>
		<path style="fill:#A85662;" d="M787.163,104.099c0,0.521-0.428,0.938-0.942,0.938H775.81c-0.507,0-0.933-0.417-0.933-0.938l0,0
			c0-0.514,0.426-0.943,0.933-0.943h10.411C786.735,103.155,787.163,103.585,787.163,104.099L787.163,104.099z"/>
		<path style="fill:#A85662;" d="M809.006,75.577c0,0.518-0.418,0.941-0.94,0.941h-4.152c-0.508,0-0.941-0.423-0.941-0.941l0,0
			c0-0.514,0.433-0.938,0.941-0.938h4.152C808.588,74.64,809.006,75.064,809.006,75.577L809.006,75.577z"/>
		<path style="fill:#A85662;" d="M775.258,49.736c0,0.512-0.422,0.939-0.935,0.939h-4.149c-0.526,0-0.942-0.428-0.942-0.939l0,0
			c0-0.525,0.416-0.938,0.942-0.938h4.149C774.836,48.798,775.258,49.211,775.258,49.736L775.258,49.736z"/>
		<path style="fill:#991119;" d="M827.252,313.713c0,0.57-0.633,1.035-1.416,1.035h-23.06c-0.785,0-1.422-0.465-1.422-1.035l0,0
			c0-0.585,0.637-1.046,1.422-1.046h23.06C826.619,312.667,827.252,313.128,827.252,313.713L827.252,313.713z"/>
		<path style="fill:#991119;" d="M822.612,295.738c0,0.586-0.411,1.046-0.912,1.046h-14.798c-0.494,0-0.919-0.46-0.919-1.046l0,0
			c0-0.568,0.425-1.037,0.919-1.037H821.7C822.201,294.701,822.612,295.17,822.612,295.738L822.612,295.738z"/>
		<path style="fill:#991119;" d="M827.252,277.785c0,0.579-0.633,1.048-1.416,1.048h-23.06c-0.785,0-1.422-0.469-1.422-1.048l0,0
			c0-0.568,0.637-1.039,1.422-1.039h23.06C826.619,276.746,827.252,277.217,827.252,277.785L827.252,277.785z"/>
		<path style="fill:#991119;" d="M822.612,259.828c0,0.576-0.411,1.045-0.912,1.045h-14.798c-0.494,0-0.919-0.469-0.919-1.045l0,0
			c0-0.576,0.425-1.045,0.919-1.045H821.7C822.201,258.783,822.612,259.252,822.612,259.828L822.612,259.828z"/>
		<path style="fill:#991119;" d="M827.252,241.865c0,0.584-0.633,1.047-1.416,1.047h-23.06c-0.785,0-1.422-0.463-1.422-1.047l0,0
			c0-0.57,0.637-1.039,1.422-1.039h23.06C826.619,240.826,827.252,241.295,827.252,241.865L827.252,241.865z"/>
		<path style="fill:#991119;" d="M822.612,223.91c0,0.578-0.411,1.044-0.912,1.044h-14.798c-0.494,0-0.919-0.466-0.919-1.044l0,0
			c0-0.576,0.425-1.039,0.919-1.039H821.7C822.201,222.871,822.612,223.334,822.612,223.91L822.612,223.91z"/>
		<path style="fill:#991119;" d="M827.252,205.964c0,0.565-0.633,1.034-1.416,1.034h-23.06c-0.785,0-1.422-0.469-1.422-1.034l0,0
			c0-0.587,0.637-1.052,1.422-1.052h23.06C826.619,204.912,827.252,205.377,827.252,205.964L827.252,205.964z"/>
		<path style="fill:#DB3D40;" d="M822.612,187.997c0,0.577-0.411,1.04-0.912,1.04h-14.798c-0.494,0-0.919-0.463-0.919-1.04l0,0
			c0-0.577,0.425-1.046,0.919-1.046H821.7C822.201,186.951,822.612,187.42,822.612,187.997L822.612,187.997z"/>
		<path style="fill:#DB3D40;" d="M827.252,170.043c0,0.568-0.633,1.038-1.416,1.038h-23.06c-0.785,0-1.422-0.47-1.422-1.038l0,0
			c0-0.584,0.637-1.047,1.422-1.047h23.06C826.619,168.996,827.252,169.459,827.252,170.043L827.252,170.043z"/>
		<path style="fill:#FF383C;" d="M765.455,197.875c0,2.143-1.732,3.877-3.87,3.877c-2.145,0-3.884-1.734-3.884-3.877
			c0-2.148,1.739-3.889,3.884-3.889C763.724,193.986,765.455,195.727,765.455,197.875z"/>
		<path style="fill:#FF383C;" d="M871.356,197.817c0,2.138-1.734,3.875-3.885,3.875c-2.139,0-3.872-1.737-3.872-3.875
			s1.733-3.881,3.872-3.881C869.622,193.937,871.356,195.68,871.356,197.817z"/>
		<path style="fill:#FF383C;" d="M856.486,194.957c0,2.15-1.741,3.88-3.884,3.88c-2.139,0-3.887-1.729-3.887-3.88
			c0-2.142,1.748-3.877,3.887-3.877C854.745,191.08,856.486,192.815,856.486,194.957z"/>
		<path style="fill:#FF383C;" d="M787.805,195.616c0,3.361-2.718,6.076-6.068,6.076c-3.358,0-6.078-2.715-6.078-6.076
			c0-3.352,2.72-6.063,6.078-6.063C785.087,189.553,787.805,192.265,787.805,195.616z"/>
		<path style="fill:#FF383C;" d="M852.602,199.027c0,3.356-2.72,6.077-6.07,6.077c-3.352,0-6.078-2.721-6.078-6.077
			c0-3.361,2.727-6.069,6.078-6.069S852.602,195.666,852.602,199.027z"/>
		<path style="fill:#FFC9D9;" d="M775.566,329.669c0.036,0.804-0.624,1.482-1.467,1.522l0,0c-0.85,0.039-1.572-0.578-1.61-1.382
			l-7.454-163.825c-0.036-0.799,0.624-1.486,1.47-1.521l0,0c0.852-0.042,1.567,0.582,1.611,1.38L775.566,329.669z"/>
	</g>
	<g>
		<path style="fill-rule:evenodd;clip-rule:evenodd;fill:#FFCAD2;" d="M449.642,206.706h101.325c2.415,0,4.387,1.964,4.387,4.369
			v107.128c0,18.867-15.443,34.309-34.319,34.309h-41.469c-18.866,0-34.307-15.441-34.307-34.309V211.075
			C445.259,208.67,447.234,206.706,449.642,206.706"/>
		<path style="fill-rule:evenodd;clip-rule:evenodd;fill:#F4B5C1;" d="M500.309,206.706h50.658c2.415,0,4.387,1.964,4.387,4.369
			v107.128c0,18.867-15.443,34.309-34.319,34.309h-20.726L500.309,206.706L500.309,206.706z"/>
		<path style="fill-rule:evenodd;clip-rule:evenodd;fill:#FF706C;" d="M555.354,252.091v66.112
			c0,18.867-15.443,34.309-34.319,34.309h-41.469c-18.866,0-34.307-15.441-34.307-34.309v-66.112H555.354z"/>
		<path style="fill-rule:evenodd;clip-rule:evenodd;fill:#FFBBC5;" d="M443.94,223.357h112.736c1.594,0,2.896,1.305,2.896,2.898
			v0.002c0,1.588-1.303,2.896-2.896,2.896H443.94c-1.606,0-2.906-1.309-2.906-2.896v-0.002
			C441.034,224.662,442.334,223.357,443.94,223.357"/>
		<path style="fill-rule:evenodd;clip-rule:evenodd;fill:#FFBBC5;" d="M443.94,237.956h112.736c1.594,0,2.896,1.301,2.896,2.891l0,0
			c0,1.599-1.303,2.904-2.896,2.904H443.94c-1.606,0-2.906-1.306-2.906-2.904l0,0C441.034,239.257,442.334,237.956,443.94,237.956"
			/>
		<path style="fill-rule:evenodd;clip-rule:evenodd;fill:#ED5B5D;" d="M555.354,252.091v66.112
			c0,18.867-15.443,34.309-34.319,34.309h-20.726V252.091H555.354z"/>
		<path style="fill-rule:evenodd;clip-rule:evenodd;fill:#ED5B5D;" d="M537.979,338.887c-5.251,4.864-12.262,7.853-19.932,7.853
			h-35.484c-7.673,0-14.684-2.988-19.93-7.853H537.979z"/>
		<path style="fill-rule:evenodd;clip-rule:evenodd;fill:#DD454D;" d="M537.979,338.887c-5.251,4.864-12.262,7.853-19.932,7.853
			h-17.738v-7.853H537.979z"/>
		<path style="fill-rule:evenodd;clip-rule:evenodd;fill:#F7A6B5;" d="M500.309,223.357h56.368c1.594,0,2.896,1.305,2.896,2.898
			v0.002c0,1.588-1.303,2.896-2.896,2.896h-56.368V223.357z"/>
		<path style="fill-rule:evenodd;clip-rule:evenodd;fill:#F7A6B5;" d="M500.309,237.956h56.368c1.594,0,2.896,1.301,2.896,2.891l0,0
			c0,1.599-1.303,2.904-2.896,2.904h-56.368V237.956z"/>
		<path style="fill-rule:evenodd;clip-rule:evenodd;fill:#FFBBC5;" d="M449.642,206.706h101.325c2.36,0,4.303,1.883,4.377,4.225
			H445.267C445.341,208.589,447.282,206.706,449.642,206.706"/>
		<path style="fill-rule:evenodd;clip-rule:evenodd;fill:#F7A6B5;" d="M500.309,206.706h50.658c2.36,0,4.303,1.883,4.377,4.225
			h-55.035V206.706z"/>
		<path style="fill-rule:evenodd;clip-rule:evenodd;fill:#FFFFFF;" d="M470.98,246.19v71.565c0,2.721-2.227,4.944-4.943,4.944l0,0
			c-2.73,0-4.956-2.224-4.956-4.944V246.19H470.98z M470.98,231.69v8.33h-9.899v-8.33H470.98z M466.037,217.206L466.037,217.206
			c2.717,0,4.943,2.227,4.943,4.945v3.145h-9.899v-3.145C461.081,219.434,463.307,217.206,466.037,217.206z"/>
		<g>
			<path style="fill-rule:evenodd;clip-rule:evenodd;fill:#FF706C;" d="M519.262,289.406c2.66,0,4.829,2.168,4.829,4.83
				c0,2.667-2.169,4.826-4.829,4.826c-2.678,0-4.842-2.159-4.842-4.826C514.42,291.574,516.584,289.406,519.262,289.406"/>
			<g>
				<path style="fill-rule:evenodd;clip-rule:evenodd;fill:#FF706C;" d="M536.402,270.149c2.662,0,4.824,2.166,4.824,4.833
					c0,2.668-2.162,4.821-4.824,4.821c-2.676,0-4.832-2.153-4.832-4.821C531.57,272.315,533.727,270.149,536.402,270.149"/>
				<path style="fill-rule:evenodd;clip-rule:evenodd;fill:#FF706C;" d="M536.402,308.664c2.662,0,4.824,2.163,4.824,4.822
					c0,2.671-2.162,4.828-4.824,4.828c-2.676,0-4.832-2.157-4.832-4.828C531.57,310.827,533.727,308.664,536.402,308.664"/>
			</g>
		</g>
	</g>
	<g>
		<path style="fill-rule:evenodd;clip-rule:evenodd;fill:#63BDC8;" d="M1280.451,344.256l-18.984-117.892
			c-1.895-11.77-1.061-12.33,10.527-12.33h41.084h41.083c11.591,0,12.415,0.561,10.523,12.33l-18.979,117.892
			c-0.681,4.22-4.356,8.256-8.803,8.256h-47.838C1284.756,352.512,1281.104,348.356,1280.451,344.256z"/>
		<path style="fill:none;" d="M1280.451,344.256l-18.984-117.892c-1.895-11.77-1.061-12.33,10.527-12.33h41.084h41.083
			c11.591,0,12.415,0.561,10.523,12.33l-18.979,117.892c-0.681,4.22-4.356,8.256-8.803,8.256h-47.838
			C1284.756,352.512,1281.104,348.356,1280.451,344.256z"/>
		<path style="fill-rule:evenodd;clip-rule:evenodd;fill:#76D2DE;" d="M1280.451,344.256l-1.009-6.203h67.259l-0.996,6.203
			c-0.681,4.22-4.356,8.256-8.803,8.256h-47.838C1284.756,352.512,1281.104,348.356,1280.451,344.256z"/>
		<path style="fill:none;" d="M1280.451,344.256l-1.009-6.203h67.259l-0.996,6.203c-0.681,4.22-4.356,8.256-8.803,8.256h-47.838
			C1284.756,352.512,1281.104,348.356,1280.451,344.256z"/>
		<path style="fill-rule:evenodd;clip-rule:evenodd;fill:#76D2DE;" d="M1260.716,220.555c-0.368-6.161,2.007-6.521,11.278-6.521
			h41.084h41.083c9.271,0,11.649,0.359,11.271,6.521H1260.716z"/>
		<path style="fill:none;" d="M1260.716,220.555c-0.368-6.161,2.007-6.521,11.278-6.521h41.084h41.083
			c9.271,0,11.649,0.359,11.271,6.521H1260.716z"/>
		<path style="fill-rule:evenodd;clip-rule:evenodd;fill:#409CA9;" d="M1313.078,214.034h41.083c11.591,0,12.415,0.561,10.523,12.33
			l-18.979,117.892c-0.681,4.22-4.356,8.256-8.803,8.256h-23.824V214.034z"/>
		<path style="fill:none;" d="M1313.078,214.034h41.083c11.591,0,12.415,0.561,10.523,12.33l-18.979,117.892
			c-0.681,4.22-4.356,8.256-8.803,8.256h-23.824V214.034z"/>
		<path style="fill-rule:evenodd;clip-rule:evenodd;fill:#CCCCCC;" d="M1313.078,214.034h41.083c9.271,0,11.649,0.359,11.271,6.521
			h-52.354V214.034z"/>
		<path style="fill:#4CBEC1;" d="M1313.078,214.034h41.083c9.271,0,11.649,0.359,11.271,6.521h-52.354V214.034z"/>
		<path style="fill-rule:evenodd;clip-rule:evenodd;fill:#4CBEC1;" d="M1313.078,338.053h33.623l-0.996,6.203
			c-0.681,4.22-4.356,8.256-8.803,8.256h-23.824L1313.078,338.053L1313.078,338.053z"/>
		<path style="fill:none;" d="M1313.078,338.053h33.623l-0.996,6.203c-0.681,4.22-4.356,8.256-8.803,8.256h-23.824L1313.078,338.053
			L1313.078,338.053z"/>
		<g>
			<path style="fill:#A1EFF9;" d="M1292.522,330.803c-2.147,0-4.005-1.629-4.23-3.817l-0.483-4.656
				c-0.246-2.338,1.453-4.431,3.796-4.684c2.324-0.25,4.428,1.47,4.675,3.798l0.489,4.647c0.247,2.347-1.453,4.439-3.789,4.684
				C1292.822,330.797,1292.672,330.803,1292.522,330.803z"/>
		</g>
		<g>
			<path style="fill:#A1EFF9;" d="M1290.219,308.756c-2.155,0-3.998-1.635-4.231-3.816l-7.578-72.463
				c-0.243-2.337,1.458-4.436,3.794-4.675c2.339-0.246,4.442,1.446,4.676,3.794l7.585,72.453c0.255,2.344-1.458,4.434-3.796,4.682
				C1290.518,308.752,1290.363,308.756,1290.219,308.756z"/>
		</g>
		<g>
			<g>
				<path style="fill-rule:evenodd;clip-rule:evenodd;fill:#63BDC8;" d="M1327.02,274.554c2.115,0,3.833,1.719,3.833,3.846
					c0,2.115-1.718,3.839-3.833,3.839c-2.133,0-3.848-1.724-3.848-3.839C1323.172,276.273,1324.887,274.554,1327.02,274.554"/>
				<g>
					<path style="fill-rule:evenodd;clip-rule:evenodd;fill:#63BDC8;" d="M1340.651,259.238c2.116,0,3.841,1.718,3.841,3.839
						c0,2.12-1.725,3.837-3.841,3.837c-2.115,0-3.848-1.717-3.848-3.837C1336.804,260.956,1338.536,259.238,1340.651,259.238"/>
					<path style="fill-rule:evenodd;clip-rule:evenodd;fill:#63BDC8;" d="M1340.651,289.873c2.116,0,3.841,1.726,3.841,3.836
						c0,2.129-1.725,3.852-3.841,3.852c-2.115,0-3.848-1.723-3.848-3.852C1336.804,291.599,1338.536,289.873,1340.651,289.873"/>
				</g>
			</g>
		</g>
	</g>
	<g>
		<path style="fill-rule:evenodd;clip-rule:evenodd;fill:#AFC52A;" d="M372.547,352.512c-17.574-0.765-32.103-7.884-42.036-24.557
			c-5.523-11.978-5.547-24.336-0.045-37.03c4.985-11.512,8.316-14.389,11.55-22.641c3.97-10.081,4.683-21.153,8.447-30.825
			c7.175-18.419,36.987-18.419,44.166,0c3.767,9.672,4.482,20.744,8.44,30.825c3.24,8.252,6.569,11.129,11.562,22.641
			c5.502,12.694,5.479,25.052-0.051,37.03C404.647,344.628,390.122,351.747,372.547,352.512"/>
		<path style="fill-rule:evenodd;clip-rule:evenodd;fill:#A1B80B;" d="M372.547,223.643c9.248,0,18.503,4.607,22.082,13.816
			c3.767,9.672,4.482,20.744,8.44,30.825c3.24,8.252,6.569,11.129,11.562,22.641c5.502,12.694,5.479,25.052-0.051,37.03
			c-9.934,16.673-24.459,23.792-42.034,24.557L372.547,223.643L372.547,223.643z"/>
		<path style="fill-rule:evenodd;clip-rule:evenodd;fill:#899D0E;" d="M372.547,228.349c2.38,0,4.308,1.056,4.308,2.365
			c0,1.298-1.928,2.353-4.308,2.353c-2.382,0-4.314-1.056-4.314-2.353C368.233,229.404,370.165,228.349,372.547,228.349"/>
		<g>
			<path style="fill:#2B0A0A;" d="M372.811,231.493h-0.006c-0.943,0-1.702-0.764-1.689-1.7c0.05-11.981,2.362-29.069,21.722-39.103
				c0.836-0.424,1.852-0.111,2.284,0.732c0.435,0.83,0.107,1.856-0.718,2.285c-13.684,7.088-19.812,18.213-19.897,36.096
				C374.508,230.746,373.745,231.493,372.811,231.493z"/>
		</g>
		<g>
			<path style="fill:#FFFFFF;" d="M351.881,272.534c-0.311,0-0.616-0.053-0.908-0.169c-1.326-0.491-1.98-1.978-1.477-3.282
				c1.436-3.785,2.451-7.723,3.194-12.398c0.875-5.569,1.691-10.768,3.63-15.517c0.529-1.303,2.019-1.928,3.323-1.392
				c1.301,0.528,1.928,2.02,1.397,3.325c-1.719,4.193-2.489,9.102-3.309,14.31c-0.797,5.099-1.911,9.37-3.476,13.49
				C353.871,271.909,352.893,272.534,351.881,272.534z"/>
		</g>
		<g>
			<path style="fill:#FFFFFF;" d="M348.291,336.622c-0.626,0-1.254-0.24-1.74-0.71c-13.927-13.178-16.301-29.627-6.865-47.569
				c0.65-1.241,2.188-1.722,3.433-1.065c1.255,0.652,1.725,2.198,1.075,3.438c-8.374,15.932-6.407,29.892,5.854,41.5
				c1.02,0.97,1.059,2.584,0.104,3.603C349.646,336.354,348.971,336.622,348.291,336.622z"/>
		</g>
	</g>
	<g>
		<path style="fill-rule:evenodd;clip-rule:evenodd;fill:#E5E5E6;" d="M608.927,132.924h-51.259v6.796
			c-12.055,5.689-17.774,15.903-16.47,31.135v140.301c-1.82,15.045,0.381,25.783,6.903,31.902
			c13.438,12.605,108.204,12.605,121.649,0c6.522-6.119,8.726-16.857,6.893-31.902V170.854c1.315-15.231-4.408-25.445-16.463-31.135
			v-6.796h-51.253V132.924z"/>
		<path style="fill-rule:evenodd;clip-rule:evenodd;fill:#D4D4D4;" d="M608.927,110.843h-50.693c-2.318,0-4.109,0.377-4.109,2.993
			v3.45c-1.4,0.329-1.38,0.572-1.38,1.779v11.93c0,1.603,0.298,1.929,1.927,1.929h54.256h54.251c1.628,0,1.93-0.325,1.93-1.929
			v-11.93c0-1.207,0.018-1.45-1.377-1.779v-3.45c0-2.616-1.801-2.993-4.114-2.993H608.927z"/>
		<rect x="541.198" y="170.854" style="fill-rule:evenodd;clip-rule:evenodd;fill:#F7F8F8;" width="135.446" height="140.301"/>
		<path style="fill-rule:evenodd;clip-rule:evenodd;fill:#EDC7A9;" d="M583.405,188.123h51.04c5.282,0,9.602,4.318,9.602,9.602
			c0,5.285-4.319,9.602-9.602,9.602h-51.04c-5.283,0-9.604-4.316-9.604-9.602C573.801,192.441,578.122,188.123,583.405,188.123"/>
		<path style="fill-rule:evenodd;clip-rule:evenodd;fill:#824B19;" d="M585.747,229.054h46.354c1.707,0,3.104,1.398,3.104,3.111
			v1.871c0,1.708-1.396,3.107-3.104,3.107h-46.354c-1.707,0-3.099-1.399-3.099-3.107v-1.871
			C582.648,230.452,584.04,229.054,585.747,229.054"/>
		<path style="fill-rule:evenodd;clip-rule:evenodd;fill:#00642C;" d="M608.927,259.882c23.583,0,42.702,19.121,42.702,42.713
			c0,2.923-0.297,5.795-0.863,8.56h-83.685c-0.562-2.766-0.858-5.638-0.858-8.56C566.224,279.003,585.339,259.882,608.927,259.882"
			/>
		<path style="fill-rule:evenodd;clip-rule:evenodd;fill:#D4D4D4;" d="M608.927,352.509c27.048,0,54.102-3.154,60.824-9.451
			c6.522-6.119,8.726-16.857,6.893-31.902V170.854c1.315-15.231-4.408-25.445-16.463-31.135v-6.796h-51.255v219.586H608.927z"/>
		<path style="fill-rule:evenodd;clip-rule:evenodd;fill:#B9B9B9;" d="M608.927,132.924h54.251c1.628,0,1.93-0.325,1.93-1.929
			v-11.93c0-1.207,0.018-1.45-1.377-1.779v-3.45c0-2.616-1.801-2.993-4.114-2.993h-50.689L608.927,132.924L608.927,132.924z"/>
		<rect x="608.927" y="170.854" style="fill-rule:evenodd;clip-rule:evenodd;fill:#EDEDEE;" width="67.718" height="140.301"/>
		<path style="fill-rule:evenodd;clip-rule:evenodd;fill:#D9AE8C;" d="M608.927,188.123h25.518c5.282,0,9.602,4.318,9.602,9.602
			c0,5.285-4.319,9.602-9.602,9.602h-25.518V188.123z"/>
		<path style="fill-rule:evenodd;clip-rule:evenodd;fill:#723D03;" d="M608.927,229.054h23.174c1.707,0,3.104,1.398,3.104,3.111
			v1.871c0,1.708-1.396,3.107-3.104,3.107h-23.174V229.054z"/>
		<path style="fill-rule:evenodd;clip-rule:evenodd;fill:#004417;" d="M608.927,259.882c23.583,0,42.702,19.121,42.702,42.713
			c0,2.923-0.297,5.795-0.863,8.56h-41.839L608.927,259.882L608.927,259.882z"/>
	</g>
	<g>
		<path style="fill-rule:evenodd;clip-rule:evenodd;fill:#19194A;" d="M1150.407,133.754h-50.855v6.748
			c-11.967,5.646-17.642,15.782-16.345,30.898v139.219c-1.811,14.925,0.373,25.582,6.85,31.651
			c13.332,12.515,107.372,12.515,120.708,0c6.475-6.069,8.661-16.727,6.843-31.651V171.4c1.303-15.116-4.374-25.252-16.338-30.898
			v-6.748H1150.407z"/>
		<path style="fill-rule:evenodd;clip-rule:evenodd;fill:#00004F;" d="M1150.407,112.326h-50.298c-2.302,0-4.082,0.373-4.082,2.962
			v3.431c-1.385,0.316-1.366,0.561-1.366,1.764v11.831c0,1.597,0.298,1.919,1.915,1.919h53.831h53.834
			c1.621,0,1.917-0.322,1.917-1.919v-11.831c0-1.202,0.021-1.447-1.366-1.764v-3.431c0-2.589-1.779-2.962-4.082-2.962H1150.407z"/>
		<rect x="1083.207" y="171.4" style="fill-rule:evenodd;clip-rule:evenodd;fill:#00004F;" width="134.4" height="139.219"/>
		<path style="fill-rule:evenodd;clip-rule:evenodd;fill:#BA0071;" d="M1125.084,188.534h50.649c5.241,0,9.525,4.289,9.525,9.525
			c0,5.239-4.284,9.527-9.525,9.527h-50.649c-5.24,0-9.524-4.288-9.524-9.527C1115.56,192.823,1119.844,188.534,1125.084,188.534"/>
		<path style="fill-rule:evenodd;clip-rule:evenodd;fill:#6D6B4D;" d="M1127.414,229.148h45.996c1.688,0,3.077,1.391,3.077,3.083
			v1.869c0,1.688-1.389,3.076-3.077,3.076h-45.996c-1.693,0-3.081-1.389-3.081-3.076v-1.869
			C1124.333,230.539,1125.721,229.148,1127.414,229.148"/>
		<path style="fill-rule:evenodd;clip-rule:evenodd;fill:#101030;" d="M1150.407,351.656c26.841,0,53.688-3.125,60.357-9.386
			c6.475-6.069,8.661-16.727,6.843-31.651V171.4c1.303-15.116-4.374-25.252-16.338-30.898v-6.748h-50.862V351.656z"/>
		<path style="fill-rule:evenodd;clip-rule:evenodd;fill:#000024;" d="M1150.407,134.233h53.834c1.621,0,1.917-0.322,1.917-1.919
			v-11.831c0-1.202,0.021-1.447-1.366-1.764v-3.431c0-2.589-1.779-2.962-4.082-2.962h-50.303V134.233z"/>
		<rect x="1150.407" y="171.4" style="fill-rule:evenodd;clip-rule:evenodd;fill:#000024;" width="67.2" height="139.219"/>
		<path style="fill-rule:evenodd;clip-rule:evenodd;fill:#850050;" d="M1150.407,188.534h25.326c5.241,0,9.525,4.289,9.525,9.525
			c0,5.239-4.284,9.527-9.525,9.527h-25.326V188.534z"/>
		<path style="fill-rule:evenodd;clip-rule:evenodd;fill:#474522;" d="M1150.407,229.148h23.003c1.688,0,3.077,1.391,3.077,3.083
			v1.869c0,1.688-1.389,3.076-3.077,3.076h-23.003V229.148z"/>
		<path style="fill-rule:evenodd;clip-rule:evenodd;fill:#D6D98B;" d="M1150.407,251.353c11.358,0,20.564,9.203,20.564,20.56
			c0,11.351-9.206,20.559-20.564,20.559c-11.353,0-20.558-9.208-20.558-20.559C1129.85,260.556,1139.055,251.353,1150.407,251.353"
			/>
		<path style="fill-rule:evenodd;clip-rule:evenodd;fill:#BFAE5A;" d="M1150.407,251.353c11.358,0,20.564,9.203,20.564,20.56
			c0,11.351-9.206,20.559-20.564,20.559V251.353z"/>
	</g>
	<g>
		<path style="fill-rule:evenodd;clip-rule:evenodd;fill:#A20E0F;" d="M697.838,240.78c-9.305,1.566-4.604,1.566-13.908,0
			c-39.204-6.661-52.462,29.671-48.206,55.804c4.1,25.149,16.685,47.067,41.765,53.944c9.177,2.52,16.228,2.636,25.449,0.349
			c25.975-6.448,38.932-28.698,43.099-54.293C750.299,270.451,737.052,234.119,697.838,240.78"/>
		<path style="fill-rule:evenodd;clip-rule:evenodd;fill:#900E07;" d="M697.838,240.78c-4.906,0.825-5.917,1.223-7.147,1.177
			v110.554c3.895,0.012,7.825-0.532,12.247-1.634c25.975-6.448,38.932-28.698,43.099-54.293
			C750.299,270.451,737.052,234.119,697.838,240.78"/>
		<path style="fill-rule:evenodd;clip-rule:evenodd;fill:#760D01;" d="M690.883,248.058c2.924,0,5.293,1.299,5.293,2.897
			c0,1.592-2.369,2.89-5.293,2.89c-2.921,0-5.29-1.298-5.29-2.89C685.593,249.357,687.962,248.058,690.883,248.058"/>
		<path style="fill:#4F0600;" d="M692.808,249.89c0,1.101-0.896,1.986-1.987,1.977c-1.094,0-1.984-0.895-1.976-1.983
			c0.047-9.732,1.425-18.939,5.416-27.104c4.032-8.239,10.671-15.357,21.205-20.808c0.965-0.507,2.165-0.123,2.666,0.854
			c0.502,0.966,0.122,2.172-0.853,2.663c-9.7,5.028-15.787,11.533-19.454,19.022C694.124,232.077,692.856,240.715,692.808,249.89"/>
		<path style="fill:#FFFFFF;" d="M652.952,317.979c-0.713-1.483-0.097-3.261,1.391-3.974c1.472-0.717,3.26-0.096,3.97,1.389
			c0.768,1.594,1.644,3.191,2.622,4.781c0.957,1.547,1.968,3.037,3.047,4.432c0.998,1.313,0.749,3.184-0.565,4.174
			c-1.302,1.002-3.168,0.751-4.167-0.556c-1.247-1.613-2.381-3.261-3.399-4.931C654.805,321.601,653.84,319.824,652.952,317.979
			 M663.431,255.604c1.4-0.863,3.231-0.429,4.095,0.963c0.863,1.398,0.426,3.235-0.973,4.097
			c-5.707,3.529-9.591,9.011-11.762,15.587c-2.391,7.248-2.729,15.813-1.152,24.624c0.276,1.622-0.811,3.171-2.439,3.452
			c-1.613,0.281-3.162-0.8-3.441-2.43c-1.736-9.742-1.345-19.312,1.365-27.519C651.731,266.532,656.434,259.933,663.431,255.604z"/>
		<path style="fill-rule:evenodd;clip-rule:evenodd;fill:#729118;" d="M656.97,197.337c-0.401,19.057,15.421,36.658,35.37,30.068
			L656.97,197.337z"/>
		<path style="fill-rule:evenodd;clip-rule:evenodd;fill:#4E6B14;" d="M656.97,197.337c18.748-3.462,38.675,9.329,35.37,30.068
			L656.97,197.337z"/>
	</g>
	<g>
		<g>
			<rect x="1436.165" y="391.723" style="fill-rule:evenodd;clip-rule:evenodd;fill:#9EB0BA;" width="63.836" height="20.277"/>
			<path style="fill-rule:evenodd;clip-rule:evenodd;fill:#D4E0E6;" d="M334.512,412c2.487-6.859,5.125-13.62,7.914-20.277h-24.123
				c-2.82,6.633-5.446,13.396-7.892,20.277H334.512z"/>
			<path style="fill-rule:evenodd;clip-rule:evenodd;fill:#9EB0BA;" d="M310.41,412c2.446-6.882,5.072-13.644,7.892-20.277h-61.563
				c-2.819,6.633-5.445,13.396-7.892,20.277H310.41z"/>
			<rect x="1436.165" y="391.723" style="fill-rule:evenodd;clip-rule:evenodd;fill:#7A93A1;" width="63.836" height="20.277"/>
			<path style="fill-rule:evenodd;clip-rule:evenodd;fill:#A1BBC7;" d="M334.527,412c2.485-6.857,5.11-13.623,7.898-20.277h-24.123
				c-2.815,6.624-5.408,13.396-7.839,20.277H334.527z"/>
			<path style="fill-rule:evenodd;clip-rule:evenodd;fill:#7A93A1;" d="M310.464,412c2.431-6.881,5.023-13.653,7.839-20.277H256.74
				c-2.816,6.624-5.408,13.396-7.838,20.277H310.464z"/>
			<path style="fill-rule:evenodd;clip-rule:evenodd;fill:#FFAC74;" d="M1500.001,352.512H250.586c-6.268,0-11.4,5.127-11.4,11.4
				v16.41c0,6.269,5.132,11.4,11.4,11.4h1249.415V352.512z"/>
			<path style="fill-rule:evenodd;clip-rule:evenodd;fill:#B06E43;" d="M138.861,352.512h111.725c-6.268,0-11.4,5.127-11.4,11.4
				v16.41c0,6.269,5.132,11.4,11.4,11.4H138.861c-6.269,0-11.397-5.131-11.397-11.4v-16.41
				C127.464,357.639,132.593,352.512,138.861,352.512"/>
			<path style="fill-rule:evenodd;clip-rule:evenodd;fill:#D6854F;" d="M1500.001,379.768H239.186v0.555
				c0,6.269,5.132,11.4,11.4,11.4h1249.415V379.768z"/>
			<path style="fill-rule:evenodd;clip-rule:evenodd;fill:#965226;" d="M239.186,380.322v-0.555H127.464v0.555
				c0,6.269,5.129,11.4,11.397,11.4h111.725C244.317,391.723,239.186,386.592,239.186,380.322z"/>
			<path style="fill-rule:evenodd;clip-rule:evenodd;fill:#FFD1B3;" d="M1500.001,352.512H250.586
				c-5.979,0-10.871,4.68-11.314,10.554h1260.729V352.512z"/>
			<path style="fill-rule:evenodd;clip-rule:evenodd;fill:#D98853;" d="M239.271,363.065c0.443-5.874,5.336-10.554,11.314-10.554
				H138.861c-5.981,0-10.867,4.68-11.312,10.554H239.271z"/>
		</g>
	</g>
	<path style="fill:#EDA228;" d="M662.909,62.017h27.397c2.063,0,3.736-1.673,3.736-3.735c0-2.064-1.674-3.736-3.736-3.736h-27.397
		c-2.063,0-3.735,1.673-3.735,3.736C659.174,60.344,660.847,62.017,662.909,62.017z"/>
	<path style="fill:#EDA228;" d="M470.286,132.041h27.397c2.063,0,3.736-1.674,3.736-3.736s-1.674-3.735-3.736-3.735h-27.397
		c-2.063,0-3.735,1.673-3.735,3.735S468.224,132.041,470.286,132.041z"/>
	<path style="fill:#FFD694;" d="M1128.711,60.175h27.396c2.063,0,3.736-1.674,3.736-3.736s-1.674-3.735-3.736-3.735h-27.396
		c-2.063,0-3.735,1.673-3.735,3.735S1126.648,60.175,1128.711,60.175z"/>
	<path style="fill:#EDA228;" d="M1303.607,181.795v-27.396c0-2.063-1.674-3.736-3.736-3.736s-3.735,1.674-3.735,3.736v27.396
		c0,2.063,1.673,3.735,3.735,3.735S1303.607,183.857,1303.607,181.795z"/>
	<path style="fill:#FFD694;" d="M368.845,132.889v-27.397c0-2.063-1.674-3.736-3.736-3.736s-3.735,1.674-3.735,3.736v27.397
		c0,2.063,1.673,3.735,3.735,3.735S368.845,134.951,368.845,132.889z"/>
	<path style="fill:#EDA228;" d="M275.994,141.567c-10.62,0-19.259,8.639-19.259,19.255c0,10.621,8.639,19.259,19.259,19.259
		c10.616,0,19.255-8.638,19.255-19.259C295.249,150.206,286.61,141.567,275.994,141.567z M275.994,170.034
		c-5.08,0-9.211-4.132-9.211-9.212c0-5.076,4.131-9.207,9.211-9.207c5.076,0,9.207,4.131,9.207,9.207
		C285.201,165.902,281.07,170.034,275.994,170.034z"/>
	<path style="fill:#FFD694;" d="M523.994,18.773c-7.185,0-13.03,5.845-13.03,13.029c0,7.186,5.845,13.031,13.03,13.031
		c7.184,0,13.028-5.846,13.028-13.031C537.023,24.618,531.178,18.773,523.994,18.773z M523.994,38.034
		c-3.436,0-6.232-2.795-6.232-6.231c0-3.436,2.796-6.23,6.232-6.23c3.435,0,6.231,2.795,6.231,6.23
		C530.225,35.239,527.429,38.034,523.994,38.034z"/>
	<path style="fill:#FFD694;" d="M969.994,13.241c-4.026,0-7.302,3.276-7.302,7.301c0,4.026,3.275,7.302,7.302,7.302
		c4.025,0,7.301-3.275,7.301-7.302C977.295,16.518,974.019,13.241,969.994,13.241z M969.994,24.034
		c-1.926,0-3.492-1.566-3.492-3.492c0-1.925,1.566-3.491,3.492-3.491c1.925,0,3.491,1.566,3.491,3.491
		C973.485,22.468,971.919,24.034,969.994,24.034z"/>
	<path style="fill:#EDA228;" d="M272.503,280.733c-4.026,0-7.302,3.275-7.302,7.301c0,4.027,3.275,7.302,7.302,7.302
		c4.025,0,7.301-3.274,7.301-7.302C279.804,284.009,276.528,280.733,272.503,280.733z M272.503,291.526
		c-1.926,0-3.492-1.566-3.492-3.492c0-1.925,1.566-3.491,3.492-3.491c1.925,0,3.491,1.566,3.491,3.491
		C275.994,289.96,274.428,291.526,272.503,291.526z"/>
	<path style="fill:#FFD694;" d="M1043.631,46.729c-7.338,0-13.308,5.969-13.308,13.306c0,7.338,5.97,13.308,13.308,13.308
		c7.337,0,13.307-5.97,13.307-13.308S1050.968,46.729,1043.631,46.729z M1043.631,66.398c-3.51,0-6.364-2.854-6.364-6.364
		c0-3.508,2.854-6.363,6.364-6.363c3.509,0,6.363,2.855,6.363,6.363C1049.994,63.544,1047.14,66.398,1043.631,66.398z"/>
	<path style="fill:#FFD694;" d="M1427.673,258.084c-7.338,0-13.308,5.969-13.308,13.306c0,7.339,5.97,13.308,13.308,13.308
		c7.337,0,13.307-5.969,13.307-13.308C1440.979,264.053,1435.01,258.084,1427.673,258.084z M1427.673,277.754
		c-3.51,0-6.364-2.854-6.364-6.364c0-3.508,2.854-6.363,6.364-6.363c3.509,0,6.363,2.855,6.363,6.363
		C1434.036,274.899,1431.182,277.754,1427.673,277.754z"/>
	<g>
		<path style="fill-rule:evenodd;clip-rule:evenodd;fill:#FCD000;" d="M1010.093,253.354c27.381,0,49.584,22.189,49.584,49.587
			c0,27.379-22.203,49.571-49.584,49.571c-27.378,0-49.574-22.192-49.574-49.571C960.519,275.543,982.715,253.354,1010.093,253.354"
			/>
		<path style="fill-rule:evenodd;clip-rule:evenodd;fill:#FDF8CF;" d="M1010.093,256.714c25.525,0,46.216,20.695,46.216,46.227
			c0,25.515-20.69,46.209-46.216,46.209c-25.52,0-46.213-20.694-46.213-46.209C963.88,277.409,984.572,256.714,1010.093,256.714"/>
		<path style="fill-rule:evenodd;clip-rule:evenodd;fill:#F7D000;" d="M1000.495,275.081l6.679,17.442
			c2.051,5.354,3.792,5.354,5.845,0l6.681-17.442C1025.477,259.986,994.719,259.986,1000.495,275.081"/>
		<path style="fill-rule:evenodd;clip-rule:evenodd;fill:#F7D000;" d="M984.868,287.706l16.3,9.112
			c5.012,2.788,6.356,1.67,4.503-3.75l-6.06-17.663C994.356,260.123,970.764,279.845,984.868,287.706"/>
		<path style="fill-rule:evenodd;clip-rule:evenodd;fill:#F7D000;" d="M1020.664,275.437l-6.106,17.643
			c-1.875,5.418-0.542,6.543,4.482,3.763l16.319-9.051C1049.496,279.965,1025.951,260.169,1020.664,275.437"/>
		<path style="fill-rule:evenodd;clip-rule:evenodd;fill:#F7D000;" d="M1035.914,288.759l-16.047,9.53
			c-4.927,2.923-4.629,4.651,0.987,5.76l18.322,3.632C1055.021,310.815,1049.807,280.499,1035.914,288.759"/>
		<path style="fill-rule:evenodd;clip-rule:evenodd;fill:#F7D000;" d="M1039.025,308.486l-18.441-2.906
			c-5.662-0.885-6.536,0.64-2.91,5.074l11.783,14.483C1039.657,337.663,1054.989,310.988,1039.025,308.486"/>
		<path style="fill-rule:evenodd;clip-rule:evenodd;fill:#F7D000;" d="M1028.705,325.771l-12.279-14.075
			c-3.763-4.309-5.407-3.71-5.492,2.014l-0.252,18.672C1010.437,348.537,1039.321,337.949,1028.705,325.771"/>
		<path style="fill-rule:evenodd;clip-rule:evenodd;fill:#F7D000;" d="M1009.744,332.394l-0.409-18.677
			c-0.118-5.723-1.778-6.31-5.507-1.964l-12.168,14.158C981.132,338.17,1010.093,348.537,1009.744,332.394"/>
		<path style="fill-rule:evenodd;clip-rule:evenodd;fill:#F7D000;" d="M980.984,307.394l18.341-3.44
			c5.633-1.07,5.95-2.79,1.052-5.766l-15.957-9.676C970.594,280.12,965.094,310.394,980.984,307.394"/>
		<path style="fill-rule:evenodd;clip-rule:evenodd;fill:#F7D000;" d="M990.783,325.171l11.76-14.495
			c3.609-4.452,2.732-5.97-2.933-5.064l-18.433,2.939C965.217,311.098,980.601,337.738,990.783,325.171"/>
	</g>
</g>
</svg>
