<?xml version="1.0" encoding="iso-8859-1"?>
<!-- Generator: Adobe Illustrator 23.0.1, SVG Export Plug-In . SVG Version: 6.00 Build 0)  -->
<svg version="1.1" id="Layer_1" xmlns="http://www.w3.org/2000/svg" xmlns:xlink="http://www.w3.org/1999/xlink" x="0px" y="0px"
	 viewBox="0 0 1500.001 412" style="enable-background:new 0 0 1500.001 412;" xml:space="preserve">
<g>
	<g>
		<path style="fill-rule:evenodd;clip-rule:evenodd;fill:#B9E8F0;" d="M439.578,104.069c68.608,0,124.216,55.605,124.216,124.215
			s-55.607,124.227-124.216,124.227S315.35,296.894,315.35,228.284S370.969,104.069,439.578,104.069"/>
		<g>
			<path style="fill:#FFFFFF;" d="M346.992,234.901c-3.651,0-6.617-2.969-6.617-6.617c0-39.343,23.281-75,59.301-90.84
				c3.348-1.469,7.24,0.047,8.709,3.383c1.467,3.348-0.049,7.242-3.385,8.707c-31.229,13.73-51.41,44.652-51.41,78.75
				C353.59,231.933,350.63,234.901,346.992,234.901z"/>
		</g>
	</g>
	<g>
		<path style="fill-rule:evenodd;clip-rule:evenodd;fill:#B9E8F0;" d="M1032.823,156.31c54.181,0,98.096,43.913,98.096,98.097
			c0,54.182-43.915,98.104-98.096,98.104c-54.184,0-98.107-43.923-98.107-98.104C934.716,200.223,978.64,156.31,1032.823,156.31"/>
		<g>
			<path style="fill:#FFFFFF;" d="M959.705,259.632c-2.885,0-5.227-2.345-5.227-5.226c0-31.071,18.386-59.23,46.832-71.739
				c2.643-1.161,5.717,0.036,6.877,2.673c1.159,2.643-0.038,5.717-2.673,6.876c-24.662,10.842-40.6,35.263-40.6,62.19
				C964.915,257.287,962.577,259.632,959.705,259.632z"/>
		</g>
	</g>
	<g>
		<path style="fill-rule:evenodd;clip-rule:evenodd;fill:#F8AF00;" d="M915.172,239.84c31.114,0,56.334,25.23,56.334,56.343
			c0,31.11-25.22,56.328-56.334,56.328c-31.111,0-56.332-25.218-56.332-56.328C858.84,265.069,884.061,239.84,915.172,239.84"/>
		<path style="fill:#FFFFFF;" d="M877.913,286.621c-0.477,1.913-2.415,3.069-4.339,2.597c-1.911-0.476-3.072-2.42-2.601-4.33
			c1.346-5.377,3.711-10.379,6.867-14.771c3.212-4.454,7.23-8.283,11.848-11.233c1.142-0.736,2.331-1.416,3.559-2.053
			c1.176-0.6,2.423-1.176,3.736-1.69c1.832-0.725,3.908,0.161,4.63,2c0.721,1.829-0.171,3.893-2.003,4.62
			c-1.019,0.413-2.049,0.889-3.099,1.427c-1.005,0.511-1.99,1.086-2.954,1.702c-3.89,2.481-7.259,5.68-9.93,9.388
			C881.001,277.927,879.032,282.101,877.913,286.621 M880.594,311.509c0.867,1.771,0.144,3.902-1.629,4.777
			c-1.76,0.869-3.906,0.153-4.78-1.623c-0.945-1.89-1.747-3.885-2.416-5.956c-0.65-2.03-1.164-4.128-1.51-6.263
			c-0.316-1.94,1.005-3.779,2.955-4.092c1.942-0.318,3.774,1.009,4.097,2.959c0.283,1.781,0.709,3.537,1.255,5.214
			C879.104,308.237,879.794,309.896,880.594,311.509z"/>
		<path style="fill-rule:evenodd;clip-rule:evenodd;fill:#F08700;" d="M924.312,240.58c26.768,4.381,47.194,27.597,47.194,55.603
			c0,31.11-25.22,56.328-56.334,56.328c-11.019,0-21.294-3.168-29.975-8.633c2.981,0.485,6.035,0.74,9.146,0.74
			c31.112,0,56.334-25.221,56.334-56.332C950.678,268.193,940.157,250.559,924.312,240.58"/>
		<path style="fill-rule:evenodd;clip-rule:evenodd;fill:#83AE1E;" d="M917.753,247.849c2.324,0,4.197,1.889,4.197,4.212
			c0,2.314-1.873,4.197-4.197,4.197c-2.316,0-4.195-1.883-4.195-4.197C913.558,249.737,915.437,247.849,917.753,247.849"/>
	</g>
	<g>
		<path style="fill-rule:evenodd;clip-rule:evenodd;fill:#FFECC5;" d="M1313.616,352.511
			c-19.135-68.688-21.127-128.519-3.802-178.373h38.738h38.746c17.33,49.854,15.341,109.686-3.792,178.373h-34.954H1313.616z"/>
		<path style="fill-rule:evenodd;clip-rule:evenodd;fill:#F4D8A6;" d="M1348.553,174.138h38.746
			c17.33,49.854,15.341,109.686-3.792,178.373h-34.954V174.138z"/>
		<path style="fill-rule:evenodd;clip-rule:evenodd;fill:#FAC647;" d="M1313.616,352.511
			c-15.235-54.662-19.601-103.702-12.016-146.58h93.917c7.58,42.878,3.223,91.918-12.011,146.58h-34.954H1313.616z"/>
		<path style="fill-rule:evenodd;clip-rule:evenodd;fill:#E5A81F;" d="M1348.553,205.931h46.965
			c7.58,42.878,3.223,91.918-12.011,146.58h-34.954V205.931z"/>
		<path style="fill-rule:evenodd;clip-rule:evenodd;fill:#E0A727;" d="M1313.616,352.511c-0.912-3.259-1.784-6.494-2.608-9.706
			h75.095c-0.823,3.212-1.688,6.447-2.596,9.706h-34.954H1313.616z"/>
		<path style="fill-rule:evenodd;clip-rule:evenodd;fill:#FFFFFF;" d="M1321.793,181.205c-7.613,40.812-6.264,70.74-2.551,96.254
			c2.502-37.88,6.359-70.648,12.124-96.254H1321.793z"/>
		<path style="fill-rule:evenodd;clip-rule:evenodd;fill:#FFDA88;" d="M1348.975,267.303c3.038,0,5.521,2.476,5.521,5.521
			c0,3.039-2.482,5.511-5.521,5.511c-3.051,0-5.527-2.472-5.527-5.511C1343.447,269.778,1345.924,267.303,1348.975,267.303"/>
		<path style="fill-rule:evenodd;clip-rule:evenodd;fill:#FFDA88;" d="M1373.383,239.26c3.045,0,5.52,2.47,5.52,5.528
			c0,3.04-2.475,5.518-5.52,5.518c-3.046,0-5.518-2.477-5.518-5.518C1367.865,241.729,1370.337,239.26,1373.383,239.26"/>
		<path style="fill-rule:evenodd;clip-rule:evenodd;fill:#FFDA88;" d="M1373.383,295.338c3.045,0,5.52,2.476,5.52,5.517
			c0,3.052-2.475,5.529-5.52,5.529c-3.046,0-5.518-2.478-5.518-5.529C1367.865,297.813,1370.337,295.338,1373.383,295.338"/>
		<path style="fill-rule:evenodd;clip-rule:evenodd;fill:#C98E17;" d="M1348.553,342.805h37.55
			c-0.823,3.212-1.688,6.447-2.596,9.706h-34.954L1348.553,342.805L1348.553,342.805z"/>
	</g>
	<g>
		<path style="fill-rule:evenodd;clip-rule:evenodd;fill:#262E3A;" d="M685.677,89.966h52.602v25.522H677.91V97.734
			C677.909,93.464,681.401,89.966,685.677,89.966"/>
		<path style="fill-rule:evenodd;clip-rule:evenodd;fill:#1E2530;" d="M790.878,89.966h-52.6v25.522h60.365V97.734
			C798.644,93.464,795.153,89.966,790.878,89.966"/>
		<path style="fill-rule:evenodd;clip-rule:evenodd;fill:#374251;" d="M675.597,115.488h62.682v7.705h-62.682
			c-2.117,0-3.85-1.734-3.85-3.854C671.747,117.22,673.479,115.488,675.597,115.488"/>
		<path style="fill-rule:evenodd;clip-rule:evenodd;fill:#1E2530;" d="M800.96,115.488h-62.682v7.705h62.682
			c2.127,0,3.842-1.734,3.842-3.854C804.802,117.22,803.087,115.488,800.96,115.488"/>
		<path style="fill-rule:evenodd;clip-rule:evenodd;fill:#4A5566;" d="M738.278,123.193h-60.369
			c0,19.029,2.875,17.845-12.811,29.501c-8.57,6.387-14.156,16.599-14.156,28.052v3.004h87.336V123.193z"/>
		<path style="fill-rule:evenodd;clip-rule:evenodd;fill:#303642;" d="M738.278,123.193h60.365c0,19.029-2.863,17.845,12.807,29.501
			c8.58,6.387,14.17,16.599,14.17,28.052v3.004h-87.342V123.193z"/>
		<rect x="650.942" y="183.75" style="fill-rule:evenodd;clip-rule:evenodd;fill:#262E3A;" width="87.336" height="138.187"/>
		<rect x="738.278" y="183.75" style="fill-rule:evenodd;clip-rule:evenodd;fill:#1E2530;" width="87.342" height="138.187"/>
		<path style="fill-rule:evenodd;clip-rule:evenodd;fill:#4A5566;" d="M650.942,321.937h87.336v30.574h-56.773
			C664.696,352.511,650.942,338.758,650.942,321.937z"/>
		<path style="fill-rule:evenodd;clip-rule:evenodd;fill:#303642;" d="M825.62,321.937h-87.342v30.574h56.775
			C811.864,352.511,825.62,338.758,825.62,321.937z"/>
		<path style="fill-rule:evenodd;clip-rule:evenodd;fill:#CE443A;" d="M738.278,269.841c-19.148,0-34.672-15.528-34.672-34.685
			c0-19.146,15.523-34.675,34.672-34.675V269.841z"/>
		<path style="fill-rule:evenodd;clip-rule:evenodd;fill:#BB322E;" d="M738.278,269.841c19.146,0,34.682-15.528,34.682-34.685
			c0-19.146-15.535-34.675-34.682-34.675V269.841z"/>
		<path style="fill-rule:evenodd;clip-rule:evenodd;fill:#FEEEE6;" d="M711.062,284.557h58.037c4.233,0,7.69,3.477,7.69,7.713l0,0
			c0,4.226-3.457,7.688-7.69,7.688h-58.037c-4.238,0-7.699-3.463-7.699-7.688l0,0C703.362,288.033,706.823,284.557,711.062,284.557"
			/>
		<path style="fill-rule:evenodd;clip-rule:evenodd;fill:#434E60;" d="M790.878,89.966h-52.6v3.11h58.803
			C795.667,91.193,793.407,89.966,790.878,89.966"/>
		<path style="fill-rule:evenodd;clip-rule:evenodd;fill:#576477;" d="M685.677,89.966h52.602v3.11h-58.811
			C680.898,91.193,683.148,89.966,685.677,89.966"/>
		<path style="fill-rule:evenodd;clip-rule:evenodd;fill:#5B697C;" d="M675.597,115.488h62.682v3.915h-66.531v-0.064
			C671.747,117.22,673.479,115.488,675.597,115.488"/>
		<path style="fill-rule:evenodd;clip-rule:evenodd;fill:#465666;" d="M800.96,115.488h-62.682v3.915h66.523v-0.064
			C804.802,117.22,803.087,115.488,800.96,115.488"/>
	</g>
	<g>
		<path style="fill-rule:evenodd;clip-rule:evenodd;fill:#E8D2B5;" d="M1088.89,268.269c-4.063,38.939-12.346,65.95-23.034,84.242
			c-19.55-78.153-17.578-208.045,0-288.038C1096.447,128.446,1097.551,185.296,1088.89,268.269"/>
		<path style="fill-rule:evenodd;clip-rule:evenodd;fill:#BA833D;" d="M1151.8,268.269c4.073,38.939,12.351,65.95,23.043,84.242
			c19.544-78.153,17.577-208.045,0-288.038C1144.24,128.446,1143.144,185.296,1151.8,268.269"/>
		<path style="fill-rule:evenodd;clip-rule:evenodd;fill:#DEBB8E;" d="M1065.855,64.473h54.493h54.494
			c-30.603,63.974-31.699,120.823-23.043,203.796c4.073,38.939,12.351,65.95,23.043,84.242h-54.494h-54.493
			c10.688-18.292,18.972-45.304,23.034-84.242C1097.551,185.296,1096.447,128.446,1065.855,64.473"/>
		<path style="fill-rule:evenodd;clip-rule:evenodd;fill:#E8D2B5;" d="M1120.349,24.652h-20.427c-4.902,0-8.905,4.01-8.905,8.904
			v20.098c0,1.832,1.258,3.394,2.957,3.851v2.861h-5.501c-2.285,0-4.275,0.15-4.275,3.031v1.075h36.151h36.152v-1.075
			c0-2.881-1.994-3.031-4.279-3.031h-5.5v-2.861c1.702-0.457,2.953-2.018,2.953-3.851V33.556c0-4.894-3.996-8.904-8.896-8.904
			H1120.349z"/>
		<path style="fill-rule:evenodd;clip-rule:evenodd;fill:#D1A469;" d="M1120.349,64.473h54.494
			c-30.603,63.974-31.699,120.823-23.043,203.796c4.073,38.939,12.351,65.95,23.043,84.242h-54.494V64.473z"/>
		<path style="fill-rule:evenodd;clip-rule:evenodd;fill:#DEBB8E;" d="M1120.349,64.473h36.152v-1.075
			c0-2.881-1.994-3.031-4.279-3.031h-5.5v-2.861c1.702-0.457,2.953-2.018,2.953-3.851V33.557c0-4.894-3.996-8.904-8.896-8.904
			h-20.43L1120.349,64.473L1120.349,64.473z"/>
		<path style="fill-rule:evenodd;clip-rule:evenodd;fill:#E27A44;" d="M1120.349,159.181c27.233,0,49.308,22.068,49.308,49.31
			c0,27.235-22.074,49.307-49.308,49.307s-49.313-22.072-49.313-49.307C1071.036,181.249,1093.115,159.181,1120.349,159.181"/>
		<path style="fill-rule:evenodd;clip-rule:evenodd;fill:#C75E0A;" d="M1120.349,159.181c27.233,0,49.308,22.068,49.308,49.31
			c0,27.235-22.074,49.307-49.308,49.307V159.181z"/>
		<path style="fill-rule:evenodd;clip-rule:evenodd;fill:#E2956C;" d="M1090.846,248.001c-12.026-8.988-19.81-23.339-19.81-39.511
			c0-17.011,8.612-32.011,21.72-40.876C1094.4,192.305,1093.424,218.522,1090.846,248.001"/>
		<path style="fill-rule:evenodd;clip-rule:evenodd;fill:#AB4F02;" d="M1147.941,167.614c13.1,8.865,21.715,23.865,21.715,40.876
			c0,16.172-7.783,30.522-19.805,39.511C1147.273,218.522,1146.291,192.305,1147.941,167.614"/>
	</g>
	<g>
		<path style="fill-rule:evenodd;clip-rule:evenodd;fill:#FCD000;" d="M257.143,298.213c5.306-4.177,5.101-3.191,7.76-8.982
			c4.15-9.015,9.515-15.841,15.826-20.92c13.282-10.689,32.924-13.66,50.074-11.385c25.065,3.339,27.85,12.103,43.148,27.226
			c11.742,11.614,11.742,28.799,0,40.414c-15.299,15.13-18.083,23.891-43.148,27.226c-17.15,2.283-36.792-0.695-50.074-11.379
			c-6.311-5.081-11.676-11.911-15.826-20.936c-2.659-5.783-2.259-3.906-7.551-8.078
			C251.981,307.167,251.777,302.459,257.143,298.213"/>
		<path style="fill:#FFFFFF;" d="M289.915,280.855c-1.17,1.098-3.009,1.037-4.104-0.139c-1.084-1.176-1.023-3.019,0.152-4.103
			c4.806-4.476,10.392-7.617,16.846-9.588c6.326-1.935,13.445-2.713,21.429-2.463c1.602,0.037,2.863,1.378,2.811,2.971
			c-0.046,1.608-1.373,2.867-2.975,2.833c-7.368-0.235-13.883,0.464-19.575,2.202C298.911,274.274,294.07,277.008,289.915,280.855
			 M279.08,296.627c-0.664,1.461-2.391,2.115-3.843,1.452c-1.471-0.653-2.112-2.374-1.457-3.833c0.611-1.375,1.287-2.74,2.022-4.123
			c0.717-1.338,1.444-2.602,2.2-3.794c0.855-1.354,2.639-1.755,3.999-0.905c1.352,0.852,1.761,2.635,0.912,3.996
			c-0.702,1.111-1.365,2.262-2.002,3.432C280.314,294.003,279.696,295.256,279.08,296.627z"/>
	</g>
	<g>
		<path style="fill-rule:evenodd;clip-rule:evenodd;fill:#749E3C;" d="M681.549,315.369c-73.748,49.521-170.826,49.521-244.562,0
			l122.28-176.118L681.549,315.369z"/>
		<path style="fill-rule:evenodd;clip-rule:evenodd;fill:#D0DEA1;" d="M677.845,310.021c-71.52,47.952-165.634,47.952-237.129,0
			L559.268,139.25L677.845,310.021z"/>
		<path style="fill-rule:evenodd;clip-rule:evenodd;fill:#D9132A;" d="M659.907,284.158c-60.754,40.465-140.488,40.465-201.236,0
			l100.597-144.907L659.907,284.158z"/>
		<path style="fill-rule:evenodd;clip-rule:evenodd;fill:#598223;" d="M681.549,315.369c-36.853,24.739-79.57,37.127-122.281,37.127
			V139.251L681.549,315.369z"/>
		<path style="fill-rule:evenodd;clip-rule:evenodd;fill:#AEC468;" d="M677.845,310.021c-35.754,23.96-77.171,35.944-118.577,35.944
			V139.25L677.845,310.021z"/>
		<path style="fill-rule:evenodd;clip-rule:evenodd;fill:#BD071D;" d="M659.907,284.158c-30.38,20.255-65.488,30.339-100.64,30.339
			V139.251L659.907,284.158z"/>
		<path style="fill-rule:evenodd;clip-rule:evenodd;fill:#371513;" d="M513.459,263.158c-9.949,0-6.649,12.047-2.25,17.608
			c2.082,2.605,2.428,2.561,4.478-0.042C520.109,275.162,523.331,263.158,513.459,263.158L513.459,263.158z"/>
		<path style="fill-rule:evenodd;clip-rule:evenodd;fill:#371513;" d="M593.849,243.334c-9.901,0-6.644,12.045-2.207,17.562
			c2.04,2.661,2.381,2.605,4.477,0C600.5,255.335,603.763,243.334,593.849,243.334L593.849,243.334z"/>
		<path style="fill-rule:evenodd;clip-rule:evenodd;fill:#371513;" d="M538.102,214.943c-9.911,0-6.651,11.999-2.212,17.56
			c2.044,2.609,2.387,2.609,4.469-0.044C544.76,226.887,548.005,214.943,538.102,214.943L538.102,214.943z"/>
	</g>
	<g>
		<g>
			<rect x="1436.165" y="391.722" style="fill-rule:evenodd;clip-rule:evenodd;fill:#9EB0BA;" width="63.836" height="20.277"/>
			<path style="fill-rule:evenodd;clip-rule:evenodd;fill:#D4E0E6;" d="M334.512,411.999c2.487-6.858,5.125-13.62,7.914-20.277
				h-24.123c-2.82,6.633-5.446,13.396-7.892,20.277H334.512z"/>
			<path style="fill-rule:evenodd;clip-rule:evenodd;fill:#9EB0BA;" d="M310.41,411.999c2.446-6.881,5.072-13.645,7.892-20.277
				h-61.563c-2.819,6.633-5.445,13.396-7.892,20.277H310.41z"/>
			<rect x="1436.165" y="391.722" style="fill-rule:evenodd;clip-rule:evenodd;fill:#7A93A1;" width="63.836" height="20.277"/>
			<path style="fill-rule:evenodd;clip-rule:evenodd;fill:#A1BBC7;" d="M334.527,411.999c2.485-6.858,5.11-13.623,7.898-20.277
				h-24.123c-2.815,6.624-5.408,13.396-7.839,20.277H334.527z"/>
			<path style="fill-rule:evenodd;clip-rule:evenodd;fill:#7A93A1;" d="M310.464,411.999c2.431-6.881,5.023-13.653,7.839-20.277
				H256.74c-2.816,6.624-5.408,13.396-7.838,20.277H310.464z"/>
			<path style="fill-rule:evenodd;clip-rule:evenodd;fill:#FFAC74;" d="M1500.001,352.511H250.586c-6.268,0-11.4,5.127-11.4,11.401
				v16.41c0,6.271,5.132,11.4,11.4,11.4h1249.415V352.511z"/>
			<path style="fill-rule:evenodd;clip-rule:evenodd;fill:#B06E43;" d="M138.861,352.511h111.725c-6.268,0-11.4,5.127-11.4,11.401
				v16.41c0,6.271,5.132,11.4,11.4,11.4H138.861c-6.269,0-11.397-5.13-11.397-11.4v-16.41
				C127.464,357.638,132.593,352.511,138.861,352.511"/>
			<path style="fill-rule:evenodd;clip-rule:evenodd;fill:#D6854F;" d="M1500.001,379.767H239.186v0.555
				c0,6.271,5.132,11.4,11.4,11.4h1249.415V379.767z"/>
			<path style="fill-rule:evenodd;clip-rule:evenodd;fill:#965226;" d="M239.186,380.321v-0.555H127.464v0.555
				c0,6.271,5.129,11.4,11.397,11.4h111.725C244.317,391.722,239.186,386.592,239.186,380.321z"/>
			<path style="fill-rule:evenodd;clip-rule:evenodd;fill:#FFD1B3;" d="M1500.001,352.511H250.586
				c-5.979,0-10.871,4.68-11.314,10.553h1260.729V352.511z"/>
			<path style="fill-rule:evenodd;clip-rule:evenodd;fill:#D98853;" d="M239.271,363.063c0.443-5.873,5.336-10.553,11.314-10.553
				H138.861c-5.981,0-10.867,4.68-11.312,10.553H239.271z"/>
		</g>
	</g>
	<g>
		<rect x="781.293" y="267.698" style="fill-rule:evenodd;clip-rule:evenodd;fill:#3C2C3F;" width="63.23" height="63.23"/>
		<rect x="996.981" y="267.698" style="fill-rule:evenodd;clip-rule:evenodd;fill:#3C2C3F;" width="63.229" height="63.23"/>
		<rect x="844.523" y="267.698" style="fill-rule:evenodd;clip-rule:evenodd;fill:#68506B;" width="19.629" height="63.23"/>
		<rect x="1060.21" y="267.698" style="fill-rule:evenodd;clip-rule:evenodd;fill:#68506B;" width="19.636" height="63.23"/>
		<rect x="781.293" y="246.108" style="fill-rule:evenodd;clip-rule:evenodd;fill:#6D5473;" width="63.23" height="21.59"/>
		<rect x="996.981" y="246.108" style="fill-rule:evenodd;clip-rule:evenodd;fill:#6D5473;" width="63.229" height="21.59"/>
		<polygon style="fill-rule:evenodd;clip-rule:evenodd;fill:#996B9E;" points="864.152,267.698 844.523,267.698 844.523,246.108 		
			"/>
		<polygon style="fill-rule:evenodd;clip-rule:evenodd;fill:#996B9E;" points="1079.846,267.698 1060.21,267.698 1060.21,246.108 		
			"/>
		<rect x="761.658" y="267.698" style="fill-rule:evenodd;clip-rule:evenodd;fill:#2F1E33;" width="19.635" height="63.23"/>
		<rect x="977.345" y="267.698" style="fill-rule:evenodd;clip-rule:evenodd;fill:#2F1E33;" width="19.636" height="63.23"/>
		<polygon style="fill-rule:evenodd;clip-rule:evenodd;fill:#4A2B52;" points="761.658,267.698 781.293,267.698 781.293,246.108 		
			"/>
		<polygon style="fill-rule:evenodd;clip-rule:evenodd;fill:#4A2B52;" points="977.345,267.698 996.981,267.698 996.981,246.108 		
			"/>
		<rect x="781.293" y="330.929" style="fill-rule:evenodd;clip-rule:evenodd;fill:#2F1E33;" width="63.23" height="21.582"/>
		<rect x="996.981" y="330.929" style="fill-rule:evenodd;clip-rule:evenodd;fill:#2F1E33;" width="63.229" height="21.582"/>
		<polygon style="fill-rule:evenodd;clip-rule:evenodd;fill:#553A59;" points="864.152,330.929 844.523,330.929 844.523,352.511 		
			"/>
		<polygon style="fill-rule:evenodd;clip-rule:evenodd;fill:#553A59;" points="1079.846,330.929 1060.21,330.929 1060.21,352.511 		
			"/>
		<polygon style="fill-rule:evenodd;clip-rule:evenodd;fill:#150D17;" points="761.658,330.929 781.293,330.929 781.293,352.511 		
			"/>
		<polygon style="fill-rule:evenodd;clip-rule:evenodd;fill:#150D17;" points="977.345,330.929 996.981,330.929 996.981,352.511 		
			"/>
		<rect x="864.152" y="286.831" style="fill-rule:evenodd;clip-rule:evenodd;fill:#A5B7B8;" width="14.518" height="24.965"/>
		<rect x="962.827" y="286.831" style="fill-rule:evenodd;clip-rule:evenodd;fill:#A5B7B8;" width="14.517" height="24.965"/>
		<polygon style="fill-rule:evenodd;clip-rule:evenodd;fill:#A5B7B8;" points="931.039,291.008 910.471,291.008 878.67,291.008 
			878.67,307.604 910.471,307.604 931.039,307.604 962.827,307.604 962.827,291.008 		"/>
		<polygon style="fill-rule:evenodd;clip-rule:evenodd;fill:#7A9799;" points="920.755,291.008 903.205,291.008 903.205,307.604 
			920.755,307.604 938.299,307.604 938.299,291.008 		"/>
		<rect x="864.152" y="299.347" style="fill-rule:evenodd;clip-rule:evenodd;fill:#8496A3;" width="14.518" height="12.449"/>
		<rect x="962.827" y="299.347" style="fill-rule:evenodd;clip-rule:evenodd;fill:#8496A3;" width="14.517" height="12.449"/>
		<rect x="970.383" y="286.831" style="fill-rule:evenodd;clip-rule:evenodd;fill:#81A1A3;" width="6.962" height="24.965"/>
		<rect x="970.383" y="299.347" style="fill-rule:evenodd;clip-rule:evenodd;fill:#506573;" width="6.962" height="12.449"/>
		<rect x="864.152" y="286.831" style="fill-rule:evenodd;clip-rule:evenodd;fill:#81A1A3;" width="6.962" height="24.965"/>
		<rect x="864.152" y="299.347" style="fill-rule:evenodd;clip-rule:evenodd;fill:#506573;" width="6.962" height="12.449"/>
		<rect x="878.67" y="299.347" style="fill-rule:evenodd;clip-rule:evenodd;fill:#8496A3;" width="84.157" height="8.258"/>
		<polygon style="fill-rule:evenodd;clip-rule:evenodd;fill:#7E9A9C;" points="882.764,291.008 881.156,291.008 878.67,291.008 
			878.67,307.604 881.156,307.604 882.764,307.604 885.244,307.604 885.244,291.008 		"/>
		<rect x="878.67" y="299.347" style="fill-rule:evenodd;clip-rule:evenodd;fill:#637682;" width="6.574" height="8.258"/>
		<polygon style="fill-rule:evenodd;clip-rule:evenodd;fill:#7E9A9C;" points="960.342,291.008 958.74,291.008 956.254,291.008 
			956.254,307.604 958.74,307.604 960.342,307.604 962.827,307.604 962.827,291.008 		"/>
		<rect x="956.254" y="299.347" style="fill-rule:evenodd;clip-rule:evenodd;fill:#637682;" width="6.573" height="8.258"/>
		<rect x="903.205" y="299.347" style="fill-rule:evenodd;clip-rule:evenodd;fill:#576875;" width="35.094" height="8.258"/>
	</g>
	<g>
		<path style="fill-rule:evenodd;clip-rule:evenodd;fill:#F8AF00;" d="M1215.638,236.783c31.959,0,57.868,25.903,57.868,57.863
			c0,31.961-25.909,57.864-57.868,57.864c-31.96,0-57.864-25.903-57.864-57.864C1157.773,262.687,1183.678,236.783,1215.638,236.783
			"/>
		<path style="fill-rule:evenodd;clip-rule:evenodd;fill:#FFF8D0;" d="M1215.638,244.889c27.474,0,49.753,22.27,49.753,49.758
			c0,27.482-22.279,49.752-49.753,49.752c-27.489,0-49.756-22.271-49.756-49.752
			C1165.882,267.158,1188.148,244.889,1215.638,244.889"/>
		<path style="fill-rule:evenodd;clip-rule:evenodd;fill:#F08400;" d="M1222.309,248.608c7.334,1.059,14.124,3.822,19.941,7.89
			c5.51,3.857,5.294,5.112,0.506,9.864l-19.746,19.592c-3.814,3.795-6.383,3.829-6.355-2.26l0.112-29.908
			C1216.786,249.358,1217.541,247.922,1222.309,248.608"/>
		<path style="fill-rule:evenodd;clip-rule:evenodd;fill:#F08400;" d="M1252.815,266.691c4.464,5.928,7.329,12.67,8.583,19.646
			c1.201,6.617,0.151,7.361-6.588,7.361l-27.814-0.02c-5.37-0.004-7.229-1.781-2.921-6.084l21.155-21.137
			C1248.363,263.324,1249.918,262.85,1252.815,266.691"/>
		<path style="fill-rule:evenodd;clip-rule:evenodd;fill:#F08400;" d="M1261.674,301.291c-1.05,7.341-3.815,14.131-7.873,19.938
			c-3.848,5.516-5.107,5.304-9.863,0.527l-19.613-19.739c-3.783-3.806-3.829-6.384,2.258-6.354l29.912,0.086
			C1260.925,295.761,1262.356,296.524,1261.674,301.291"/>
		<path style="fill-rule:evenodd;clip-rule:evenodd;fill:#F08400;" d="M1243.439,331.936c-5.938,4.44-12.7,7.28-19.68,8.519
			c-6.619,1.165-7.355,0.115-7.33-6.626l0.125-27.822c0.026-5.369,1.82-7.218,6.103-2.896l21.052,21.252
			C1246.827,327.511,1247.293,329.061,1243.439,331.936"/>
		<path style="fill-rule:evenodd;clip-rule:evenodd;fill:#F08400;" d="M1208.683,340.65c-7.328-1.103-14.098-3.917-19.89-8.016
			c-5.488-3.881-5.268-5.144-0.452-9.869l19.87-19.475c3.834-3.757,6.402-3.783,6.342,2.305l-0.296,29.9
			C1214.219,339.93,1213.444,341.359,1208.683,340.65"/>
		<path style="fill-rule:evenodd;clip-rule:evenodd;fill:#F08400;" d="M1178.417,322.546c-4.457-5.923-7.313-12.676-8.561-19.657
			c-1.194-6.618-0.145-7.354,6.599-7.344l27.822,0.053c5.364,0.01,7.223,1.795,2.909,6.093l-21.192,21.104
			C1182.851,325.928,1181.301,326.397,1178.417,322.546"/>
		<path style="fill-rule:evenodd;clip-rule:evenodd;fill:#F08400;" d="M1169.572,288.15c1.024-7.342,3.77-14.136,7.815-19.975
			c3.827-5.526,5.087-5.301,9.854-0.539l19.675,19.672c3.794,3.793,3.848,6.367-2.239,6.367h-29.909
			C1170.341,293.676,1168.903,292.915,1169.572,288.15"/>
		<path style="fill-rule:evenodd;clip-rule:evenodd;fill:#F08400;" d="M1187.704,257.45c5.929-4.462,12.679-7.322,19.652-8.575
			c6.619-1.193,7.361-0.156,7.354,6.591l-0.033,27.829c-0.007,5.363-1.799,7.215-6.095,2.91l-21.122-21.18
			C1184.334,261.889,1183.855,260.349,1187.704,257.45"/>
	</g>
	<path style="fill:#65D0DB;" d="M915.402,98.229h27.397c2.063,0,3.736-1.673,3.736-3.735c0-2.063-1.674-3.736-3.736-3.736h-27.397
		c-2.063,0-3.735,1.673-3.735,3.736S913.34,98.229,915.402,98.229z"/>
	<path style="fill:#65D0DB;" d="M374.779,60.254h27.396c2.063,0,3.736-1.674,3.736-3.736s-1.674-3.735-3.736-3.735h-27.396
		c-2.063,0-3.735,1.673-3.735,3.735S372.717,60.254,374.779,60.254z"/>
	<path style="fill:#AEEDF4;" d="M1365.204,28.388h27.396c2.063,0,3.736-1.674,3.736-3.736s-1.674-3.735-3.736-3.735h-27.396
		c-2.063,0-3.735,1.673-3.735,3.735S1363.142,28.388,1365.204,28.388z"/>
	<path style="fill:#65D0DB;" d="M1250.101,170.008v-27.396c0-2.063-1.674-3.736-3.736-3.736s-3.735,1.674-3.735,3.736v27.396
		c0,2.063,1.673,3.735,3.735,3.735S1250.101,172.07,1250.101,170.008z"/>
	<path style="fill:#AEEDF4;" d="M287.338,133.102v-27.396c0-2.063-1.674-3.736-3.736-3.736s-3.735,1.674-3.735,3.736v27.396
		c0,2.063,1.673,3.735,3.735,3.735S287.338,135.164,287.338,133.102z"/>
	<path style="fill:#65D0DB;" d="M215.815,161.948c-10.62,0-19.259,8.639-19.259,19.255c0,10.621,8.639,19.259,19.259,19.259
		c10.616,0,19.255-8.638,19.255-19.259C235.07,170.587,226.432,161.948,215.815,161.948z M215.815,190.415
		c-5.08,0-9.211-4.132-9.211-9.212c0-5.076,4.131-9.207,9.211-9.207c5.076,0,9.207,4.131,9.207,9.207
		C225.022,186.283,220.892,190.415,215.815,190.415z"/>
	<path style="fill:#AEEDF4;" d="M569.302,52.903c-7.186,0-13.03,5.845-13.03,13.029c0,7.185,5.845,13.031,13.03,13.031
		c7.184,0,13.028-5.846,13.028-13.031C582.33,58.748,576.485,52.903,569.302,52.903z M569.302,72.164
		c-3.437,0-6.233-2.795-6.233-6.231c0-3.436,2.796-6.231,6.233-6.231c3.435,0,6.23,2.795,6.23,6.231
		C575.532,69.369,572.736,72.164,569.302,72.164z"/>
	<path style="fill:#AEEDF4;" d="M1003.519,17.351c-4.026,0-7.302,3.276-7.302,7.301c0,4.026,3.275,7.302,7.302,7.302
		c4.025,0,7.301-3.275,7.301-7.302C1010.82,20.627,1007.545,17.351,1003.519,17.351z M1003.519,28.144
		c-1.926,0-3.492-1.566-3.492-3.492c0-1.925,1.567-3.491,3.492-3.491s3.491,1.566,3.491,3.491
		C1007.011,26.577,1005.444,28.144,1003.519,28.144z"/>
	<path style="fill:#65D0DB;" d="M164.238,281.276c-4.026,0-7.302,3.275-7.302,7.301c0,4.027,3.275,7.302,7.302,7.302
		c4.025,0,7.301-3.274,7.301-7.302C171.539,284.552,168.264,281.276,164.238,281.276z M164.238,292.069
		c-1.926,0-3.492-1.566-3.492-3.492c0-1.925,1.566-3.491,3.492-3.491c1.925,0,3.491,1.566,3.491,3.491
		C167.729,290.503,166.163,292.069,164.238,292.069z"/>
	<path style="fill:#AEEDF4;" d="M898.487,177.305c-7.338,0-13.308,5.969-13.308,13.306c0,7.338,5.97,13.308,13.308,13.308
		c7.337,0,13.307-5.97,13.307-13.308C911.794,183.274,905.824,177.305,898.487,177.305z M898.487,196.975
		c-3.51,0-6.364-2.854-6.364-6.364c0-3.508,2.854-6.363,6.364-6.363c3.509,0,6.363,2.855,6.363,6.363
		C904.851,194.12,901.996,196.975,898.487,196.975z"/>
	<path style="fill:#AEEDF4;" d="M1436.166,294.297c-7.338,0-13.308,5.969-13.308,13.306c0,7.339,5.97,13.308,13.308,13.308
		c7.337,0,13.307-5.969,13.307-13.308C1449.473,300.266,1443.503,294.297,1436.166,294.297z M1436.166,313.967
		c-3.51,0-6.364-2.854-6.364-6.364c0-3.508,2.854-6.363,6.364-6.363c3.509,0,6.363,2.856,6.363,6.363
		C1442.529,311.112,1439.675,313.967,1436.166,313.967z"/>
</g>
</svg>
