<?xml version="1.0" encoding="iso-8859-1"?>
<!-- Generator: Adobe Illustrator 23.0.1, SVG Export Plug-In . SVG Version: 6.00 Build 0)  -->
<svg version="1.1" id="Layer_1" xmlns="http://www.w3.org/2000/svg" xmlns:xlink="http://www.w3.org/1999/xlink" x="0px" y="0px"
	 viewBox="0 0 1600.799 1200.603" style="enable-background:new 0 0 1600.799 1200.603;" xml:space="preserve">
<rect x="202.087" y="369.642" style="fill-rule:evenodd;clip-rule:evenodd;fill:#DEDEDD;" width="27.428" height="633.97"/>
<rect x="189.512" y="362.776" style="fill-rule:evenodd;clip-rule:evenodd;fill:#E6E7E8;" width="52.57" height="6.863"/>
<rect x="222.66" y="369.642" style="fill-rule:evenodd;clip-rule:evenodd;fill:#BBBDBF;" width="6.855" height="633.97"/>
<g>
	<rect x="839.339" y="285.848" style="fill-rule:evenodd;clip-rule:evenodd;fill:#231F20;" width="6.342" height="305.803"/>
	<rect x="850.747" y="285.848" style="fill-rule:evenodd;clip-rule:evenodd;fill:#231F20;" width="6.342" height="305.803"/>
</g>
<g>
	<path style="fill-rule:evenodd;clip-rule:evenodd;fill:#4D4948;" d="M266.637,563.985L266.637,563.985
		c-7.552,0-13.73,6.179-13.73,13.73v104.336c0,7.552,6.178,13.727,13.73,13.727l0,0c7.55,0,13.728-6.176,13.728-13.727V577.715
		C280.365,570.164,274.187,563.985,266.637,563.985z"/>
	<path style="fill-rule:evenodd;clip-rule:evenodd;fill:#231F20;" d="M266.637,563.985c-7.552,0-13.73,6.179-13.73,13.73v104.336
		c0,7.552,6.178,13.727,13.73,13.727V563.985z"/>
	<path style="fill-rule:evenodd;clip-rule:evenodd;fill:#4D4948;" d="M291.699,575.475L291.699,575.475
		c-6.234,0-11.334,5.1-11.334,11.335v86.146c0,6.235,5.1,11.336,11.334,11.336l0,0c6.237,0,11.337-5.1,11.337-11.336V586.81
		C303.036,580.575,297.936,575.475,291.699,575.475z"/>
	<path style="fill-rule:evenodd;clip-rule:evenodd;fill:#231F20;" d="M291.699,575.475c-6.234,0-11.334,5.1-11.334,11.335v86.146
		c0,6.235,5.1,11.336,11.334,11.336V575.475z"/>
	<rect x="178.684" y="617.939" style="fill-rule:evenodd;clip-rule:evenodd;fill:#E6E7E8;" width="74.224" height="23.888"/>
	<rect x="178.684" y="634.001" style="fill-rule:evenodd;clip-rule:evenodd;fill:#D0D2D3;" width="74.224" height="7.826"/>
	<rect x="310.65" y="623.244" style="fill-rule:evenodd;clip-rule:evenodd;fill:#E6E7E8;" width="7.486" height="13.278"/>
	<rect x="310.65" y="632.173" style="fill-rule:evenodd;clip-rule:evenodd;fill:#D0D2D3;" width="7.486" height="4.35"/>
	<path style="fill-rule:evenodd;clip-rule:evenodd;fill:#BBBDBF;" d="M304.877,612.609h3.931c1.013,0,1.842,0.829,1.842,1.842
		v30.059c0,1.014-0.829,1.843-1.842,1.843h-3.931c-1.013,0-1.84-0.829-1.84-1.843v-30.059
		C303.037,613.438,303.864,612.609,304.877,612.609z"/>
	<path style="fill-rule:evenodd;clip-rule:evenodd;fill:#D0D2D3;" d="M304.877,612.609h3.931c0.999,0,1.814,0.804,1.842,1.792v0.05
		v19.835v0.047c-0.028,0.99-0.843,1.794-1.842,1.794h-3.931c-0.997,0-1.814-0.804-1.84-1.794v-0.047v-19.835v-0.05
		C303.064,613.413,303.88,612.609,304.877,612.609z"/>
	<path style="fill-rule:evenodd;clip-rule:evenodd;fill:#4D4948;" d="M164.956,563.985L164.956,563.985
		c7.55,0,13.728,6.179,13.728,13.73v104.336c0,7.552-6.178,13.727-13.728,13.727l0,0c-7.552,0-13.73-6.176-13.73-13.727V577.715
		C151.226,570.164,157.404,563.985,164.956,563.985z"/>
	<path style="fill-rule:evenodd;clip-rule:evenodd;fill:#231F20;" d="M164.956,563.985c7.55,0,13.728,6.179,13.728,13.73v104.336
		c0,7.552-6.178,13.727-13.728,13.727V563.985z"/>
	<path style="fill-rule:evenodd;clip-rule:evenodd;fill:#838281;" d="M139.892,575.475L139.892,575.475
		c6.234,0,11.333,5.1,11.333,11.335v86.146c0,6.235-5.1,11.336-11.333,11.336l0,0c-6.236,0-11.336-5.1-11.336-11.336V586.81
		C128.556,580.575,133.656,575.475,139.892,575.475z"/>
	<path style="fill-rule:evenodd;clip-rule:evenodd;fill:#231F20;" d="M139.892,575.475c6.234,0,11.333,5.1,11.333,11.335v86.146
		c0,6.235-5.1,11.336-11.333,11.336V575.475z"/>
	<rect x="113.459" y="623.244" style="fill-rule:evenodd;clip-rule:evenodd;fill:#E6E7E8;" width="7.486" height="13.278"/>
	<rect x="113.459" y="632.173" style="fill-rule:evenodd;clip-rule:evenodd;fill:#D0D2D3;" width="7.486" height="4.35"/>
	<path style="fill-rule:evenodd;clip-rule:evenodd;fill:#BBBDBF;" d="M126.716,612.609h-3.931c-1.013,0-1.842,0.829-1.842,1.842
		v30.059c0,1.014,0.829,1.843,1.842,1.843h3.931c1.013,0,1.84-0.829,1.84-1.843v-30.059
		C128.556,613.438,127.729,612.609,126.716,612.609z"/>
	<path style="fill-rule:evenodd;clip-rule:evenodd;fill:#D0D2D3;" d="M126.716,612.609h-3.931c-0.999,0-1.814,0.804-1.842,1.792
		v0.05v19.835v0.047c0.028,0.99,0.843,1.794,1.842,1.794h3.931c0.997,0,1.814-0.804,1.84-1.794v-0.047v-19.835v-0.05
		C128.53,613.413,127.713,612.609,126.716,612.609z"/>
</g>
<g>
	<path style="fill-rule:evenodd;clip-rule:evenodd;fill:#231F20;" d="M1091.584,260.656h139.488
		c21.41,0,38.927,17.517,38.927,38.927v476.854c0,21.411-17.517,38.927-38.927,38.927h-139.488
		c-21.41,0-38.928-17.516-38.928-38.927V299.582C1052.656,278.172,1070.174,260.656,1091.584,260.656z"/>
	<path style="fill-rule:evenodd;clip-rule:evenodd;fill:#383432;" d="M1091.584,260.656h59.03c21.411,0,38.928,17.517,38.928,38.927
		v476.854c0,21.411-17.517,38.927-38.928,38.927h-59.03c-21.41,0-38.928-17.516-38.928-38.927V299.582
		C1052.656,278.172,1070.174,260.656,1091.584,260.656z"/>
	<rect x="1047.154" y="280.775" style="fill-rule:evenodd;clip-rule:evenodd;fill:#231F20;" width="227.907" height="33.245"/>
	<rect x="1047.154" y="309.614" style="fill-rule:evenodd;clip-rule:evenodd;fill:#6D6E70;" width="227.907" height="4.406"/>
	<rect x="1047.154" y="280.775" style="fill-rule:evenodd;clip-rule:evenodd;fill:#6D6E70;" width="227.907" height="4.406"/>
	<g>
		<path style="fill-rule:evenodd;clip-rule:evenodd;fill:#D0D2D3;" d="M1075.191,302.204c2.648,0,4.808-2.158,4.808-4.806
			c0-2.648-2.159-4.807-4.808-4.807c-2.647,0-4.806,2.159-4.806,4.807C1070.386,300.046,1072.544,302.204,1075.191,302.204z"/>
		<path style="fill-rule:evenodd;clip-rule:evenodd;fill:#D0D2D3;" d="M1132.469,302.204c2.648,0,4.807-2.158,4.807-4.806
			c0-2.648-2.158-4.807-4.807-4.807c-2.647,0-4.806,2.159-4.806,4.807C1127.663,300.046,1129.821,302.204,1132.469,302.204z"/>
		<path style="fill-rule:evenodd;clip-rule:evenodd;fill:#D0D2D3;" d="M1189.746,302.204c2.647,0,4.807-2.158,4.807-4.806
			c0-2.648-2.159-4.807-4.807-4.807s-4.806,2.159-4.806,4.807C1184.94,300.046,1187.099,302.204,1189.746,302.204z"/>
		<path style="fill-rule:evenodd;clip-rule:evenodd;fill:#D0D2D3;" d="M1247.023,302.204c2.647,0,4.807-2.158,4.807-4.806
			c0-2.648-2.159-4.807-4.807-4.807s-4.807,2.159-4.807,4.807C1242.217,300.046,1244.376,302.204,1247.023,302.204z"/>
	</g>
	<path style="fill-rule:evenodd;clip-rule:evenodd;fill:#E6E7E8;" d="M1047.154,280.775h8.411v-24.081
		c0-2.315-1.891-4.205-4.205-4.205l0,0c-2.315,0-4.206,1.89-4.206,4.205V280.775z"/>
	<path style="fill-rule:evenodd;clip-rule:evenodd;fill:#E6E7E8;" d="M1266.65,280.775h8.411v-24.081
		c0-2.315-1.891-4.205-4.206-4.205l0,0c-2.314,0-4.205,1.89-4.205,4.205V280.775z"/>
	<g>
		<g>
			<path style="fill-rule:evenodd;clip-rule:evenodd;fill:#E6E7E8;" d="M1204.56,188.768l-0.792,0.792
				c-0.858,0.859-2.266,0.859-3.123,0.003l-17.754-17.754c-0.859-0.859-0.856-2.266,0-3.125l0.792-0.792
				c0.859-0.857,2.264-0.859,3.123,0l17.754,17.754C1205.419,186.504,1205.419,187.908,1204.56,188.768z"/>
			<path style="fill:#E6E7E8;" d="M1191.926,174.362l-2.562,2.564c-1.432,1.432-3.323,2.148-5.212,2.149h-0.012
				c-1.889-0.001-3.778-0.717-5.211-2.149l-11.146-11.147c-1.433-1.43-2.149-3.324-2.152-5.212v-0.012
				c0.003-1.888,0.719-3.777,2.152-5.212l2.562-2.562c1.433-1.432,3.323-2.149,5.212-2.151h0.012
				c1.889,0.003,3.779,0.72,5.212,2.151l11.145,11.146c1.436,1.435,2.149,3.323,2.152,5.212v0.012
				C1194.075,171.042,1193.361,172.931,1191.926,174.362L1191.926,174.362z M1186.493,174.053l2.562-2.562
				c0.644-0.643,0.97-1.493,0.971-2.34v-0.012c-0.001-0.845-0.327-1.696-0.971-2.338l-11.147-11.145
				c-0.641-0.643-1.49-0.969-2.338-0.974h-0.012c-0.848,0.005-1.695,0.329-2.34,0.974l-2.563,2.561
				c-0.643,0.644-0.968,1.493-0.971,2.338v0.012c0.003,0.847,0.328,1.697,0.971,2.34l11.147,11.146
				c0.644,0.645,1.49,0.969,2.338,0.974h0.012C1185,175.021,1185.849,174.698,1186.493,174.053z"/>
			<path style="fill:#E6E7E8;" d="M1220.388,202.824l-2.563,2.561c-1.433,1.432-3.321,2.15-5.212,2.151h-0.012
				c-1.889-0.001-3.777-0.72-5.212-2.151l-11.146-11.145c-1.432-1.433-2.149-3.323-2.151-5.212v-0.012
				c0.002-1.888,0.72-3.779,2.151-5.211l2.563-2.564c1.434-1.433,3.322-2.148,5.211-2.15h0.012c1.889,0.002,3.782,0.72,5.212,2.15
				l11.147,11.147c1.433,1.432,2.147,3.323,2.149,5.211v0.012C1222.535,199.501,1221.82,201.392,1220.388,202.824L1220.388,202.824z
				 M1214.952,202.514l2.563-2.564c0.645-0.642,0.969-1.493,0.973-2.338V197.6c-0.004-0.848-0.328-1.695-0.973-2.34l-11.146-11.144
				c-0.643-0.644-1.493-0.97-2.341-0.974h-0.012c-0.845,0.004-1.695,0.33-2.338,0.974l-2.562,2.561
				c-0.645,0.642-0.969,1.493-0.974,2.339v0.012c0.005,0.846,0.33,1.695,0.974,2.338l11.145,11.147
				c0.644,0.643,1.493,0.966,2.339,0.971h0.012C1213.46,203.48,1214.31,203.157,1214.952,202.514z"/>
			<path style="fill-rule:evenodd;clip-rule:evenodd;fill:#E6E7E8;" d="M1176.184,160.393l-0.792,0.792
				c-0.859,0.859-2.266,0.859-3.122,0.003l-17.754-17.755c-0.859-0.859-0.857-2.266,0-3.125l0.792-0.792
				c0.859-0.857,2.263-0.859,3.122,0l17.754,17.755C1177.043,158.129,1177.043,159.533,1176.184,160.393z"/>
			<path style="fill-rule:evenodd;clip-rule:evenodd;fill:#E6E7E8;" d="M1262.111,246.318l-0.792,0.792
				c-0.859,0.858-2.268,0.858-3.125,0.001l-17.754-17.754c-0.857-0.859-0.857-2.266,0.002-3.125l0.792-0.79
				c0.856-0.859,2.264-0.862,3.122,0l17.755,17.752C1262.969,244.054,1262.971,245.458,1262.111,246.318z"/>
			<path style="fill:#E6E7E8;" d="M1249.479,231.914l-2.564,2.563c-1.432,1.432-3.32,2.149-5.212,2.151h-0.009
				c-1.892-0.003-3.779-0.72-5.214-2.151l-11.146-11.146c-1.433-1.432-2.149-3.323-2.151-5.212v-0.012
				c0.002-1.889,0.719-3.78,2.151-5.212l2.562-2.564c1.435-1.432,3.322-2.148,5.211-2.149h0.012
				c1.889,0.002,3.782,0.719,5.212,2.149l11.148,11.147c1.432,1.433,2.146,3.323,2.148,5.212v0.012
				C1251.625,228.591,1250.91,230.482,1249.479,231.914L1249.479,231.914z M1244.043,231.604l2.562-2.564
				c0.645-0.643,0.969-1.493,0.974-2.337v-0.012c-0.005-0.847-0.329-1.695-0.974-2.34l-11.146-11.145
				c-0.643-0.643-1.493-0.969-2.341-0.971h-0.012c-0.845,0.003-1.694,0.329-2.338,0.971l-2.561,2.561
				c-0.646,0.643-0.969,1.493-0.975,2.34v0.012c0.006,0.845,0.332,1.696,0.975,2.338l11.145,11.147
				c0.643,0.643,1.493,0.969,2.341,0.971h0.009C1242.55,232.574,1243.399,232.247,1244.043,231.604z"/>
			<path style="fill:#E6E7E8;" d="M1277.938,260.374l-2.562,2.561c-1.432,1.434-3.323,2.149-5.212,2.151h-0.012
				c-1.889-0.003-3.779-0.717-5.212-2.151l-11.147-11.145c-1.43-1.432-2.146-3.323-2.149-5.212v-0.012
				c0.003-1.888,0.717-3.78,2.149-5.212l2.563-2.562c1.433-1.432,3.323-2.149,5.212-2.151h0.013
				c1.888,0.003,3.778,0.719,5.211,2.151l11.146,11.146c1.432,1.432,2.149,3.323,2.151,5.212v0.011
				C1280.087,257.051,1279.369,258.941,1277.938,260.374L1277.938,260.374z M1272.502,260.064l2.564-2.561
				c0.642-0.646,0.968-1.493,0.971-2.341v-0.011c-0.003-0.845-0.329-1.696-0.971-2.338l-11.147-11.148
				c-0.644-0.642-1.493-0.968-2.338-0.971h-0.013c-0.847,0.002-1.697,0.329-2.34,0.971l-2.562,2.564
				c-0.643,0.643-0.969,1.49-0.974,2.338v0.012c0.005,0.848,0.331,1.698,0.974,2.341l11.146,11.145
				c0.645,0.642,1.492,0.968,2.34,0.971h0.012C1271.01,261.033,1271.859,260.707,1272.502,260.064z"/>
			<path style="fill-rule:evenodd;clip-rule:evenodd;fill:#E6E7E8;" d="M1233.736,217.944l-0.792,0.792
				c-0.859,0.859-2.269,0.857-3.125,0l-17.755-17.754c-0.856-0.857-0.856-2.266,0.003-3.123l0.791-0.792
				c0.857-0.859,2.264-0.859,3.123,0l17.755,17.753C1234.593,215.678,1234.596,217.085,1233.736,217.944z"/>
		</g>
		<g>
			<path style="fill-rule:evenodd;clip-rule:evenodd;fill:#E6E7E8;" d="M1117.658,188.768l0.792,0.792
				c0.859,0.859,2.266,0.859,3.123,0.003l17.754-17.754c0.859-0.859,0.856-2.266,0-3.125l-0.791-0.792
				c-0.859-0.857-2.265-0.859-3.124,0l-17.754,17.754C1116.8,186.504,1116.8,187.908,1117.658,188.768z"/>
			<path style="fill:#E6E7E8;" d="M1130.292,174.362l2.562,2.564c1.432,1.432,3.323,2.148,5.212,2.149h0.012
				c1.889-0.001,3.779-0.717,5.211-2.149l11.146-11.147c1.433-1.43,2.149-3.324,2.152-5.212v-0.012
				c-0.003-1.888-0.718-3.777-2.152-5.212l-2.562-2.562c-1.433-1.432-3.323-2.149-5.211-2.151h-0.013
				c-1.888,0.003-3.779,0.72-5.212,2.151l-11.145,11.146c-1.435,1.435-2.15,3.323-2.151,5.212v0.012
				C1128.142,171.042,1128.857,172.931,1130.292,174.362L1130.292,174.362z M1135.725,174.053l-2.562-2.562
				c-0.643-0.643-0.969-1.493-0.971-2.34v-0.012c0.002-0.845,0.328-1.696,0.971-2.338l11.147-11.145
				c0.641-0.643,1.491-0.969,2.338-0.974h0.013c0.847,0.005,1.694,0.329,2.34,0.974l2.562,2.561
				c0.643,0.644,0.969,1.493,0.972,2.338v0.012c-0.003,0.847-0.329,1.697-0.972,2.34l-11.147,11.146
				c-0.643,0.645-1.49,0.969-2.338,0.974h-0.012C1137.218,175.021,1136.37,174.698,1135.725,174.053z"/>
			<path style="fill:#E6E7E8;" d="M1101.83,202.824l2.564,2.561c1.432,1.432,3.32,2.15,5.212,2.151h0.011
				c1.889-0.001,3.778-0.72,5.212-2.151l11.145-11.145c1.434-1.433,2.15-3.323,2.152-5.212v-0.012
				c-0.002-1.888-0.719-3.779-2.152-5.211l-2.561-2.564c-1.435-1.433-3.323-2.148-5.212-2.15h-0.012
				c-1.889,0.002-3.781,0.72-5.212,2.15l-11.147,11.147c-1.432,1.432-2.147,3.323-2.149,5.211v0.012
				C1099.683,199.501,1100.398,201.392,1101.83,202.824L1101.83,202.824z M1107.266,202.514l-2.562-2.564
				c-0.645-0.642-0.969-1.493-0.974-2.338V197.6c0.005-0.848,0.329-1.695,0.974-2.34l11.145-11.144
				c0.644-0.644,1.493-0.97,2.341-0.974h0.012c0.845,0.004,1.695,0.33,2.338,0.974l2.562,2.561c0.646,0.642,0.969,1.493,0.974,2.339
				v0.012c-0.005,0.846-0.331,1.695-0.974,2.338l-11.145,11.147c-0.643,0.643-1.493,0.966-2.339,0.971h-0.011
				C1108.759,203.48,1107.908,203.157,1107.266,202.514z"/>
			<path style="fill-rule:evenodd;clip-rule:evenodd;fill:#E6E7E8;" d="M1146.034,160.393l0.792,0.792
				c0.859,0.859,2.266,0.859,3.122,0.003l17.754-17.755c0.859-0.859,0.857-2.266,0-3.125l-0.791-0.792
				c-0.859-0.857-2.264-0.859-3.123,0l-17.754,17.755C1145.175,158.129,1145.175,159.533,1146.034,160.393z"/>
			<path style="fill-rule:evenodd;clip-rule:evenodd;fill:#E6E7E8;" d="M1060.106,246.318l0.792,0.792
				c0.859,0.858,2.269,0.858,3.125,0.001l17.755-17.754c0.856-0.859,0.856-2.266-0.003-3.125l-0.792-0.79
				c-0.856-0.859-2.264-0.862-3.123,0l-17.754,17.752C1059.249,244.054,1059.248,245.458,1060.106,246.318z"/>
			<path style="fill:#E6E7E8;" d="M1072.739,231.914l2.564,2.563c1.433,1.432,3.321,2.149,5.211,2.151h0.011
				c1.89-0.003,3.778-0.72,5.213-2.151l11.146-11.146c1.432-1.432,2.149-3.323,2.152-5.212v-0.012
				c-0.003-1.889-0.721-3.78-2.152-5.212l-2.562-2.564c-1.435-1.432-3.323-2.148-5.212-2.149h-0.011
				c-1.889,0.002-3.782,0.719-5.212,2.149l-11.148,11.147c-1.432,1.433-2.146,3.323-2.148,5.212v0.012
				C1070.593,228.591,1071.308,230.482,1072.739,231.914L1072.739,231.914z M1078.176,231.604l-2.563-2.564
				c-0.646-0.643-0.969-1.493-0.973-2.337v-0.012c0.004-0.847,0.327-1.695,0.973-2.34l11.146-11.145
				c0.643-0.643,1.492-0.969,2.341-0.971h0.011c0.846,0.003,1.696,0.329,2.338,0.971l2.563,2.561
				c0.645,0.643,0.968,1.493,0.973,2.34v0.012c-0.005,0.845-0.33,1.696-0.973,2.338l-11.146,11.147
				c-0.642,0.643-1.492,0.969-2.339,0.971h-0.011C1079.668,232.574,1078.818,232.247,1078.176,231.604z"/>
			<path style="fill:#E6E7E8;" d="M1044.28,260.374l2.562,2.561c1.433,1.434,3.323,2.149,5.212,2.151h0.012
				c1.889-0.003,3.779-0.717,5.211-2.151l11.148-11.145c1.43-1.432,2.146-3.323,2.149-5.212v-0.012
				c-0.003-1.888-0.718-3.78-2.149-5.212l-2.564-2.562c-1.432-1.432-3.322-2.149-5.211-2.151h-0.012
				c-1.889,0.003-3.779,0.719-5.212,2.151l-11.146,11.146c-1.432,1.432-2.148,3.323-2.151,5.212v0.011
				C1042.132,257.051,1042.849,258.941,1044.28,260.374L1044.28,260.374z M1049.716,260.064l-2.564-2.561
				c-0.643-0.646-0.969-1.493-0.971-2.341v-0.011c0.002-0.845,0.328-1.696,0.971-2.338l11.148-11.148
				c0.643-0.642,1.492-0.968,2.338-0.971h0.012c0.848,0.002,1.697,0.329,2.34,0.971l2.562,2.564c0.643,0.643,0.969,1.49,0.974,2.338
				v0.012c-0.005,0.848-0.331,1.698-0.974,2.341l-11.146,11.145c-0.645,0.642-1.492,0.968-2.34,0.971h-0.012
				C1051.208,261.033,1050.358,260.707,1049.716,260.064z"/>
			<path style="fill-rule:evenodd;clip-rule:evenodd;fill:#E6E7E8;" d="M1088.482,217.944l0.791,0.792
				c0.859,0.859,2.269,0.857,3.126,0l17.754-17.754c0.856-0.857,0.856-2.266-0.003-3.123l-0.792-0.792
				c-0.856-0.859-2.263-0.859-3.122,0l-17.754,17.753C1087.625,215.678,1087.623,217.085,1088.482,217.944z"/>
		</g>
	</g>
	<path style="fill-rule:evenodd;clip-rule:evenodd;fill:#E6E7E8;" d="M1160.768,227.094h1.12c1.216,0,2.21,0.997,2.21,2.208v25.108
		c0,1.216-0.997,2.21-2.21,2.21h-1.12c-1.213,0-2.207-0.994-2.207-2.21v-25.108C1158.561,228.088,1159.555,227.094,1160.768,227.094
		z"/>
	<path style="fill:#E6E7E8;" d="M1159.518,246.213h3.623c2.026,0,3.868,0.831,5.205,2.164l0.009,0.009
		c1.334,1.336,2.164,3.178,2.164,5.206v15.763c0,2.023-0.83,3.868-2.164,5.205l-0.009,0.01c-1.337,1.334-3.179,2.163-5.205,2.163
		h-3.623c-2.028,0-3.871-0.829-5.208-2.163l-0.009-0.01c-1.331-1.336-2.163-3.181-2.163-5.205v-15.763
		c0-2.028,0.832-3.87,2.163-5.206l0.009-0.009C1155.646,247.044,1157.489,246.213,1159.518,246.213L1159.518,246.213z
		 M1163.141,250.274h-3.623c-0.911,0-1.742,0.372-2.343,0.968l-0.007,0.007c-0.599,0.6-0.97,1.432-0.97,2.342v15.763
		c0,0.908,0.371,1.739,0.97,2.341l0.007,0.009c0.601,0.597,1.432,0.966,2.343,0.966h3.623c0.908,0,1.74-0.37,2.341-0.966l0.01-0.009
		c0.596-0.602,0.966-1.433,0.966-2.341v-15.763c0-0.91-0.37-1.742-0.966-2.342l-0.01-0.007
		C1164.881,250.646,1164.049,250.274,1163.141,250.274z"/>
	<path style="fill:#E6E7E8;" d="M1159.518,205.963h3.623c2.026,0,3.868,0.832,5.205,2.166l0.009,0.007
		c1.334,1.339,2.164,3.181,2.164,5.207v15.763c0,2.023-0.83,3.868-2.164,5.207l-0.009,0.007c-1.337,1.334-3.179,2.165-5.205,2.165
		h-3.623c-2.028,0-3.871-0.832-5.208-2.165l-0.009-0.007c-1.331-1.339-2.163-3.184-2.163-5.207v-15.763
		c0-2.026,0.832-3.868,2.163-5.207l0.009-0.007C1155.646,206.794,1157.489,205.963,1159.518,205.963L1159.518,205.963z
		 M1163.141,210.027h-3.623c-0.911,0-1.742,0.37-2.343,0.966l-0.007,0.009c-0.599,0.601-0.97,1.43-0.97,2.34v15.763
		c0,0.908,0.371,1.739,0.97,2.341l0.007,0.009c0.601,0.597,1.432,0.966,2.343,0.966h3.623c0.908,0,1.74-0.37,2.341-0.966l0.01-0.009
		c0.596-0.602,0.966-1.433,0.966-2.341v-15.763c0-0.91-0.37-1.739-0.966-2.34l-0.01-0.009
		C1164.881,210.397,1164.049,210.027,1163.141,210.027z"/>
	<path style="fill-rule:evenodd;clip-rule:evenodd;fill:#E6E7E8;" d="M1160.768,267.222h1.12c1.216,0,2.21,0.998,2.21,2.208v25.108
		c0,1.215-0.997,2.21-2.21,2.21h-1.12c-1.213,0-2.207-0.995-2.207-2.21v-25.108C1158.561,268.217,1159.555,267.222,1160.768,267.222
		z"/>
	<path style="fill-rule:evenodd;clip-rule:evenodd;fill:#E6E7E8;" d="M1160.768,145.706h1.12c1.216,0,2.21,0.996,2.21,2.207v25.108
		c0,1.216-0.997,2.21-2.21,2.21h-1.12c-1.213,0-2.207-0.994-2.207-2.21v-25.108C1158.561,146.699,1159.555,145.706,1160.768,145.706
		z"/>
	<path style="fill:#E6E7E8;" d="M1159.518,164.824h3.623c2.026,0,3.868,0.831,5.205,2.164l0.009,0.009
		c1.334,1.336,2.164,3.179,2.164,5.207v15.763c0,2.023-0.83,3.868-2.164,5.205l-0.009,0.01c-1.337,1.334-3.179,2.163-5.205,2.163
		h-3.623c-2.028,0-3.871-0.829-5.208-2.163l-0.009-0.01c-1.331-1.337-2.163-3.181-2.163-5.205v-15.763
		c0-2.028,0.832-3.871,2.163-5.207l0.009-0.009C1155.646,165.655,1157.489,164.824,1159.518,164.824L1159.518,164.824z
		 M1163.141,168.885h-3.623c-0.911,0-1.742,0.372-2.343,0.969l-0.007,0.007c-0.599,0.601-0.97,1.432-0.97,2.342v15.763
		c0,0.909,0.371,1.739,0.97,2.34l0.007,0.009c0.601,0.596,1.432,0.967,2.343,0.967h3.623c0.908,0,1.74-0.371,2.341-0.967l0.01-0.009
		c0.596-0.601,0.966-1.432,0.966-2.34v-15.763c0-0.91-0.37-1.742-0.966-2.342l-0.01-0.007
		C1164.881,169.257,1164.049,168.885,1163.141,168.885z"/>
	<path style="fill-rule:evenodd;clip-rule:evenodd;fill:#E6E7E8;" d="M1160.768,185.833h1.12c1.216,0,2.21,0.997,2.21,2.208v25.108
		c0,1.216-0.997,2.209-2.21,2.209h-1.12c-1.213,0-2.207-0.994-2.207-2.209v-25.108
		C1158.561,186.828,1159.555,185.833,1160.768,185.833z"/>
</g>
<ellipse transform="matrix(0.7071 -0.7071 0.7071 0.7071 -290.9666 951.4966)" style="fill-rule:evenodd;clip-rule:evenodd;fill:#E2AA11;" cx="1003.075" cy="826.976" rx="176.635" ry="176.635"/>
<path style="fill-rule:evenodd;clip-rule:evenodd;fill:#F6CC2E;" d="M1003.076,650.343c23.615,0,46.153,4.64,66.746,13.056v-13.056
	c0-8.834-3.621-16.871-9.448-22.7c-5.829-5.826-13.865-9.447-22.7-9.447h-69.197c-8.836,0-16.872,3.621-22.7,9.447
	c-5.827,5.829-9.448,13.866-9.448,22.7v13.066C956.921,654.991,979.456,650.343,1003.076,650.343L1003.076,650.343z
	 M1085.648,670.804c16.849,8.926,32.08,20.502,45.142,34.172c6.912,19.971,10.68,41.412,10.68,63.732
	c0,107.589-87.255,194.844-194.844,194.844c-24.496,0-47.93-4.536-69.529-12.791c-31.323-31.876-50.656-75.572-50.656-123.784
	c0-67.705,38.123-126.517,94.061-156.163v-20.471c0-13.2,5.398-25.198,14.087-33.888c8.69-8.688,20.688-14.085,33.888-14.085h69.197
	c13.199,0,25.196,5.397,33.888,14.085c8.688,8.689,14.087,20.688,14.087,33.888V670.804z"/>
<path style="fill-rule:evenodd;clip-rule:evenodd;fill:#E2AA11;" d="M1023.252,785.812l31.809-31.81
	c3.257-3.258,3.257-8.587,0-11.844l0,0c-3.261-3.259-8.587-3.259-11.847,0l-31.517,31.515l-0.541-0.489l-0.789-0.717l-1.381-1.225
	l-0.813-0.708l-1.462-1.236l-0.741-0.617c-1.483-1.221-2.99-2.41-4.521-3.561l-0.423-0.314c-0.636-0.473-1.272-0.945-1.915-1.404
	l-0.68-0.479l-1.581-1.108l-0.969-0.657l-1.551-1.031l-0.685-0.444c-0.582-0.378-1.172-0.748-1.761-1.116l-0.78-0.487l-1.709-1.026
	l-0.729-0.436c-0.81-0.475-1.626-0.938-2.445-1.396l-0.035-0.018c-0.85-0.471-1.702-0.932-2.562-1.387l-0.435-0.226l-2.037-1.045
	l-0.797-0.394l-1.816-0.88l-0.841-0.393l-1.633-0.747l-1.001-0.447c-0.701-0.31-1.409-0.612-2.117-0.908l-0.349-0.146
	c-0.895-0.37-1.789-0.736-2.688-1.088l-0.017-0.005c-1.774-0.694-3.563-1.346-5.365-1.963l-0.957-0.319l-1.7-0.556l-1.006-0.314
	l-1.783-0.541l-0.967-0.281l-1.854-0.515l-0.832-0.226l-2.128-0.541l-0.65-0.163c-1.864-0.449-3.737-0.858-5.621-1.229l-0.494-0.096
	l-2.217-0.407l-1.026-0.172l-1.707-0.274l-1.095-0.164l-1.784-0.246l-1.045-0.136l-1.772-0.204l-1.095-0.119l-2.107-0.193
	l-0.606-0.056l-0.091-0.007c-0.955-0.077-1.911-0.143-2.871-0.198l-0.261-0.014c-0.811-0.047-1.618-0.086-2.429-0.114l-1.102-0.035
	l-1.803-0.042l-1.008-0.012l-1.905-0.005l-0.964,0.01l-1.931,0.04l-0.953,0.025c-0.651,0.021-1.304,0.053-1.953,0.086l-0.957,0.047
	c-0.945,0.054-1.893,0.116-2.839,0.19l-0.058,0.005c-0.943,0.074-1.889,0.16-2.832,0.257l-0.629,0.067l-2.089,0.234l-1.141,0.144
	l-1.727,0.237l-1.149,0.17l-1.722,0.275l-1.088,0.184l-1.941,0.356l-0.88,0.168c-0.935,0.184-1.87,0.374-2.802,0.582l-0.012,0.003
	l-0.044,0.009c-0.957,0.212-1.917,0.438-2.871,0.67l-0.396,0.101c-0.799,0.195-1.596,0.398-2.392,0.612l-0.927,0.257l-1.779,0.5
	l-1.164,0.346l-1.602,0.492l-1.244,0.396l-1.692,0.566l-0.984,0.336c-0.745,0.261-1.491,0.531-2.234,0.806l-0.535,0.193
	c-0.892,0.336-1.781,0.675-2.666,1.029l-0.175,0.069l-0.484,0.2c-0.735,0.299-1.472,0.604-2.205,0.916l-0.82,0.356
	c-0.636,0.276-1.272,0.554-1.902,0.843l-1.011,0.466l-1.59,0.747l-1.228,0.597l-1.569,0.784l-1.006,0.515
	c-0.667,0.345-1.328,0.699-1.989,1.055l-0.676,0.364c-0.892,0.488-1.78,0.985-2.668,1.497c-0.932,0.538-1.854,1.087-2.77,1.644
	l-0.067,0.04c-1.737,1.062-3.442,2.156-5.113,3.284l-0.196,0.129l-0.189,0.131c-0.768,0.521-1.532,1.05-2.286,1.588l-0.131,0.092
	l-0.247,0.179c-0.626,0.449-1.248,0.901-1.865,1.359l-0.37,0.275l-0.366,0.277c-0.643,0.484-1.28,0.971-1.914,1.467L839,767.117
	l-1.871,1.505l-0.556,0.461l-0.595,0.5c-6.183,17.994-9.538,37.305-9.538,57.393c0,48.212,19.333,91.908,50.656,123.784
	c21.6,8.255,45.033,12.791,69.529,12.791c31.049,0,60.397-7.277,86.449-20.204c26.144-40.524,29.229-93.903,3.463-138.533
	c-2.231-3.863-4.626-7.568-7.171-11.115v-0.002l-0.165-0.229c-0.561-0.78-1.127-1.55-1.705-2.315l-0.007-0.01
	c-0.577-0.769-1.164-1.524-1.756-2.277l-0.156-0.2l-0.064-0.082c-0.594-0.751-1.197-1.49-1.805-2.224l-0.103-0.125l-0.126-0.149
	L1023.252,785.812z"/>
<g>
	<path style="fill-rule:evenodd;clip-rule:evenodd;fill:#C4D93D;" d="M955.503,788.143l11.846,11.846l39.399-39.402
		c3.259-3.257,3.259-8.585,0-11.844v-0.002c-3.257-3.255-8.588-3.255-11.846,0L955.503,788.143z"/>
	<path style="fill-rule:evenodd;clip-rule:evenodd;fill:#C4D93D;" d="M790.891,788.143l-11.846,11.846l-39.4-39.402
		c-3.257-3.257-3.257-8.585,0-11.844v-0.002c3.258-3.255,8.589-3.255,11.846,0L790.891,788.143z"/>
</g>
<path style="fill-rule:evenodd;clip-rule:evenodd;fill:#79B82F;" d="M806.784,762.78c63.518-36.672,144.768-14.9,181.444,48.619
	c36.672,63.518,14.901,144.771-48.619,181.443c-63.521,36.674-144.772,14.903-181.445-48.617
	C721.492,880.705,743.263,799.453,806.784,762.78z"/>
<path style="fill-rule:evenodd;clip-rule:evenodd;fill:#A5D134;" d="M806.784,762.78c59.656-34.443,134.951-17.329,174.272,37.503
	c21.749,50.947-5.822,116.486-65.482,150.931c-59.659,34.444-130.205,25.554-163.448-18.758
	C724.298,870.989,747.124,797.226,806.784,762.78z"/>
<path style="fill-rule:evenodd;clip-rule:evenodd;fill:#99C23D;" d="M916.489,1003.398c-11.552,3.992-23.41,6.306-35.259,7.014
	c-3.991-12.666-12.801-22.742-26.284-22.742h-55.054h-1.396c-13.521-9.18-25.514-20.983-35.15-35.189h36.547h48.681
	c4.14,0,7.525-3.387,7.525-7.527v-0.002c0-4.141-3.386-7.526-7.525-7.526h-48.681h-45.386c-5.664-11.252-9.578-22.97-11.83-34.833
	h57.216h13.085h55.202l0.832,0.012h0.065l0.706,0.027l0.137,0.008l0.389,0.023l0.466,0.032l0.056,0.004l0.692,0.066l0.095,0.009
	l0.245,0.028l0.51,0.063l0.079,0.01l0.427,0.062l0.396,0.061l0.106,0.019l0.672,0.121l0.069,0.012l0.738,0.151l0.025,0.007
	l0.661,0.153l0.128,0.03l0.153,0.04l0.625,0.167l0.607,0.181l0.161,0.046l0.025,0.01l0.466,0.148l0.025,0.009l0.435,0.148
	l0.459,0.162l0.094,0.033l0.172,0.067l0.498,0.194l0.063,0.025l0.073,0.03l0.445,0.184l0.207,0.088l0.233,0.106l0.438,0.198
	l0.042,0.018l0.116,0.056l0.447,0.217l0.141,0.067l0.115,0.061l0.424,0.218l0.324,0.173l0.098,0.054l0.412,0.23l0.003,0.003
	l0.414,0.239l0.254,0.151l0.153,0.094l0.403,0.253l0.796,0.522l0.394,0.271l0.2,0.143l0.187,0.135l0.385,0.284l0.058,0.042
	l0.322,0.247l0.093,0.072l0.281,0.224l0.373,0.3l0.023,0.021l0.316,0.263l0.027,0.023l0.364,0.313l0.017,0.012l0.342,0.305
	l0.027,0.025l0.329,0.298l0.352,0.329c0.814,0.772,1.596,1.59,2.343,2.449l0.318,0.371l0.315,0.377l0.31,0.379l0.027,0.033
	l0.277,0.352l0.303,0.389l0.298,0.394l0.104,0.14l0.189,0.259l0.287,0.396l0.002,0.007l0.287,0.407l0.174,0.252l0.107,0.161
	c3.762,5.569,6.406,12.293,7.916,19.405L916.489,1003.398z"/>
<path style="fill-rule:evenodd;clip-rule:evenodd;fill:#79B82F;" d="M906.45,956.101c-46.921,23.279-98.896,20.851-133.61-3.619
	h27.052h48.681c4.14,0,7.525-3.387,7.525-7.527v-0.002c0-4.141-3.386-7.526-7.525-7.526h-48.681h-43.744
	c-1.393-1.604-2.739-3.258-4.024-4.97c-4.397-9.716-7.526-19.738-9.448-29.863h57.216h13.085h55.202l0.832,0.012h0.065l0.706,0.027
	l0.137,0.008l0.389,0.023l0.466,0.032l0.056,0.004l0.692,0.066l0.095,0.009l0.245,0.028l0.51,0.063l0.079,0.01l0.427,0.062
	l0.396,0.061l0.106,0.019l0.672,0.121l0.069,0.012l0.738,0.151l0.025,0.007l0.661,0.153l0.128,0.03l0.153,0.04l0.625,0.167
	l0.607,0.181l0.161,0.046l0.025,0.01l0.466,0.148l0.025,0.009l0.435,0.148l0.459,0.162l0.094,0.033l0.172,0.067l0.498,0.194
	l0.063,0.025l0.073,0.03l0.445,0.184l0.207,0.088l0.233,0.106l0.438,0.198l0.042,0.018l0.116,0.056l0.447,0.217l0.141,0.067
	l0.115,0.061l0.424,0.218l0.324,0.173l0.098,0.054l0.412,0.23l0.003,0.003l0.414,0.239l0.254,0.151l0.153,0.094l0.403,0.253
	l0.796,0.522l0.394,0.271l0.2,0.143l0.187,0.135l0.385,0.284l0.058,0.042l0.322,0.247l0.093,0.072l0.281,0.224l0.373,0.3
	l0.023,0.021l0.316,0.263l0.027,0.023l0.364,0.313l0.017,0.012l0.342,0.305l0.027,0.025l0.329,0.298l0.352,0.329
	c0.814,0.772,1.596,1.59,2.343,2.449l0.318,0.371l0.315,0.377l0.31,0.379l0.027,0.033l0.277,0.352l0.303,0.389l0.298,0.394
	l0.104,0.14l0.189,0.259l0.287,0.396l0.002,0.007l0.287,0.407l0.174,0.252l0.107,0.161c3.762,5.569,6.406,12.293,7.916,19.405
	L906.45,956.101z"/>
<path style="fill-rule:evenodd;clip-rule:evenodd;fill:#79B82F;" d="M1006.036,877.038c0.03,6.403-0.403,12.781-1.288,19.09H741.617
	c-0.88-6.357-1.295-12.738-1.253-19.09H1006.036z"/>
<path style="fill-rule:evenodd;clip-rule:evenodd;fill:#79B82F;" d="M980.83,877.038c-2.474,6.487-5.533,12.875-9.143,19.09H741.619
	c-0.88-6.357-1.295-12.735-1.25-19.09H980.83z"/>
<path style="fill-rule:evenodd;clip-rule:evenodd;fill:#99C23D;" d="M817.654,757.157c7.538-3.482,15.267-6.204,23.09-8.178v3.935
	h7.695v12.753c5.809,0,10.552,4.74,10.552,10.546v33.423c0,5.807-4.743,10.548-10.552,10.548h-21.992l-0.433,0.01h22.425v12.749
	c5.809,0,10.552,4.749,10.552,10.55v61.566c0,5.804-4.743,10.55-10.552,10.55h-22.425h-8.36c-5.804,0-10.55-4.744-10.55-10.55
	v-61.566c0-5.801,4.746-10.55,10.55-10.55v-12.749c-3.9,0-7.324-2.144-9.148-5.316l-0.124-0.219v-0.003l-0.12-0.223v-0.003
	l-0.114-0.226v-0.003l-0.106-0.229v-0.003l-0.105-0.233v-0.002l-0.098-0.235v-0.003l-0.091-0.237v-0.004l-0.086-0.239v-0.003
	l-0.08-0.242v-0.005l-0.073-0.244v-0.005l-0.07-0.246v-0.005l-0.061-0.249v-0.003l-0.059-0.254v-0.002l-0.049-0.257v-0.002
	l-0.044-0.257v-0.004l-0.035-0.259v-0.005l-0.033-0.258v-0.005l-0.023-0.263v-0.003l-0.017-0.266v-0.005l-0.012-0.265v-0.003
	l-0.003-0.268v-0.004v-33.423c0-5.806,4.746-10.546,10.55-10.546V757.157z"/>
<path style="fill-rule:evenodd;clip-rule:evenodd;fill:#79B82F;" d="M817.654,757.15c7.54-3.481,15.265-6.189,23.09-8.165v3.929
	h7.695v12.753c5.809,0,10.552,4.74,10.552,10.546v33.423c0,5.807-4.743,10.548-10.552,10.548h-21.992l-0.433,0.01h22.425v12.749
	c5.809,0,10.552,4.749,10.552,10.55v61.566c0,5.804-4.743,10.55-10.552,10.55h-22.425h-8.36c-5.804,0-10.55-4.744-10.55-10.55
	v-61.566c0-5.801,4.746-10.55,10.55-10.55v-12.749c-3.9,0-7.324-2.144-9.148-5.316l-0.124-0.219v-0.003l-0.12-0.223v-0.003
	l-0.114-0.226v-0.003l-0.106-0.229v-0.003l-0.105-0.233v-0.002l-0.098-0.235v-0.003l-0.091-0.237v-0.004l-0.086-0.239v-0.003
	l-0.08-0.242v-0.005l-0.073-0.244v-0.005l-0.07-0.246v-0.005l-0.061-0.249v-0.003l-0.059-0.254v-0.002l-0.049-0.257v-0.002
	l-0.044-0.257v-0.004l-0.035-0.259v-0.005l-0.033-0.258v-0.005l-0.023-0.263v-0.003l-0.017-0.266v-0.005l-0.012-0.265v-0.003
	l-0.003-0.268v-0.004v-33.423c0-5.806,4.746-10.546,10.55-10.546V757.15z"/>
<path style="fill-rule:evenodd;clip-rule:evenodd;fill:#BBBDBF;" d="M227.992,802.285h0.005c1.856,0,3.372,0.787,3.372,1.751v35.8
	h-6.749v-35.8C224.62,803.072,226.136,802.285,227.992,802.285z"/>
<rect x="392.358" y="846.345" style="fill-rule:evenodd;clip-rule:evenodd;fill:#E6E7E8;" width="778.866" height="19.091"/>
<rect x="392.358" y="858.659" style="fill-rule:evenodd;clip-rule:evenodd;fill:#808184;" width="778.866" height="6.773"/>
<rect x="1171.226" y="835.313" style="fill-rule:evenodd;clip-rule:evenodd;fill:#E6E7E8;" width="219.807" height="41.15"/>
<rect x="1171.226" y="861.866" style="fill-rule:evenodd;clip-rule:evenodd;fill:#808184;" width="219.807" height="14.601"/>
<rect x="1199.271" y="701.144" style="fill-rule:evenodd;clip-rule:evenodd;fill:#58595B;" width="30.146" height="309.491"/>
<rect x="1229.414" y="737.111" style="fill-rule:evenodd;clip-rule:evenodd;fill:#58595B;" width="30.146" height="237.558"/>
<rect x="1259.56" y="771.236" style="fill-rule:evenodd;clip-rule:evenodd;fill:#929497;" width="30.146" height="169.308"/>
<rect x="1199.271" y="944.975" style="fill-rule:evenodd;clip-rule:evenodd;fill:#231F20;" width="30.146" height="65.659"/>
<rect x="1229.414" y="922.79" style="fill-rule:evenodd;clip-rule:evenodd;fill:#231F20;" width="30.146" height="51.876"/>
<rect x="1259.56" y="901.92" style="fill-rule:evenodd;clip-rule:evenodd;fill:#58595B;" width="30.146" height="38.624"/>
<rect x="1199.271" y="701.144" style="fill-rule:evenodd;clip-rule:evenodd;fill:#D0D2D3;" width="30.146" height="65.658"/>
<rect x="1229.414" y="737.111" style="fill-rule:evenodd;clip-rule:evenodd;fill:#808184;" width="30.146" height="51.878"/>
<rect x="1259.56" y="771.236" style="fill-rule:evenodd;clip-rule:evenodd;fill:#BBBDBF;" width="30.146" height="38.624"/>
<rect x="172.553" y="835.313" style="fill-rule:evenodd;clip-rule:evenodd;fill:#DEDEDD;" width="101.327" height="41.15"/>
<rect x="172.553" y="861.866" style="fill-rule:evenodd;clip-rule:evenodd;fill:#808184;" width="101.327" height="14.601"/>
<rect x="334.165" y="701.144" style="fill-rule:evenodd;clip-rule:evenodd;fill:#72706F;" width="30.146" height="309.491"/>
<rect x="304.022" y="737.111" style="fill-rule:evenodd;clip-rule:evenodd;fill:#4D4948;" width="30.146" height="237.558"/>
<rect x="273.877" y="771.236" style="fill-rule:evenodd;clip-rule:evenodd;fill:#838281;" width="30.145" height="169.308"/>
<rect x="334.165" y="944.975" style="fill-rule:evenodd;clip-rule:evenodd;fill:#2D292A;" width="30.146" height="65.659"/>
<rect x="304.022" y="922.79" style="fill-rule:evenodd;clip-rule:evenodd;fill:#2D292A;" width="30.146" height="51.876"/>
<rect x="273.877" y="901.92" style="fill-rule:evenodd;clip-rule:evenodd;fill:#2D292A;" width="30.145" height="38.624"/>
<rect x="334.165" y="701.144" style="fill-rule:evenodd;clip-rule:evenodd;fill:#6D6E70;" width="30.146" height="65.658"/>
<rect x="304.022" y="737.111" style="fill-rule:evenodd;clip-rule:evenodd;fill:#808184;" width="30.146" height="51.878"/>
<rect x="273.877" y="771.236" style="fill-rule:evenodd;clip-rule:evenodd;fill:#BBBDBF;" width="30.145" height="38.624"/>
<rect x="206.218" y="823.814" style="fill-rule:evenodd;clip-rule:evenodd;fill:#C2C1C1;" width="14.02" height="63.085"/>
<rect x="206.218" y="876.467" style="fill-rule:evenodd;clip-rule:evenodd;fill:#BBBDBF;" width="14.02" height="10.433"/>
<rect x="220.238" y="828.81" style="fill-rule:evenodd;clip-rule:evenodd;fill:#DEDEDD;" width="14.018" height="53.095"/>
<rect x="220.238" y="873.121" style="fill-rule:evenodd;clip-rule:evenodd;fill:#BBBDBF;" width="14.018" height="8.781"/>
<rect x="234.256" y="823.814" style="fill-rule:evenodd;clip-rule:evenodd;fill:#C2C1C1;" width="14.02" height="63.085"/>
<rect x="234.256" y="876.467" style="fill-rule:evenodd;clip-rule:evenodd;fill:#BBBDBF;" width="14.02" height="10.433"/>
<rect x="220.235" y="828.81" style="fill-rule:evenodd;clip-rule:evenodd;fill:#58595B;" width="3.304" height="53.095"/>
<rect x="248.273" y="835.316" style="fill-rule:evenodd;clip-rule:evenodd;fill:#58595B;" width="3.304" height="40.082"/>
<rect x="172.55" y="847.845" style="fill-rule:evenodd;clip-rule:evenodd;fill:#FFFFFF;" width="33.666" height="6.522"/>
<path style="fill-rule:evenodd;clip-rule:evenodd;fill:#BBBDBF;" d="M1333.638,802.285h-0.005c-1.855,0-3.371,0.787-3.371,1.751
	v35.8h6.749v-35.8C1337.011,803.072,1335.494,802.285,1333.638,802.285z"/>
<rect x="1341.395" y="823.814" style="fill-rule:evenodd;clip-rule:evenodd;fill:#D0D2D3;" width="14.019" height="63.085"/>
<rect x="1341.395" y="876.467" style="fill-rule:evenodd;clip-rule:evenodd;fill:#BBBDBF;" width="14.019" height="10.433"/>
<rect x="1327.376" y="828.81" style="fill-rule:evenodd;clip-rule:evenodd;fill:#E6E7E8;" width="14.019" height="53.095"/>
<rect x="1327.376" y="873.121" style="fill-rule:evenodd;clip-rule:evenodd;fill:#BBBDBF;" width="14.019" height="8.781"/>
<rect x="1313.357" y="823.814" style="fill-rule:evenodd;clip-rule:evenodd;fill:#D0D2D3;" width="14.019" height="63.085"/>
<rect x="1313.357" y="876.467" style="fill-rule:evenodd;clip-rule:evenodd;fill:#BBBDBF;" width="14.019" height="10.433"/>
<rect x="1338.093" y="828.81" style="fill-rule:evenodd;clip-rule:evenodd;fill:#58595B;" width="3.305" height="53.095"/>
<rect x="1310.056" y="835.316" style="fill-rule:evenodd;clip-rule:evenodd;fill:#58595B;" width="3.304" height="40.082"/>
<g>
	<path style="fill-rule:evenodd;clip-rule:evenodd;fill:#605D5C;" d="M1040.935,888.623c37.133,0,67.246,30.112,67.246,67.246
		c0,22.586-11.141,42.574-28.225,54.77h-78.044c-17.083-12.195-28.224-32.184-28.224-54.77
		C973.688,918.735,1003.801,888.623,1040.935,888.623z"/>
	<path style="fill-rule:evenodd;clip-rule:evenodd;fill:#231F20;" d="M1063.015,892.337c26.289,9.138,45.166,34.135,45.166,63.532
		c0,22.586-11.141,42.574-28.225,54.77h-33.883c-17.083-12.195-28.224-32.184-28.224-54.77
		C1017.85,926.472,1036.727,901.475,1063.015,892.337z"/>
	<path style="fill:#231F20;" d="M1023.252,817.8h37.372c9.042,0,17.26,3.693,23.213,9.646v0.032
		c5.946,5.952,9.646,14.161,9.646,23.181v63.257c-4.874-6.097-10.782-11.327-17.466-15.421v-47.836c0-4.237-1.73-8.093-4.511-10.883
		l-0.017,0.017c-2.793-2.793-6.642-4.526-10.865-4.526h-37.372c-4.225,0-8.073,1.733-10.865,4.526l-0.017-0.017
		c-2.78,2.79-4.511,6.646-4.511,10.883v46.653c-6.595,3.735-12.495,8.551-17.465,14.207v-60.86c0-9.02,3.697-17.229,9.646-23.181
		v-0.032C1005.992,821.493,1014.21,817.8,1023.252,817.8z"/>
	<path style="fill-rule:evenodd;clip-rule:evenodd;fill:#4C4847;" d="M1040.935,991.727c20.097,0,36.486-16.39,36.486-36.486
		c0-20.098-16.39-36.487-36.486-36.487s-36.486,16.39-36.486,36.487C1004.448,975.338,1020.838,991.727,1040.935,991.727z"/>
	<path style="fill-rule:evenodd;clip-rule:evenodd;fill:#D0D2D3;" d="M1004.709,922.731c3.984,0,7.234-3.251,7.234-7.235
		c0-3.984-3.25-7.235-7.234-7.235c-3.984,0-7.235,3.251-7.235,7.235C997.474,919.48,1000.725,922.731,1004.709,922.731z"/>
</g>
<g>
	<path style="fill-rule:evenodd;clip-rule:evenodd;fill:#605D5C;" d="M1174.226,847.788c49.563,0,89.751,40.192,89.751,89.752
		c0,30.146-14.869,56.82-37.669,73.099h-104.164c-22.801-16.278-37.67-42.953-37.67-73.099
		C1084.474,887.98,1124.665,847.788,1174.226,847.788z"/>
	<g>
		<path style="fill-rule:evenodd;clip-rule:evenodd;fill:#1F1A17;" d="M1203.695,852.746c35.087,12.195,60.281,45.557,60.281,84.794
			c0,30.146-14.869,56.82-37.669,73.099h-45.222c-22.801-16.278-37.669-42.953-37.669-73.099
			C1143.417,898.303,1168.608,864.941,1203.695,852.746z"/>
		<path style="fill:#231F20;" d="M1150.626,753.264h49.879c12.067,0,23.036,4.93,30.979,12.873v0.044
			c7.938,7.943,12.875,18.9,12.875,30.938v84.428c-6.507-8.137-14.392-15.118-23.31-20.581v-63.847
			c0-5.654-2.311-10.801-6.023-14.524l-0.02,0.023c-3.727-3.729-8.864-6.043-14.502-6.043h-49.879
			c-5.638,0-10.774,2.314-14.503,6.043l-0.021-0.023c-3.712,3.724-6.019,8.87-6.019,14.524v62.268
			c-8.803,4.983-16.679,11.412-23.312,18.961v-81.229c0-12.037,4.936-22.994,12.874-30.938v-0.044
			C1127.589,758.193,1138.557,753.264,1150.626,753.264z"/>
		<path style="fill-rule:evenodd;clip-rule:evenodd;fill:#4C4847;" d="M1174.226,985.394c26.822,0,48.698-21.873,48.698-48.695
			c0-26.822-21.876-48.698-48.698-48.698s-48.696,21.876-48.696,48.698C1125.529,963.521,1147.403,985.394,1174.226,985.394z"/>
		<path style="fill-rule:evenodd;clip-rule:evenodd;fill:#D0D2D3;" d="M1125.876,893.313c5.319,0,9.658-4.338,9.658-9.656
			c0-5.319-4.339-9.658-9.658-9.658c-5.318,0-9.656,4.339-9.656,9.658C1116.22,888.975,1120.558,893.313,1125.876,893.313z"/>
	</g>
</g>
<path style="fill-rule:evenodd;clip-rule:evenodd;fill:#56C4CF;" d="M829.915,896.081h-68.288H693.34
	c-18.792,0-30.264,15.782-34.164,34.165l-17.062,80.393h36.505l0.412-1.938c3.144-14.82,12.393-27.542,27.545-27.542h55.052h55.054
	c15.151,0,24.4,12.722,27.544,27.542l0.412,1.938h36.505l-17.062-80.393C860.18,911.863,848.708,896.081,829.915,896.081
	L829.915,896.081z M712.948,930.915h97.359c4.14,0,7.525,3.385,7.525,7.525v0.003c0,4.141-3.386,7.526-7.525,7.526h-97.359
	c-4.141,0-7.527-3.386-7.527-7.526v-0.003C705.421,934.3,708.808,930.915,712.948,930.915z"/>
<path style="fill-rule:evenodd;clip-rule:evenodd;fill:#47A4AD;" d="M829.915,896.081h-68.288v34.834h48.681
	c4.14,0,7.525,3.385,7.525,7.525v0.003c0,4.141-3.386,7.526-7.525,7.526h-48.681v35.189h55.054c15.151,0,24.4,12.722,27.544,27.542
	l0.412,1.938h36.505l-17.062-80.393C860.18,911.863,848.708,896.081,829.915,896.081z"/>
<path style="fill-rule:evenodd;clip-rule:evenodd;fill:#EEB427;" d="M829.915,896.081h-68.288H693.34
	c-11.522,0-20.287,5.935-26.249,14.76h189.073C850.203,902.016,841.438,896.081,829.915,896.081z"/>
<path style="fill-rule:evenodd;clip-rule:evenodd;fill:#FDD23B;" d="M774.712,896.081h-13.086h-55.202H693.34
	c-11.522,0-20.287,5.935-26.249,14.76h133.871C795,902.016,786.235,896.081,774.712,896.081z"/>
<path style="fill-rule:evenodd;clip-rule:evenodd;fill:#F0B700;" d="M792.621,746.14h30.789c5.803,0,10.551,4.744,10.551,10.55
	v33.422c0,5.806-4.748,10.549-10.551,10.549h-30.789c-5.801,0-10.549-4.743-10.549-10.549v-33.422
	C782.072,750.884,786.82,746.14,792.621,746.14z"/>
<path style="fill-rule:evenodd;clip-rule:evenodd;fill:#FFF100;" d="M792.623,746.138h8.36c5.803,0,10.549,4.746,10.549,10.552
	v33.424c0,5.804-4.746,10.55-10.549,10.55h-8.36c-5.806,0-10.551-4.746-10.551-10.55v-33.424
	C782.072,750.884,786.817,746.138,792.623,746.138z"/>
<path style="fill-rule:evenodd;clip-rule:evenodd;fill:#F7BF21;" d="M792.623,813.414h30.786c5.803,0,10.549,4.749,10.549,10.552
	v61.566c0,5.801-4.748,10.552-10.549,10.552h-30.786c-5.803,0-10.551-4.748-10.551-10.552v-61.566
	C782.072,818.163,786.817,813.414,792.623,813.414z"/>
<path style="fill-rule:evenodd;clip-rule:evenodd;fill:#FFF100;" d="M792.623,813.414h8.36c5.803,0,10.549,4.749,10.549,10.552
	v61.566c0,5.801-4.748,10.552-10.549,10.552h-8.36c-5.803,0-10.551-4.748-10.551-10.552v-61.566
	C782.072,818.163,786.817,813.414,792.623,813.414z"/>
<rect x="792.621" y="800.663" style="fill-rule:evenodd;clip-rule:evenodd;fill:#FFF100;" width="30.789" height="12.754"/>
<rect x="792.621" y="733.386" style="fill-rule:evenodd;clip-rule:evenodd;fill:#404041;" width="30.789" height="12.754"/>
<rect x="800.322" y="720.634" style="fill-rule:evenodd;clip-rule:evenodd;fill:#404041;" width="15.388" height="12.752"/>
<polygon style="fill-rule:evenodd;clip-rule:evenodd;fill:#404041;" points="800.042,714.986 805.72,714.986 810.31,714.986 
	815.987,714.986 818.926,720.634 810.31,720.634 805.72,720.634 797.103,720.634 "/>
<g>
	<rect x="1191.207" y="952.162" style="fill-rule:evenodd;clip-rule:evenodd;fill:#C4D93D;" width="22.826" height="10.137"/>
	<rect x="1191.207" y="962.299" style="fill-rule:evenodd;clip-rule:evenodd;fill:#99C23D;" width="22.826" height="31.179"/>
	<rect x="1214.033" y="962.299" style="fill-rule:evenodd;clip-rule:evenodd;fill:#00A551;" width="5.933" height="31.179"/>
	<polygon style="fill-rule:evenodd;clip-rule:evenodd;fill:#00A551;" points="1219.966,962.299 1214.033,952.162 1214.033,962.299 	
		"/>
	<rect x="1185.275" y="962.299" style="fill-rule:evenodd;clip-rule:evenodd;fill:#ACCC46;" width="5.932" height="31.179"/>
	<polygon style="fill-rule:evenodd;clip-rule:evenodd;fill:#ACCC46;" points="1185.275,962.299 1191.207,952.162 1191.207,962.299 	
		"/>
	<rect x="1191.207" y="993.477" style="fill-rule:evenodd;clip-rule:evenodd;fill:#00A551;" width="22.826" height="10.135"/>
	<polygon style="fill-rule:evenodd;clip-rule:evenodd;fill:#00A551;" points="1219.966,993.477 1214.033,1003.612 1214.033,993.477 
			"/>
	<polygon style="fill-rule:evenodd;clip-rule:evenodd;fill:#ACCC46;" points="1185.275,993.477 1191.207,1003.612 1191.207,993.477 
			"/>
	<rect x="1219.966" y="972.049" style="fill-rule:evenodd;clip-rule:evenodd;fill:#99C23D;" width="39.917" height="11.677"/>
	<rect x="1219.966" y="979.406" style="fill-rule:evenodd;clip-rule:evenodd;fill:#00A551;" width="39.917" height="4.319"/>
	<rect x="1265.814" y="952.162" style="fill-rule:evenodd;clip-rule:evenodd;fill:#C4D93D;" width="22.825" height="10.137"/>
	<rect x="1265.814" y="962.299" style="fill-rule:evenodd;clip-rule:evenodd;fill:#99C23D;" width="22.825" height="31.179"/>
	<rect x="1288.64" y="962.299" style="fill-rule:evenodd;clip-rule:evenodd;fill:#00A551;" width="5.932" height="31.179"/>
	<polygon style="fill-rule:evenodd;clip-rule:evenodd;fill:#00A551;" points="1294.571,962.299 1288.64,952.162 1288.64,962.299 	
		"/>
	<rect x="1259.88" y="962.299" style="fill-rule:evenodd;clip-rule:evenodd;fill:#ACCC46;" width="5.935" height="31.179"/>
	<polygon style="fill-rule:evenodd;clip-rule:evenodd;fill:#ACCC46;" points="1259.88,962.299 1265.814,952.162 1265.814,962.299 	
		"/>
	<rect x="1265.814" y="993.477" style="fill-rule:evenodd;clip-rule:evenodd;fill:#00A551;" width="22.825" height="10.135"/>
	<polygon style="fill-rule:evenodd;clip-rule:evenodd;fill:#00A551;" points="1294.571,993.477 1288.64,1003.612 1288.64,993.477 	
		"/>
	<polygon style="fill-rule:evenodd;clip-rule:evenodd;fill:#ACCC46;" points="1259.88,993.477 1265.814,1003.612 1265.814,993.477 	
		"/>
	
		<rect x="1092.341" y="955.087" transform="matrix(0.8052 -0.5931 0.5931 0.8052 -354.3708 841.6519)" style="fill-rule:evenodd;clip-rule:evenodd;fill:#C4D93D;" width="22.825" height="10.135"/>
	
		<rect x="1104.593" y="961.196" transform="matrix(0.8051 -0.5932 0.5932 0.8051 -361.863 852.3535)" style="fill-rule:evenodd;clip-rule:evenodd;fill:#99C23D;" width="22.825" height="31.18"/>
	
		<rect x="1124.616" y="952.668" transform="matrix(0.8052 -0.593 0.593 0.8052 -354.5247 857.244)" style="fill-rule:evenodd;clip-rule:evenodd;fill:#00A551;" width="5.932" height="31.179"/>
	<polygon style="fill-rule:evenodd;clip-rule:evenodd;fill:#00A551;" points="1120.723,953.948 1109.937,949.307 1115.946,957.466 	
		"/>
	
		<rect x="1101.463" y="969.724" transform="matrix(0.8051 -0.5931 0.5931 0.8051 -369.1677 847.037)" style="fill-rule:evenodd;clip-rule:evenodd;fill:#ACCC46;" width="5.933" height="31.18"/>
	<polygon style="fill-rule:evenodd;clip-rule:evenodd;fill:#ACCC46;" points="1092.794,974.521 1091.558,962.844 1097.571,971.003 	
		"/>
	
		<rect x="1116.845" y="988.35" transform="matrix(0.8051 -0.5932 0.5932 0.8051 -369.342 862.8879)" style="fill-rule:evenodd;clip-rule:evenodd;fill:#00A551;" width="22.826" height="10.135"/>
	<polygon style="fill-rule:evenodd;clip-rule:evenodd;fill:#00A551;" points="1139.218,979.05 1140.452,990.727 1134.441,982.567 	
		"/>
	<polygon style="fill-rule:evenodd;clip-rule:evenodd;fill:#ACCC46;" points="1111.287,999.626 1122.076,1004.267 1116.063,996.107 
			"/>
	
		<rect x="1126.081" y="948.822" transform="matrix(0.8051 -0.5931 0.5931 0.8051 -342.8803 865.7748)" style="fill-rule:evenodd;clip-rule:evenodd;fill:#99C23D;" width="39.918" height="11.677"/>
	
		<rect x="1128.263" y="955.461" transform="matrix(0.8051 -0.5931 0.5931 0.8051 -344.2154 867.7122)" style="fill-rule:evenodd;clip-rule:evenodd;fill:#00A551;" width="39.917" height="4.322"/>
	
		<rect x="1152.407" y="910.836" transform="matrix(0.8051 -0.5932 0.5932 0.8051 -316.433 868.9156)" style="fill-rule:evenodd;clip-rule:evenodd;fill:#C4D93D;" width="22.825" height="10.136"/>
	
		<rect x="1164.66" y="916.945" transform="matrix(0.8051 -0.5931 0.5931 0.8051 -323.9058 879.3114)" style="fill-rule:evenodd;clip-rule:evenodd;fill:#99C23D;" width="22.824" height="31.179"/>
	
		<rect x="1184.682" y="908.417" transform="matrix(0.8051 -0.5931 0.5931 0.8051 -316.5895 884.4468)" style="fill-rule:evenodd;clip-rule:evenodd;fill:#00A551;" width="5.932" height="31.179"/>
	<polygon style="fill-rule:evenodd;clip-rule:evenodd;fill:#00A551;" points="1180.79,909.695 1170.001,905.054 1176.014,913.214 	
		"/>
	
		<rect x="1161.529" y="925.474" transform="matrix(0.8051 -0.5931 0.5931 0.8051 -331.2191 874.0743)" style="fill-rule:evenodd;clip-rule:evenodd;fill:#ACCC46;" width="5.933" height="31.178"/>
	<polygon style="fill-rule:evenodd;clip-rule:evenodd;fill:#ACCC46;" points="1152.859,930.272 1151.625,918.594 1157.638,926.753 	
		"/>
	
		<rect x="1176.913" y="944.098" transform="matrix(0.8051 -0.5931 0.5931 0.8051 -331.3824 889.8202)" style="fill-rule:evenodd;clip-rule:evenodd;fill:#00A551;" width="22.823" height="10.136"/>
	<polygon style="fill-rule:evenodd;clip-rule:evenodd;fill:#00A551;" points="1199.282,934.799 1200.519,946.477 1194.506,938.317 	
		"/>
	<polygon style="fill-rule:evenodd;clip-rule:evenodd;fill:#ACCC46;" points="1171.354,955.373 1182.144,960.015 1176.131,951.854 	
		"/>
</g>
<path style="fill-rule:evenodd;clip-rule:evenodd;fill:#FFFFFF;" d="M916.946,712.11c6.085,0,11.047-4.96,11.047-11.045
	c0-6.085-4.962-11.048-11.047-11.048c-6.085,0-11.045,4.963-11.045,11.048C905.901,707.15,910.861,712.11,916.946,712.11z"/>
<path style="fill-rule:evenodd;clip-rule:evenodd;fill:#FFFFFF;" d="M928.988,725.284c3.041,0,5.523-2.482,5.523-5.524
	c0-3.041-2.482-5.523-5.523-5.523c-3.041,0-5.524,2.482-5.524,5.523C923.464,722.802,925.947,725.284,928.988,725.284z"/>
<g>
	<rect x="543.627" y="939.328" style="fill-rule:evenodd;clip-rule:evenodd;fill:#DA5AA0;" width="31.633" height="14.047"/>
	<rect x="543.627" y="953.375" style="fill-rule:evenodd;clip-rule:evenodd;fill:#EB008B;" width="31.633" height="43.216"/>
	<rect x="575.26" y="953.375" style="fill-rule:evenodd;clip-rule:evenodd;fill:#E73D8D;" width="8.225" height="43.216"/>
	<polygon style="fill-rule:evenodd;clip-rule:evenodd;fill:#E73D8D;" points="583.485,953.375 575.26,939.328 575.26,953.375 	"/>
	<rect x="535.404" y="953.375" style="fill-rule:evenodd;clip-rule:evenodd;fill:#DA2269;" width="8.223" height="43.216"/>
	<polygon style="fill-rule:evenodd;clip-rule:evenodd;fill:#DE2680;" points="535.404,953.375 543.627,939.328 543.627,953.375 	"/>
	<rect x="543.627" y="996.591" style="fill-rule:evenodd;clip-rule:evenodd;fill:#A44685;" width="31.633" height="14.048"/>
	<polygon style="fill-rule:evenodd;clip-rule:evenodd;fill:#DE2680;" points="583.485,996.591 575.26,1010.639 575.26,996.591 	"/>
	<polygon style="fill-rule:evenodd;clip-rule:evenodd;fill:#A44685;" points="535.404,996.591 543.627,1010.639 543.627,996.591 	
		"/>
	<rect x="440.22" y="939.328" style="fill-rule:evenodd;clip-rule:evenodd;fill:#DA5AA0;" width="31.636" height="14.047"/>
	<rect x="440.22" y="953.375" style="fill-rule:evenodd;clip-rule:evenodd;fill:#EB008B;" width="31.636" height="43.216"/>
	<rect x="471.855" y="953.375" style="fill-rule:evenodd;clip-rule:evenodd;fill:#E73D8D;" width="8.223" height="43.216"/>
	<polygon style="fill-rule:evenodd;clip-rule:evenodd;fill:#E73D8D;" points="480.078,953.375 471.855,939.328 471.855,953.375 	"/>
	<rect x="431.997" y="953.375" style="fill-rule:evenodd;clip-rule:evenodd;fill:#DA2269;" width="8.223" height="43.216"/>
	<polygon style="fill-rule:evenodd;clip-rule:evenodd;fill:#DE2680;" points="431.997,953.375 440.22,939.328 440.22,953.375 	"/>
	<rect x="440.22" y="996.591" style="fill-rule:evenodd;clip-rule:evenodd;fill:#A44685;" width="31.636" height="14.048"/>
	<polygon style="fill-rule:evenodd;clip-rule:evenodd;fill:#DE2680;" points="480.078,996.591 471.855,1010.639 471.855,996.591 	
		"/>
	<polygon style="fill-rule:evenodd;clip-rule:evenodd;fill:#A44685;" points="431.997,996.591 440.22,1010.639 440.22,996.591 	"/>
	<rect x="480.078" y="966.893" style="fill-rule:evenodd;clip-rule:evenodd;fill:#EB008B;" width="55.326" height="16.182"/>
	<rect x="480.078" y="977.088" style="fill-rule:evenodd;clip-rule:evenodd;fill:#A44685;" width="55.326" height="5.987"/>
	<g>
		
			<rect x="441.893" y="884.042" transform="matrix(0.8332 -0.553 0.553 0.8332 -416.3862 401.7279)" style="fill-rule:evenodd;clip-rule:evenodd;fill:#DA5AA0;" width="31.635" height="14.047"/>
		
			<rect x="457.725" y="893.314" transform="matrix(0.8332 -0.553 0.553 0.8332 -426.9367 414.4614)" style="fill-rule:evenodd;clip-rule:evenodd;fill:#EB008B;" width="31.635" height="43.215"/>
		
			<rect x="486.037" y="882.294" transform="matrix(0.8333 -0.5529 0.5529 0.8333 -418.0139 421.6927)" style="fill-rule:evenodd;clip-rule:evenodd;fill:#E73D8D;" width="8.222" height="43.215"/>
		<polygon style="fill-rule:evenodd;clip-rule:evenodd;fill:#E73D8D;" points="481.624,883.626 467.007,876.467 474.773,888.171 		
			"/>
		
			<rect x="452.826" y="904.334" transform="matrix(0.8332 -0.553 0.553 0.8332 -435.8329 407.1736)" style="fill-rule:evenodd;clip-rule:evenodd;fill:#DA2269;" width="8.223" height="43.215"/>
		<polygon style="fill-rule:evenodd;clip-rule:evenodd;fill:#DE2680;" points="441.564,910.212 440.648,893.96 448.415,905.665 		
			"/>
		
			<rect x="473.557" y="931.753" transform="matrix(0.8332 -0.553 0.553 0.8332 -437.4783 427.1787)" style="fill-rule:evenodd;clip-rule:evenodd;fill:#A44685;" width="31.635" height="14.046"/>
		<polygon style="fill-rule:evenodd;clip-rule:evenodd;fill:#DE2680;" points="505.522,919.632 506.438,935.882 498.671,924.178 		
			"/>
		<polygon style="fill-rule:evenodd;clip-rule:evenodd;fill:#A44685;" points="465.461,946.219 480.078,953.375 472.313,941.671 		
			"/>
		
			<rect x="355.734" y="941.224" transform="matrix(0.8332 -0.553 0.553 0.8332 -462.391 363.642)" style="fill-rule:evenodd;clip-rule:evenodd;fill:#DA5AA0;" width="31.636" height="14.048"/>
		
			<rect x="371.566" y="950.496" transform="matrix(0.8332 -0.553 0.553 0.8332 -472.9224 376.3483)" style="fill-rule:evenodd;clip-rule:evenodd;fill:#EB008B;" width="31.636" height="43.214"/>
		
			<rect x="399.877" y="939.475" transform="matrix(0.8332 -0.5529 0.5529 0.8332 -464.0417 383.6668)" style="fill-rule:evenodd;clip-rule:evenodd;fill:#E73D8D;" width="8.224" height="43.215"/>
		<polygon style="fill-rule:evenodd;clip-rule:evenodd;fill:#E73D8D;" points="395.466,940.805 380.847,933.648 388.616,945.352 		
			"/>
		
			<rect x="366.668" y="961.515" transform="matrix(0.8333 -0.5529 0.5529 0.8333 -481.7151 368.9068)" style="fill-rule:evenodd;clip-rule:evenodd;fill:#DA2269;" width="8.222" height="43.214"/>
		<polygon style="fill-rule:evenodd;clip-rule:evenodd;fill:#DE2680;" points="355.406,967.392 354.488,951.143 362.256,962.847 		
			"/>
		
			<rect x="387.398" y="988.934" transform="matrix(0.8332 -0.553 0.553 0.8332 -483.4781 389.0894)" style="fill-rule:evenodd;clip-rule:evenodd;fill:#A44685;" width="31.635" height="14.048"/>
		<polygon style="fill-rule:evenodd;clip-rule:evenodd;fill:#DE2680;" points="419.364,976.812 420.279,993.063 412.511,981.359 		
			"/>
		<polygon style="fill-rule:evenodd;clip-rule:evenodd;fill:#A44685;" points="379.3,1003.398 393.92,1010.557 386.152,998.852 		
			"/>
		
			<rect x="402.8" y="935.421" transform="matrix(0.8332 -0.553 0.553 0.8332 -449.9206 395.3902)" style="fill-rule:evenodd;clip-rule:evenodd;fill:#EB008B;" width="55.326" height="16.182"/>
		
			<rect x="405.62" y="944.766" transform="matrix(0.8332 -0.553 0.553 0.8332 -451.8078 397.6718)" style="fill-rule:evenodd;clip-rule:evenodd;fill:#A44685;" width="55.325" height="5.986"/>
	</g>
</g>
<g>
	<path style="fill:#9A94C8;" d="M459.399,384.08h0.002c9.873,0,18.854,4.041,25.355,10.542c6.501,6.501,10.543,15.481,10.543,25.355
		v239.928v2.911h-2.912h-2.911v-5.822v-85.911V419.978c0-8.265-3.388-15.789-8.838-21.238c-5.449-5.449-12.973-8.838-21.238-8.838
		h-0.002c-8.267,0-15.789,3.389-21.238,8.838h-0.012c-5.444,5.442-8.826,12.964-8.826,21.238v264.387v85.91v5.822h-2.911h-2.911
		v-2.91V419.978c0-9.862,4.043-18.842,10.549-25.348l-0.008-0.007C440.546,388.121,449.523,384.08,459.399,384.08z"/>
	<path style="fill-rule:evenodd;clip-rule:evenodd;fill:#F7CC2E;" d="M488.219,644.459h9.318c2.594,0,4.713,2.119,4.713,4.713v17.78
		h-18.744v-17.78C483.506,646.578,485.625,644.459,488.219,644.459z"/>
	<rect x="483.506" y="666.952" style="fill-rule:evenodd;clip-rule:evenodd;fill:#DFAA14;" width="18.744" height="3.611"/>
	<path style="fill-rule:evenodd;clip-rule:evenodd;fill:#DFAA14;" d="M489.232,740.602h7.291c2.029,0,3.687-1.658,3.687-3.689
		v-66.348h-14.664v66.348C485.546,738.941,487.204,740.602,489.232,740.602z"/>
	<path style="fill-rule:evenodd;clip-rule:evenodd;fill:#F7CC2E;" d="M489.232,740.602h2.897h0.095
		c1.984-0.052,3.593-1.691,3.593-3.689v-66.348h-10.272v66.348C485.546,738.941,487.204,740.602,489.232,740.602z"/>
	<g>
		<path style="fill-rule:evenodd;clip-rule:evenodd;fill:#F7CC2E;" d="M421.879,732.943h9.317c2.595,0,4.714,2.119,4.714,4.713
			v17.78h-18.745v-17.78C417.165,735.063,419.285,732.943,421.879,732.943z"/>
		<rect x="417.165" y="755.437" style="fill-rule:evenodd;clip-rule:evenodd;fill:#DFAA14;" width="18.745" height="3.612"/>
		<path style="fill-rule:evenodd;clip-rule:evenodd;fill:#DFAA14;" d="M422.892,829.087h7.291c2.028,0,3.686-1.658,3.686-3.69
			V759.05h-14.663v66.348C419.206,827.426,420.864,829.087,422.892,829.087z"/>
		<path style="fill-rule:evenodd;clip-rule:evenodd;fill:#F7CC2E;" d="M422.892,829.087h2.896h0.095
			c1.985-0.052,3.594-1.691,3.594-3.69V759.05h-10.271v66.348C419.206,827.426,420.864,829.087,422.892,829.087z"/>
	</g>
</g>
<g>
	<path style="fill:#9A94C8;" d="M576.122,224.774h0.001c9.874,0,18.854,4.041,25.355,10.542
		c6.502,6.501,10.542,15.481,10.542,25.354v473.1v2.912h-2.911H606.2v-5.822V571.083V260.671c0-8.265-3.389-15.788-8.838-21.237
		c-5.449-5.45-12.973-8.838-21.238-8.838h-0.001c-8.267,0-15.789,3.388-21.238,8.838h-0.012c-5.444,5.442-8.826,12.964-8.826,21.237
		v423.693v85.91v5.822h-2.911h-2.911v-2.91V260.671c0-9.861,4.042-18.841,10.548-25.348l-0.007-0.006
		C557.268,228.815,566.246,224.774,576.122,224.774z"/>
	<path style="fill-rule:evenodd;clip-rule:evenodd;fill:#56C4CF;" d="M604.942,707.665h9.318c2.593,0,4.713,2.119,4.713,4.713v17.78
		h-18.744v-17.78C600.229,709.784,602.348,707.665,604.942,707.665z"/>
	<rect x="600.229" y="730.158" style="fill-rule:evenodd;clip-rule:evenodd;fill:#47A4AD;" width="18.744" height="3.611"/>
	<path style="fill-rule:evenodd;clip-rule:evenodd;fill:#47A4AD;" d="M605.955,803.808h7.291c2.028,0,3.687-1.658,3.687-3.688
		v-66.349h-14.664v66.349C602.268,802.147,603.927,803.808,605.955,803.808z"/>
	<path style="fill-rule:evenodd;clip-rule:evenodd;fill:#56C4CF;" d="M605.955,803.808h2.898h0.095
		c1.984-0.052,3.593-1.691,3.593-3.688v-66.349h-10.273v66.349C602.268,802.147,603.927,803.808,605.955,803.808z"/>
	<path style="fill-rule:evenodd;clip-rule:evenodd;fill:#56C4CF;" d="M538.602,732.943h9.317c2.594,0,4.714,2.119,4.714,4.713v17.78
		h-18.745v-17.78C533.888,735.063,536.007,732.943,538.602,732.943z"/>
	<rect x="533.888" y="755.437" style="fill-rule:evenodd;clip-rule:evenodd;fill:#47A4AD;" width="18.745" height="3.612"/>
	<path style="fill-rule:evenodd;clip-rule:evenodd;fill:#47A4AD;" d="M539.614,829.087h7.291c2.029,0,3.686-1.658,3.686-3.69V759.05
		h-14.663v66.348C535.929,827.426,537.586,829.087,539.614,829.087z"/>
	<path style="fill-rule:evenodd;clip-rule:evenodd;fill:#56C4CF;" d="M539.614,829.087h2.897h0.095
		c1.984-0.052,3.593-1.691,3.593-3.69V759.05h-10.271v66.348C535.929,827.426,537.586,829.087,539.614,829.087z"/>
</g>
<g>
	<path style="fill-rule:evenodd;clip-rule:evenodd;fill:#231F20;" d="M1375.783,871.455h50.952c15.998,0,29.086,13.09,29.086,29.087
		v94.445c0,4.741-3.882,8.625-8.625,8.625h-91.873c-4.741,0-8.625-3.882-8.625-8.625v-94.445
		C1346.698,884.543,1359.784,871.455,1375.783,871.455z"/>
	<path style="fill-rule:evenodd;clip-rule:evenodd;fill:#404041;" d="M1375.783,871.455h12.89c15.998,0,29.086,13.09,29.086,29.087
		v103.07h-62.436c-4.741,0-8.625-3.882-8.625-8.623v-94.447C1346.698,884.543,1359.784,871.455,1375.783,871.455z"/>
	<rect x="1375.783" y="861.702" style="fill-rule:evenodd;clip-rule:evenodd;fill:#404041;" width="49.712" height="9.753"/>
	<rect x="1393.477" y="861.702" style="fill-rule:evenodd;clip-rule:evenodd;fill:#231F20;" width="32.019" height="9.753"/>
	<rect x="1370.231" y="851.405" style="fill-rule:evenodd;clip-rule:evenodd;fill:#404041;" width="60.813" height="10.296"/>
	<rect x="1391.877" y="851.405" style="fill-rule:evenodd;clip-rule:evenodd;fill:#231F20;" width="39.167" height="10.296"/>
	<rect x="1346.698" y="913.597" style="fill-rule:evenodd;clip-rule:evenodd;fill:#D9251E;" width="109.123" height="71.528"/>
	<rect x="1434.477" y="913.591" style="fill-rule:evenodd;clip-rule:evenodd;fill:#AB2929;" width="21.345" height="71.534"/>
	<path style="fill-rule:evenodd;clip-rule:evenodd;fill:#E6E7E8;" d="M1375.322,913.597h29.396l-16.062,71.528h-29.396
		L1375.322,913.597L1375.322,913.597z M1409.974,913.597l-16.059,71.528h3.672l16.062-71.528H1409.974z"/>
	<path style="fill-rule:evenodd;clip-rule:evenodd;fill:#58595B;" d="M1368.261,901.814c4.684,0,8.506-3.821,8.506-8.504
		c0-4.683-3.822-8.504-8.506-8.504c-4.683,0-8.504,3.821-8.504,8.504C1359.757,897.993,1363.578,901.814,1368.261,901.814z"/>
	<rect x="1408.472" y="961.451" style="fill-rule:evenodd;clip-rule:evenodd;fill:#E6E7E8;" width="20.855" height="11.664"/>
</g>
<g>
	<path style="fill-rule:evenodd;clip-rule:evenodd;fill:#231F20;" d="M707.485,755.557h54.197c17.015,0,30.937,13.925,30.937,30.939
		v100.46c0,5.042-4.129,9.173-9.175,9.173H685.72c-5.042,0-9.172-4.129-9.172-9.173v-100.46
		C676.548,769.479,690.469,755.557,707.485,755.557z"/>
	<path style="fill-rule:evenodd;clip-rule:evenodd;fill:#404041;" d="M707.485,755.557h13.708c17.017,0,30.938,13.925,30.938,30.939
		v109.633h-66.409c-5.044,0-9.175-4.129-9.175-9.173v-100.46C676.548,769.479,690.469,755.557,707.485,755.557z"/>
	<rect x="707.487" y="745.185" style="fill-rule:evenodd;clip-rule:evenodd;fill:#404041;" width="52.875" height="10.371"/>
	<rect x="726.308" y="745.185" style="fill-rule:evenodd;clip-rule:evenodd;fill:#231F20;" width="34.055" height="10.371"/>
	<rect x="701.584" y="734.233" style="fill-rule:evenodd;clip-rule:evenodd;fill:#E1E32E;" width="64.682" height="10.947"/>
	<rect x="724.606" y="734.233" style="fill-rule:evenodd;clip-rule:evenodd;fill:#99C23D;" width="41.661" height="10.947"/>
	<rect x="676.548" y="800.381" style="fill-rule:evenodd;clip-rule:evenodd;fill:#231F20;" width="116.07" height="76.083"/>
	<path style="fill-rule:evenodd;clip-rule:evenodd;fill:#FFFFFF;" d="M713.579,800.381h8.954l-17.081,76.083h-8.954L713.579,800.381
		L713.579,800.381z M728.124,800.381l-17.081,76.083h3.908l17.081-76.083H728.124z"/>
	<path style="fill-rule:evenodd;clip-rule:evenodd;fill:#58595B;" d="M699.486,787.85c4.983,0,9.045-4.064,9.045-9.044
		c0-4.982-4.062-9.045-9.045-9.045c-4.983,0-9.047,4.063-9.047,9.045C690.438,783.786,694.502,787.85,699.486,787.85z"/>
	<path style="fill-rule:evenodd;clip-rule:evenodd;fill:#E1E32E;" d="M792.618,810.334v11.602l-19.979-4.642l-2.621,11.287
		l22.6,5.249v11.604l-25.157-5.845l-2.664,11.473l27.822,6.463v11.599l-41.358-9.607c-1.011-0.232-1.79-0.793-2.354-1.678
		c-0.566-0.876-0.717-1.847-0.471-2.909l11.253-48.439c0.233-1.011,0.789-1.776,1.682-2.31c0.894-0.533,1.837-0.679,2.848-0.445
		L792.618,810.334z"/>
	<path style="fill-rule:evenodd;clip-rule:evenodd;fill:#C4D93D;" d="M750.748,835.032l-6.635-1.542l-1.053,4.537l6.667,1.548
		l-0.994,4.43l-6.7-1.558l-1.071,4.607l6.734,1.565l-0.995,4.43l-11.178-2.598c-0.405-0.093-0.719-0.318-0.948-0.673
		c-0.226-0.352-0.286-0.742-0.188-1.169l4.52-19.461c0.096-0.404,0.319-0.713,0.678-0.927c0.358-0.214,0.738-0.273,1.143-0.18
		l11.012,2.56L750.748,835.032z"/>
</g>
<g>
	<g>
		<path style="fill-rule:evenodd;clip-rule:evenodd;fill:#DF6D2A;" d="M1329.575,912.376h27.52c8.643,0,15.71,7.069,15.71,15.709
			v70.868c0,2.563-2.096,4.659-4.657,4.659h-49.623c-2.563,0-4.659-2.096-4.659-4.659v-70.868
			C1313.865,919.445,1320.935,912.376,1329.575,912.376z"/>
		<path style="fill-rule:evenodd;clip-rule:evenodd;fill:#F48120;" d="M1329.575,912.376h6.962c8.64,0,15.71,7.069,15.71,15.709
			v75.527h-33.723c-2.563,0-4.659-2.096-4.659-4.659v-70.868C1313.865,919.445,1320.935,912.376,1329.575,912.376z"/>
		<rect x="1329.575" y="907.108" style="fill-rule:evenodd;clip-rule:evenodd;fill:#F48120;" width="26.85" height="5.267"/>
		<rect x="1339.132" y="907.108" style="fill-rule:evenodd;clip-rule:evenodd;fill:#DF6D2A;" width="17.293" height="5.267"/>
		<rect x="1326.833" y="895.046" style="fill-rule:evenodd;clip-rule:evenodd;fill:#404041;" width="32.332" height="12.059"/>
		<rect x="1338.342" y="895.046" style="fill-rule:evenodd;clip-rule:evenodd;fill:#231F20;" width="20.823" height="12.059"/>
		<rect x="1313.865" y="943.482" style="fill-rule:evenodd;clip-rule:evenodd;fill:#E1E32E;" width="58.939" height="27.532"/>
		<rect x="1313.865" y="960.163" style="fill-rule:evenodd;clip-rule:evenodd;fill:#D5D92F;" width="58.939" height="7.035"/>
		<path style="fill-rule:evenodd;clip-rule:evenodd;fill:#EEE955;" d="M1335.757,943.484h9.445l-8.674,27.533h-9.446
			L1335.757,943.484L1335.757,943.484z M1348.041,943.484l-8.675,27.533h1.984l8.674-27.533H1348.041z"/>
		<path style="fill-rule:evenodd;clip-rule:evenodd;fill:#F4C733;" d="M1325.511,928.772c2.528,0,4.595-2.064,4.595-4.593
			c0-2.528-2.066-4.595-4.595-4.595s-4.592,2.066-4.592,4.595C1320.919,926.708,1322.982,928.772,1325.511,928.772z"/>
	</g>
	<path style="fill-rule:evenodd;clip-rule:evenodd;fill:#FFFFFF;" d="M1331.468,949.912h23.734c1.516,0,2.752,1.236,2.752,2.753
		v8.113c0,1.516-1.236,2.752-2.752,2.752h-23.734c-1.516,0-2.752-1.236-2.752-2.752v-8.113
		C1328.716,951.148,1329.952,949.912,1331.468,949.912z"/>
</g>
<rect x="720.786" y="285.848" style="fill-rule:evenodd;clip-rule:evenodd;fill:#8DD7F7;" width="6.341" height="305.803"/>
<path style="fill:#8DD7F7;" d="M689.463,230.731h68.988c3.008,0,6.313,0.988,9.133,2.583c1.997,1.132,3.794,2.604,5.119,4.275
	c1.5,1.898,2.413,4.064,2.413,6.349c0,1.451-0.368,2.916-1.183,4.357l-18.32,32.347c-0.233,0.411-0.513,0.935-0.79,1.459
	c-2.033,3.836-3.917,7.386-9.254,7.386h-43.223c-5.331,0-7.22-3.544-9.25-7.377l-0.005,0.003c-0.328-0.62-0.684-1.287-0.789-1.471
	l-18.32-32.347c-0.815-1.441-1.183-2.908-1.183-4.359c0-2.285,0.913-4.45,2.414-6.346c1.323-1.674,3.124-3.146,5.119-4.275
	C683.152,231.719,686.454,230.731,689.463,230.731L689.463,230.731z M758.451,237.39h-68.988c-1.88,0-4.001,0.65-5.855,1.7
	c-1.297,0.733-2.424,1.632-3.195,2.608c-0.594,0.752-0.957,1.524-0.957,2.238c0,0.354,0.094,0.717,0.298,1.083l18.32,32.346
	c0.477,0.843,0.678,1.223,0.892,1.628v0.014c1.053,1.984,2.031,3.824,3.379,3.824h43.223c1.351,0,2.327-1.839,3.377-3.824
	c0.268-0.503,0.545-1.025,0.894-1.642l18.321-32.346c0.207-0.366,0.3-0.729,0.3-1.08c0-0.713-0.363-1.489-0.957-2.238
	c-0.773-0.976-1.9-1.877-3.195-2.611C762.455,238.04,760.331,237.39,758.451,237.39z"/>
<rect x="690.181" y="227.613" style="fill-rule:evenodd;clip-rule:evenodd;fill:#FDD23B;" width="67.16" height="16.169"/>
<path style="fill-rule:evenodd;clip-rule:evenodd;fill:#EEB427;" d="M685.013,223.813h2.947c1.621,0,2.946,1.325,2.946,2.946v17.684
	c0,1.621-1.325,2.946-2.946,2.946h-2.947V223.813z"/>
<path style="fill-rule:evenodd;clip-rule:evenodd;fill:#FDD23B;" d="M685.013,223.813h2.947c1.621,0,2.946,1.325,2.946,2.946v12.528
	c0,1.624-1.325,2.946-2.946,2.946h-2.947V223.813z"/>
<path style="fill-rule:evenodd;clip-rule:evenodd;fill:#EEB427;" d="M763.232,223.813h-2.948c-1.621,0-2.946,1.325-2.946,2.946
	v17.684c0,1.621,1.325,2.946,2.946,2.946h2.948V223.813z"/>
<path style="fill-rule:evenodd;clip-rule:evenodd;fill:#FDD23B;" d="M763.232,223.813h-2.948c-1.621,0-2.946,1.325-2.946,2.946
	v12.528c0,1.624,1.325,2.946,2.946,2.946h2.948V223.813z"/>
<path style="fill-rule:evenodd;clip-rule:evenodd;fill:#231F20;" d="M683.539,223.813h1.475v23.576h-1.475
	c-0.81,0-1.474-0.662-1.474-1.472v-20.63C682.064,224.477,682.729,223.813,683.539,223.813z"/>
<path style="fill-rule:evenodd;clip-rule:evenodd;fill:#231F20;" d="M764.706,223.813h-1.474v23.576h1.474
	c0.813,0,1.474-0.662,1.474-1.472v-20.63C766.18,224.477,765.518,223.813,764.706,223.813z"/>
<rect x="690.907" y="237.459" style="fill-rule:evenodd;clip-rule:evenodd;fill:#EEB427;" width="66.434" height="6.322"/>
<path style="fill-rule:evenodd;clip-rule:evenodd;fill:#FDD23B;" d="M710.473,278.631h7.431v4.199c0,1.66,1.355,3.018,3.016,3.018
	h6.076c1.66,0,3.018-1.358,3.018-3.018v-4.199h7.432v14.92h-26.972V278.631z"/>
<rect x="710.475" y="287.589" style="fill-rule:evenodd;clip-rule:evenodd;fill:#EEB427;" width="26.971" height="5.962"/>
<path style="fill:#8DD7F7;" d="M689.463,648.507h68.988c3.008,0,6.313-0.988,9.133-2.583c1.997-1.133,3.794-2.604,5.119-4.275
	c1.5-1.898,2.413-4.064,2.413-6.349c0-1.451-0.368-2.916-1.183-4.357l-18.32-32.346c-0.233-0.412-0.513-0.937-0.79-1.46
	c-2.033-3.835-3.917-7.386-9.254-7.386h-43.223c-5.331,0-7.22,3.544-9.25,7.377l-0.005-0.002c-0.328,0.62-0.684,1.288-0.789,1.472
	l-18.32,32.346c-0.815,1.44-1.183,2.908-1.183,4.358c0,2.285,0.913,4.45,2.414,6.347c1.323,1.674,3.124,3.146,5.119,4.275
	C683.152,647.518,686.454,648.507,689.463,648.507L689.463,648.507z M758.451,641.848h-68.988c-1.88,0-4.001-0.648-5.855-1.699
	c-1.297-0.733-2.424-1.633-3.195-2.608c-0.594-0.752-0.957-1.524-0.957-2.238c0-0.354,0.094-0.717,0.298-1.082l18.32-32.346
	c0.477-0.843,0.678-1.223,0.892-1.628v-0.014c1.053-1.985,2.031-3.824,3.379-3.824h43.223c1.351,0,2.327,1.839,3.377,3.824
	c0.268,0.503,0.545,1.025,0.894,1.642l18.321,32.346c0.207,0.365,0.3,0.728,0.3,1.08c0,0.713-0.363,1.488-0.957,2.238
	c-0.773,0.976-1.9,1.877-3.195,2.61C762.455,641.199,760.331,641.848,758.451,641.848z"/>
<rect x="690.181" y="635.454" style="fill-rule:evenodd;clip-rule:evenodd;fill:#F7CC2E;" width="67.16" height="16.167"/>
<path style="fill-rule:evenodd;clip-rule:evenodd;fill:#DFAA14;" d="M685.013,655.425h2.947c1.621,0,2.946-1.325,2.946-2.945
	v-17.685c0-1.62-1.325-2.945-2.946-2.945h-2.947V655.425z"/>
<path style="fill-rule:evenodd;clip-rule:evenodd;fill:#F7CC2E;" d="M685.013,655.425h2.947c1.621,0,2.946-1.325,2.946-2.945V639.95
	c0-1.623-1.325-2.946-2.946-2.946h-2.947V655.425z"/>
<path style="fill-rule:evenodd;clip-rule:evenodd;fill:#EEB427;" d="M763.232,655.425h-2.948c-1.621,0-2.946-1.325-2.946-2.945
	v-17.685c0-1.62,1.325-2.945,2.946-2.945h2.948V655.425z"/>
<path style="fill-rule:evenodd;clip-rule:evenodd;fill:#FDD23B;" d="M763.232,655.425h-2.948c-1.621,0-2.946-1.325-2.946-2.945
	V639.95c0-1.623,1.325-2.946,2.946-2.946h2.948V655.425z"/>
<path style="fill-rule:evenodd;clip-rule:evenodd;fill:#231F20;" d="M683.539,655.425h1.475v-23.576h-1.475
	c-0.81,0-1.474,0.662-1.474,1.472v20.63C682.064,654.762,682.729,655.425,683.539,655.425z"/>
<path style="fill-rule:evenodd;clip-rule:evenodd;fill:#231F20;" d="M764.706,655.425h-1.474v-23.576h1.474
	c0.813,0,1.474,0.662,1.474,1.472v20.63C766.18,654.762,765.518,655.425,764.706,655.425z"/>
<rect x="690.907" y="635.454" style="fill-rule:evenodd;clip-rule:evenodd;fill:#DFAA14;" width="66.431" height="6.322"/>
<path style="fill-rule:evenodd;clip-rule:evenodd;fill:#F7CC2E;" d="M710.473,600.607h7.431v-4.199c0-1.661,1.355-3.019,3.016-3.019
	h6.076c1.66,0,3.018,1.358,3.018,3.019v4.199h7.432v-14.92h-26.972V600.607z"/>
<rect x="710.475" y="585.687" style="fill-rule:evenodd;clip-rule:evenodd;fill:#DFAA14;" width="26.971" height="5.961"/>
<path style="fill:#231F20;" d="M813.721,230.731h68.989c3.008,0,6.313,0.988,9.133,2.583c1.996,1.132,3.793,2.604,5.118,4.275
	c1.5,1.898,2.413,4.064,2.413,6.349c0,1.451-0.368,2.916-1.183,4.357l-18.321,32.347c-0.232,0.411-0.512,0.935-0.789,1.459
	c-2.032,3.836-3.916,7.386-9.254,7.386h-43.224c-5.331,0-7.22-3.544-9.249-7.377l-0.005,0.003c-0.329-0.62-0.686-1.287-0.79-1.471
	l-18.32-32.347c-0.815-1.441-1.183-2.908-1.183-4.359c0-2.285,0.913-4.45,2.415-6.346c1.322-1.674,3.123-3.146,5.118-4.275
	C807.41,231.719,810.712,230.731,813.721,230.731L813.721,230.731z M882.71,237.39h-68.989c-1.879,0-4,0.65-5.854,1.7
	c-1.297,0.733-2.424,1.632-3.194,2.608c-0.594,0.752-0.957,1.524-0.957,2.238c0,0.354,0.093,0.717,0.298,1.083l18.32,32.346
	c0.477,0.843,0.678,1.223,0.892,1.628v0.014c1.053,1.984,2.03,3.824,3.379,3.824h43.224c1.351,0,2.326-1.839,3.377-3.824
	c0.268-0.503,0.544-1.025,0.893-1.642l18.319-32.346c0.208-0.366,0.301-0.729,0.301-1.08c0-0.713-0.363-1.489-0.957-2.238
	c-0.772-0.976-1.9-1.877-3.194-2.611C886.713,238.04,884.588,237.39,882.71,237.39z"/>
<rect x="814.437" y="227.613" style="fill-rule:evenodd;clip-rule:evenodd;fill:#C4D93D;" width="67.16" height="16.169"/>
<path style="fill-rule:evenodd;clip-rule:evenodd;fill:#99C23D;" d="M809.271,223.813h2.948c1.621,0,2.946,1.325,2.946,2.946v17.684
	c0,1.621-1.325,2.946-2.946,2.946h-2.948V223.813z"/>
<path style="fill-rule:evenodd;clip-rule:evenodd;fill:#C4D93D;" d="M809.271,223.813h2.948c1.621,0,2.946,1.325,2.946,2.946v12.528
	c0,1.624-1.325,2.946-2.946,2.946h-2.948V223.813z"/>
<path style="fill-rule:evenodd;clip-rule:evenodd;fill:#99C23D;" d="M887.49,223.813h-2.948c-1.62,0-2.945,1.325-2.945,2.946v17.684
	c0,1.621,1.325,2.946,2.945,2.946h2.948V223.813z"/>
<path style="fill-rule:evenodd;clip-rule:evenodd;fill:#C4D93D;" d="M887.49,223.813h-2.948c-1.62,0-2.945,1.325-2.945,2.946v12.528
	c0,1.624,1.325,2.946,2.945,2.946h2.948V223.813z"/>
<path style="fill-rule:evenodd;clip-rule:evenodd;fill:#231F20;" d="M807.797,223.813h1.474v23.576h-1.474
	c-0.811,0-1.474-0.662-1.474-1.472v-20.63C806.323,224.477,806.986,223.813,807.797,223.813z"/>
<path style="fill-rule:evenodd;clip-rule:evenodd;fill:#231F20;" d="M888.965,223.813h-1.475v23.576h1.475
	c0.813,0,1.474-0.662,1.474-1.472v-20.63C890.438,224.477,889.777,223.813,888.965,223.813z"/>
<rect x="815.162" y="237.459" style="fill-rule:evenodd;clip-rule:evenodd;fill:#99C23D;" width="66.435" height="6.322"/>
<path style="fill-rule:evenodd;clip-rule:evenodd;fill:#C4D93D;" d="M834.731,278.631h7.431v4.199c0,1.66,1.355,3.018,3.016,3.018
	h6.075c1.661,0,3.018-1.358,3.018-3.018v-4.199h7.432v14.92h-26.971V278.631z"/>
<rect x="834.731" y="287.589" style="fill-rule:evenodd;clip-rule:evenodd;fill:#99C23D;" width="26.971" height="5.962"/>
<path style="fill:#231F20;" d="M813.721,648.507h68.989c3.008,0,6.313-0.988,9.133-2.583c1.996-1.133,3.793-2.604,5.118-4.275
	c1.5-1.898,2.413-4.064,2.413-6.349c0-1.451-0.368-2.916-1.183-4.357l-18.321-32.346c-0.232-0.412-0.512-0.937-0.789-1.46
	c-2.032-3.835-3.916-7.386-9.254-7.386h-43.224c-5.331,0-7.22,3.544-9.249,7.377l-0.005-0.002c-0.329,0.62-0.686,1.288-0.79,1.472
	l-18.32,32.346c-0.815,1.44-1.183,2.908-1.183,4.358c0,2.285,0.913,4.45,2.415,6.347c1.322,1.674,3.123,3.146,5.118,4.275
	C807.41,647.518,810.712,648.507,813.721,648.507L813.721,648.507z M882.71,641.848h-68.989c-1.879,0-4-0.648-5.854-1.699
	c-1.297-0.733-2.424-1.633-3.194-2.608c-0.594-0.752-0.957-1.524-0.957-2.238c0-0.354,0.093-0.717,0.298-1.082l18.32-32.346
	c0.477-0.843,0.678-1.223,0.892-1.628v-0.014c1.053-1.985,2.03-3.824,3.379-3.824h43.224c1.351,0,2.326,1.839,3.377,3.824
	c0.268,0.503,0.544,1.025,0.893,1.642l18.319,32.346c0.208,0.365,0.301,0.728,0.301,1.08c0,0.713-0.363,1.488-0.957,2.238
	c-0.772,0.976-1.9,1.877-3.194,2.61C886.713,641.199,884.588,641.848,882.71,641.848z"/>
<rect x="814.437" y="635.454" style="fill-rule:evenodd;clip-rule:evenodd;fill:#C4D93D;" width="67.16" height="16.167"/>
<path style="fill-rule:evenodd;clip-rule:evenodd;fill:#99C23D;" d="M809.271,655.425h2.948c1.621,0,2.946-1.325,2.946-2.945
	v-17.685c0-1.62-1.325-2.945-2.946-2.945h-2.948V655.425z"/>
<path style="fill-rule:evenodd;clip-rule:evenodd;fill:#C4D93D;" d="M809.271,655.425h2.948c1.621,0,2.946-1.325,2.946-2.945V639.95
	c0-1.623-1.325-2.946-2.946-2.946h-2.948V655.425z"/>
<path style="fill-rule:evenodd;clip-rule:evenodd;fill:#99C23D;" d="M887.49,655.425h-2.948c-1.62,0-2.945-1.325-2.945-2.945
	v-17.685c0-1.62,1.325-2.945,2.945-2.945h2.948V655.425z"/>
<path style="fill-rule:evenodd;clip-rule:evenodd;fill:#C4D93D;" d="M887.49,655.425h-2.948c-1.62,0-2.945-1.325-2.945-2.945V639.95
	c0-1.623,1.325-2.946,2.945-2.946h2.948V655.425z"/>
<path style="fill-rule:evenodd;clip-rule:evenodd;fill:#231F20;" d="M807.797,655.425h1.474v-23.576h-1.474
	c-0.811,0-1.474,0.662-1.474,1.472v20.63C806.323,654.762,806.986,655.425,807.797,655.425z"/>
<path style="fill-rule:evenodd;clip-rule:evenodd;fill:#231F20;" d="M888.965,655.425h-1.475v-23.576h1.475
	c0.813,0,1.474,0.662,1.474,1.472v20.63C890.438,654.762,889.777,655.425,888.965,655.425z"/>
<rect x="815.165" y="635.454" style="fill-rule:evenodd;clip-rule:evenodd;fill:#99C23D;" width="66.432" height="6.322"/>
<path style="fill-rule:evenodd;clip-rule:evenodd;fill:#C4D93D;" d="M834.731,600.607h7.431v-4.199c0-1.661,1.355-3.019,3.016-3.019
	h6.075c1.661,0,3.018,1.358,3.018,3.019v4.199h7.432v-14.92h-26.971V600.607z"/>
<rect x="834.731" y="585.687" style="fill-rule:evenodd;clip-rule:evenodd;fill:#99C23D;" width="26.971" height="5.961"/>
<path style="fill-rule:evenodd;clip-rule:evenodd;fill:#C4D93D;" d="M837.099,515.986h22.232c1.46,0,2.653,1.192,2.653,2.652v5.711
	c0,1.46-1.193,2.652-2.653,2.652h-22.232c-1.46,0-2.652-1.192-2.652-2.652v-5.711C834.446,517.178,835.639,515.986,837.099,515.986z
	"/>
<g>
	<rect x="1335.117" y="499.847" style="fill-rule:evenodd;clip-rule:evenodd;fill:#007CC3;" width="54.136" height="26.42"/>
	<path style="fill-rule:evenodd;clip-rule:evenodd;fill:#01589C;" d="M1335.117,526.267h54.136v8.866
		c0,2.392-2.121,4.345-4.719,4.345h-44.699c-2.597,0-4.718-1.954-4.718-4.345V526.267z"/>
	<rect x="1335.117" y="499.847" style="fill-rule:evenodd;clip-rule:evenodd;fill:#00ADEE;" width="27.068" height="26.42"/>
	<path style="fill-rule:evenodd;clip-rule:evenodd;fill:#007CC3;" d="M1338.599,383.237h47.172c12.147,0,22.081,9.934,22.081,22.081
		v38.139v38.14v0.678c0,12.147-9.934,22.081-22.081,22.081h-47.172c-12.147,0-22.081-9.936-22.081-22.081v-0.678v-38.14v-38.139
		C1316.518,393.171,1326.451,383.237,1338.599,383.237z"/>
	<path style="fill-rule:evenodd;clip-rule:evenodd;fill:#00ADEE;" d="M1407.852,462.872v18.725v0.678
		c0,12.147-9.934,22.081-22.081,22.081h-0.807v-52.928h11.445C1402.703,451.428,1407.852,456.578,1407.852,462.872z"/>
	<path style="fill-rule:evenodd;clip-rule:evenodd;fill:#0093DD;" d="M1338.599,383.237h47.172c12.147,0,22.081,9.934,22.081,22.081
		v5.018c0,12.147-9.934,22.081-22.081,22.081h-47.172c-12.147,0-22.081-9.934-22.081-22.081v-5.018
		C1316.518,393.171,1326.451,383.237,1338.599,383.237z"/>
	<path style="fill-rule:evenodd;clip-rule:evenodd;fill:#006DB3;" d="M1353.196,504.356h18.024v-30.07
		c0-4.958-4.054-9.013-9.012-9.013l0,0c-4.958,0-9.013,4.055-9.013,9.013V504.356z"/>
	<path style="fill-rule:evenodd;clip-rule:evenodd;fill:#0094D9;" d="M1351.921,492.624l8.076-4.662l-8.076-4.664l0.587-1.013
		l-0.587-1.015l8.076-4.662l-8.076-4.665l1.173-2.028l9.248,5.337l9.245-5.337l1.174,2.031l-8.074,4.66l8.076,4.662l-0.589,1.02
		l0.587,1.013l-8.074,4.661l8.076,4.662l-1.174,2.032l-9.247-5.34l-9.249,5.34L1351.921,492.624L1351.921,492.624z
		 M1354.853,482.285l7.489,4.322l7.486-4.322l-7.486-4.324L1354.853,482.285z"/>
</g>
<g>
	<rect x="1333.771" y="691.422" style="fill-rule:evenodd;clip-rule:evenodd;fill:#007CC3;" width="54.136" height="26.419"/>
	<path style="fill-rule:evenodd;clip-rule:evenodd;fill:#01589C;" d="M1387.904,717.841h-54.136v8.866
		c0,2.392,2.121,4.345,4.718,4.345h44.7c2.596,0,4.718-1.953,4.718-4.345V717.841z"/>
	<rect x="1360.835" y="691.422" style="fill-rule:evenodd;clip-rule:evenodd;fill:#0093DD;" width="27.069" height="26.419"/>
	<path style="fill-rule:evenodd;clip-rule:evenodd;fill:#D0D2D3;" d="M1372.39,700.154h-24.916c-1.646,0-2.99,1.345-2.99,2.99v7.726
		c0,1.646,1.344,2.989,2.99,2.989h24.916c1.646,0,2.991-1.344,2.991-2.989v-7.726
		C1375.381,701.499,1374.036,700.154,1372.39,700.154z"/>
	<path style="fill-rule:evenodd;clip-rule:evenodd;fill:#007CC3;" d="M1385.771,572.52h-47.172
		c-12.147,0-22.081,9.935-22.081,22.081v2.206v74.074v2.204c0,12.148,9.934,22.082,22.081,22.082h47.172
		c12.147,0,22.081-9.934,22.081-22.082v-2.204v-74.074v-2.206C1407.852,582.455,1397.918,572.52,1385.771,572.52z"/>
	<path style="fill-rule:evenodd;clip-rule:evenodd;fill:#0093DD;" d="M1385.771,572.52h-47.172
		c-12.147,0-22.081,9.935-22.081,22.081v2.206v32.518v2.205c0,12.148,9.934,22.081,22.081,22.081h47.172
		c12.147,0,22.081-9.934,22.081-22.081v-2.205v-32.518v-2.206C1407.852,582.455,1397.918,572.52,1385.771,572.52z"/>
</g>
<path style="fill-rule:evenodd;clip-rule:evenodd;fill:#0094D9;" d="M1306.574,670.881h9.943v-47.928h-9.943
	c-5.469,0-9.941,4.474-9.941,9.941v28.045C1296.633,666.407,1301.105,670.881,1306.574,670.881z"/>
<g>
	<path style="fill-rule:evenodd;clip-rule:evenodd;fill:#4D4948;" d="M251.61,458.972L251.61,458.972
		c-5.318,0-9.671,4.353-9.671,9.671v73.497c0,5.319,4.353,9.672,9.671,9.672l0,0c5.318,0,9.669-4.353,9.669-9.672v-73.497
		C261.278,463.324,256.928,458.972,251.61,458.972z"/>
	<path style="fill-rule:evenodd;clip-rule:evenodd;fill:#231F20;" d="M251.61,458.972c-5.318,0-9.671,4.353-9.671,9.671v73.497
		c0,5.319,4.353,9.672,9.671,9.672V458.972z"/>
	<path style="fill-rule:evenodd;clip-rule:evenodd;fill:#4D4948;" d="M269.264,467.066L269.264,467.066
		c-4.392,0-7.985,3.59-7.985,7.982v60.684c0,4.392,3.593,7.985,7.985,7.985l0,0c4.393,0,7.985-3.593,7.985-7.985v-60.684
		C277.249,470.657,273.656,467.066,269.264,467.066z"/>
	<path style="fill-rule:evenodd;clip-rule:evenodd;fill:#231F20;" d="M269.264,467.066c-4.392,0-7.985,3.59-7.985,7.982v60.684
		c0,4.392,3.593,7.985,7.985,7.985V467.066z"/>
	<rect x="189.657" y="496.978" style="fill-rule:evenodd;clip-rule:evenodd;fill:#E6E7E8;" width="52.285" height="16.827"/>
	<rect x="189.654" y="508.292" style="fill-rule:evenodd;clip-rule:evenodd;fill:#D0D2D3;" width="52.285" height="5.514"/>
	<rect x="282.612" y="500.711" style="fill-rule:evenodd;clip-rule:evenodd;fill:#E6E7E8;" width="5.274" height="9.355"/>
	<rect x="282.612" y="507.003" style="fill-rule:evenodd;clip-rule:evenodd;fill:#D0D2D3;" width="5.274" height="3.065"/>
	<path style="fill-rule:evenodd;clip-rule:evenodd;fill:#BBBDBF;" d="M278.546,493.225h2.77c0.714,0,1.297,0.582,1.297,1.294v21.175
		c0,0.715-0.582,1.297-1.297,1.297h-2.77c-0.712,0-1.295-0.583-1.295-1.297V494.52C277.251,493.807,277.834,493.225,278.546,493.225
		z"/>
	<path style="fill-rule:evenodd;clip-rule:evenodd;fill:#D0D2D3;" d="M278.546,493.225h2.77c0.703,0,1.278,0.564,1.297,1.262v0.033
		v13.974v0.033c-0.019,0.696-0.594,1.263-1.297,1.263h-2.77c-0.703,0-1.276-0.566-1.295-1.263v-0.033V494.52v-0.033
		C277.27,493.789,277.843,493.225,278.546,493.225z"/>
	<path style="fill-rule:evenodd;clip-rule:evenodd;fill:#4D4948;" d="M179.983,458.972L179.983,458.972
		c5.318,0,9.671,4.353,9.671,9.671v73.497c0,5.319-4.353,9.672-9.671,9.672l0,0c-5.319,0-9.671-4.353-9.671-9.672v-73.497
		C170.312,463.324,174.665,458.972,179.983,458.972z"/>
	<path style="fill-rule:evenodd;clip-rule:evenodd;fill:#231F20;" d="M179.983,458.972c5.318,0,9.671,4.353,9.671,9.671v73.497
		c0,5.319-4.353,9.672-9.671,9.672V458.972z"/>
	<path style="fill-rule:evenodd;clip-rule:evenodd;fill:#838281;" d="M162.33,467.066L162.33,467.066
		c4.392,0,7.982,3.59,7.982,7.982v60.684c0,4.392-3.591,7.985-7.982,7.985l0,0c-4.393,0-7.985-3.593-7.985-7.985v-60.684
		C154.344,470.657,157.937,467.066,162.33,467.066z"/>
	<path style="fill-rule:evenodd;clip-rule:evenodd;fill:#231F20;" d="M162.33,467.066c4.392,0,7.982,3.59,7.982,7.982v60.684
		c0,4.392-3.591,7.985-7.982,7.985V467.066z"/>
	<rect x="143.709" y="500.711" style="fill-rule:evenodd;clip-rule:evenodd;fill:#E6E7E8;" width="5.274" height="9.355"/>
	<rect x="143.709" y="507.003" style="fill-rule:evenodd;clip-rule:evenodd;fill:#D0D2D3;" width="5.274" height="3.065"/>
	<path style="fill-rule:evenodd;clip-rule:evenodd;fill:#BBBDBF;" d="M153.047,493.225h-2.77c-0.712,0-1.297,0.582-1.297,1.294
		v21.175c0,0.715,0.585,1.297,1.297,1.297h2.77c0.714,0,1.297-0.583,1.297-1.297V494.52
		C154.344,493.807,153.762,493.225,153.047,493.225z"/>
	<path style="fill-rule:evenodd;clip-rule:evenodd;fill:#D0D2D3;" d="M153.047,493.225h-2.77c-0.703,0-1.278,0.564-1.297,1.262
		v0.033v13.974v0.033c0.019,0.696,0.594,1.263,1.297,1.263h2.77c0.703,0,1.278-0.566,1.297-1.263v-0.033V494.52v-0.033
		C154.325,493.789,153.751,493.225,153.047,493.225z"/>
</g>
<g>
	<path style="fill-rule:evenodd;clip-rule:evenodd;fill:#4D4948;" d="M240.679,382.809L240.679,382.809
		c-3.695,0-6.718,3.022-6.718,6.718v51.066c0,3.695,3.023,6.719,6.718,6.719l0,0c3.696,0,6.721-3.023,6.721-6.719v-51.066
		C247.399,385.831,244.375,382.809,240.679,382.809z"/>
	<path style="fill-rule:evenodd;clip-rule:evenodd;fill:#231F20;" d="M240.679,382.809c-3.695,0-6.718,3.022-6.718,6.718v51.066
		c0,3.695,3.023,6.719,6.718,6.719V382.809z"/>
	<path style="fill-rule:evenodd;clip-rule:evenodd;fill:#4D4948;" d="M252.946,388.43L252.946,388.43
		c-3.05,0-5.547,2.497-5.547,5.549v42.161c0,3.051,2.497,5.547,5.547,5.547l0,0c3.051,0,5.547-2.496,5.547-5.547v-42.161
		C258.494,390.927,255.998,388.43,252.946,388.43z"/>
	<path style="fill-rule:evenodd;clip-rule:evenodd;fill:#231F20;" d="M252.946,388.43c-3.05,0-5.547,2.497-5.547,5.549v42.161
		c0,3.051,2.497,5.547,5.547,5.547V388.43z"/>
	<rect x="197.635" y="409.211" style="fill-rule:evenodd;clip-rule:evenodd;fill:#E6E7E8;" width="36.325" height="11.693"/>
	<rect x="197.635" y="417.076" style="fill-rule:evenodd;clip-rule:evenodd;fill:#D0D2D3;" width="36.325" height="3.831"/>
	<rect x="262.222" y="411.808" style="fill-rule:evenodd;clip-rule:evenodd;fill:#E6E7E8;" width="3.663" height="6.499"/>
	<rect x="262.222" y="416.181" style="fill-rule:evenodd;clip-rule:evenodd;fill:#D0D2D3;" width="3.663" height="2.128"/>
	<path style="fill-rule:evenodd;clip-rule:evenodd;fill:#BBBDBF;" d="M259.397,406.605h1.924c0.495,0,0.901,0.405,0.901,0.901
		v14.713c0,0.495-0.406,0.901-0.901,0.901h-1.924c-0.496,0-0.901-0.406-0.901-0.901v-14.713
		C258.496,407.011,258.901,406.605,259.397,406.605z"/>
	<path style="fill-rule:evenodd;clip-rule:evenodd;fill:#D0D2D3;" d="M259.397,406.605h1.924c0.486,0,0.887,0.394,0.901,0.878v0.023
		v9.708v0.023c-0.014,0.485-0.415,0.879-0.901,0.879h-1.924c-0.489,0-0.89-0.394-0.901-0.879v-0.023v-9.708v-0.023
		C258.507,406.999,258.908,406.605,259.397,406.605z"/>
	<path style="fill-rule:evenodd;clip-rule:evenodd;fill:#4D4948;" d="M190.914,382.809L190.914,382.809
		c3.695,0,6.719,3.022,6.719,6.718v51.066c0,3.695-3.023,6.719-6.719,6.719l0,0c-3.696,0-6.718-3.023-6.718-6.719v-51.066
		C184.196,385.831,187.218,382.809,190.914,382.809z"/>
	<path style="fill-rule:evenodd;clip-rule:evenodd;fill:#231F20;" d="M190.914,382.809c3.695,0,6.719,3.022,6.719,6.718v51.066
		c0,3.695-3.023,6.719-6.719,6.719V382.809z"/>
	<path style="fill-rule:evenodd;clip-rule:evenodd;fill:#838281;" d="M178.649,388.43L178.649,388.43
		c3.05,0,5.547,2.497,5.547,5.549v42.161c0,3.051-2.497,5.547-5.547,5.547l0,0c-3.053,0-5.549-2.496-5.549-5.547v-42.161
		C173.1,390.927,175.596,388.43,178.649,388.43z"/>
	<path style="fill-rule:evenodd;clip-rule:evenodd;fill:#231F20;" d="M178.649,388.43c3.05,0,5.547,2.497,5.547,5.549v42.161
		c0,3.051-2.497,5.547-5.547,5.547V388.43z"/>
	<rect x="165.712" y="411.808" style="fill-rule:evenodd;clip-rule:evenodd;fill:#E6E7E8;" width="3.663" height="6.499"/>
	<rect x="165.712" y="416.181" style="fill-rule:evenodd;clip-rule:evenodd;fill:#D0D2D3;" width="3.663" height="2.128"/>
	<path style="fill-rule:evenodd;clip-rule:evenodd;fill:#BBBDBF;" d="M172.198,406.605h-1.924c-0.495,0-0.901,0.405-0.901,0.901
		v14.713c0,0.495,0.406,0.901,0.901,0.901h1.924c0.497,0,0.901-0.406,0.901-0.901v-14.713
		C173.1,407.011,172.695,406.605,172.198,406.605z"/>
	<path style="fill-rule:evenodd;clip-rule:evenodd;fill:#D0D2D3;" d="M172.198,406.605h-1.924c-0.486,0-0.887,0.394-0.901,0.878
		v0.023v9.708v0.023c0.014,0.485,0.415,0.879,0.901,0.879h1.924c0.489,0,0.89-0.394,0.901-0.879v-0.023v-9.708v-0.023
		C173.088,406.999,172.688,406.605,172.198,406.605z"/>
</g>
<rect x="207.211" y="611.496" style="fill-rule:evenodd;clip-rule:evenodd;fill:#A6A8AB;" width="15.449" height="37.376"/>
<rect x="207.211" y="648.872" style="fill-rule:evenodd;clip-rule:evenodd;fill:#BBBDBF;" width="15.449" height="10.807"/>
<rect x="207.211" y="490.952" style="fill-rule:evenodd;clip-rule:evenodd;fill:#A6A8AB;" width="15.449" height="30.749"/>
<rect x="207.211" y="521.701" style="fill-rule:evenodd;clip-rule:evenodd;fill:#BBBDBF;" width="15.449" height="10.807"/>
<rect x="207.211" y="404.379" style="fill-rule:evenodd;clip-rule:evenodd;fill:#A6A8AB;" width="15.449" height="18.688"/>
<rect x="207.211" y="423.069" style="fill-rule:evenodd;clip-rule:evenodd;fill:#BBBDBF;" width="15.449" height="10.808"/>
<g>
	<path style="fill-rule:evenodd;clip-rule:evenodd;fill:#6D6E70;" d="M889.342,925.742c25.837,0,46.789,20.951,46.789,46.789
		c0,15.714-7.753,29.622-19.639,38.107h-54.301c-11.886-8.485-19.639-22.393-19.639-38.107
		C842.553,946.693,863.505,925.742,889.342,925.742z"/>
	<path style="fill-rule:evenodd;clip-rule:evenodd;fill:#231F20;" d="M904.704,928.328c18.292,6.356,31.427,23.75,31.427,44.203
		c0,15.714-7.753,29.622-19.639,38.107h-23.576c-11.886-8.485-19.636-22.393-19.636-38.107
		C873.28,952.078,886.414,934.685,904.704,928.328z"/>
	<path style="fill:#231F20;" d="M877.038,876.467h26.003c6.291,0,12.009,2.569,16.149,6.711v0.022
		c4.139,4.142,6.712,9.852,6.712,16.129v44.013c-3.39-4.24-7.501-7.881-12.151-10.729v-33.284c0-2.948-1.204-5.631-3.139-7.571
		l-0.012,0.012c-1.942-1.943-4.621-3.15-7.56-3.15h-26.003c-2.938,0-5.616,1.207-7.561,3.15l-0.012-0.012
		c-1.934,1.94-3.137,4.623-3.137,7.571v32.46c-4.59,2.599-8.695,5.949-12.153,9.886v-42.346c0-6.276,2.573-11.986,6.711-16.129
		v-0.022C865.029,879.036,870.746,876.467,877.038,876.467z"/>
	<path style="fill-rule:evenodd;clip-rule:evenodd;fill:#4C4847;" d="M889.339,997.479c13.981,0,25.388-11.403,25.388-25.385
		s-11.406-25.388-25.388-25.388c-13.982,0-25.385,11.406-25.385,25.388S875.357,997.479,889.339,997.479z"/>
	<path style="fill-rule:evenodd;clip-rule:evenodd;fill:#D0D2D3;" d="M864.136,949.472c2.773,0,5.034-2.258,5.034-5.032
		c0-2.773-2.261-5.034-5.034-5.034c-2.773,0-5.032,2.261-5.032,5.034C859.104,947.214,861.362,949.472,864.136,949.472z"/>
</g>
<path style="fill-rule:evenodd;clip-rule:evenodd;fill:#210E0A;" d="M125.999,1003.612h1358.191c8.849,0,16.088,7.24,16.088,16.088
	v16.086H109.913V1019.7C109.913,1010.851,117.15,1003.612,125.999,1003.612z"/>
<rect x="364.313" y="835.313" style="fill-rule:evenodd;clip-rule:evenodd;fill:#DEDEDD;" width="50.664" height="41.15"/>
<rect x="364.313" y="861.866" style="fill-rule:evenodd;clip-rule:evenodd;fill:#808184;" width="50.664" height="14.601"/>
</svg>
